<svg width="38" height="24" viewBox="0 0 38 24" fill="none" xmlns="http://www.w3.org/2000/svg">
<path d="M25.2148 13.5204L22.0222 12.1015C21.7967 12.0013 21.6511 11.7771 21.6511 11.5303V10.6536C22.7235 9.79914 23.4128 8.4833 23.4128 7.00871V5.77462C23.7661 5.5794 24 5.20215 24 4.77962V4.65985C24 2.09042 21.9096 0 19.3402 0H18.1658C15.5963 0 13.5059 2.09042 13.5059 4.65985V5.74656C13.5059 6.11796 13.6658 6.45441 13.9443 6.6697C13.9916 6.70618 14.0413 6.73826 14.0931 6.76603V7.00864C14.0931 8.48322 14.7823 9.79907 15.8547 10.6535V11.5303C15.8547 11.777 15.709 12.0012 15.4835 12.1014L12.291 13.5203C11.2455 13.985 10.5699 15.0246 10.5699 16.1687V23.4504C10.5699 23.7538 10.8158 23.9998 11.1193 23.9998C11.4227 23.9998 11.6687 23.7538 11.6687 23.4504V16.1688C11.6687 16.1051 11.6732 16.0422 11.6798 15.9798L13.1509 17.4509C13.3798 17.6799 13.5059 17.9842 13.5059 18.3081V23.4505C13.5059 23.7539 13.7519 23.9999 14.0553 23.9999C14.3587 23.9999 14.6047 23.7539 14.6047 23.4505V18.3081C14.6047 17.6908 14.3644 17.1105 13.9279 16.674L12.1741 14.9201C12.3321 14.7562 12.5217 14.6203 12.7373 14.5244L15.876 13.1295L18.2036 15.4571V23.4504C18.2036 23.7538 18.4496 23.9998 18.753 23.9998C19.0564 23.9998 19.3024 23.7538 19.3024 23.4504V15.4571L21.6301 13.1295L24.7687 14.5244C24.9843 14.6203 25.1739 14.7562 25.3319 14.9202L23.5781 16.674C23.1416 17.1105 22.9013 17.6908 22.9013 18.3081V23.4505C22.9013 23.7539 23.1473 23.9999 23.4507 23.9999C23.7541 23.9999 24.0001 23.7539 24.0001 23.4505V18.3081C24.0001 17.9843 24.1262 17.6799 24.3551 17.4509L25.8261 15.9799C25.8327 16.0423 25.8373 16.1051 25.8373 16.1687V23.4504C25.8373 23.7538 26.0833 23.9998 26.3867 23.9998C26.6901 23.9998 26.9361 23.7538 26.9361 23.4504V16.1688C26.9359 15.0247 26.2603 13.985 25.2148 13.5204ZM18.7528 14.4526L16.7104 12.4102C16.8657 12.1489 16.9534 11.8466 16.9534 11.5303V11.3068C17.5074 11.5396 18.1154 11.6686 18.7529 11.6686C19.3904 11.6686 19.9983 11.5396 20.5522 11.3068V11.5303C20.5522 11.8466 20.6399 12.1489 20.7953 12.4103L18.7528 14.4526ZM18.7529 10.5697C16.7893 10.5698 15.1918 8.97226 15.1918 7.00871V6.76163C15.5347 6.62575 15.8693 6.4095 16.1896 6.11393C16.4125 5.90816 16.4265 5.56057 16.2207 5.33759C16.0149 5.11468 15.6674 5.10069 15.4443 5.30646C15.1696 5.56013 14.895 5.724 14.6285 5.79359C14.6221 5.79528 14.6173 5.79601 14.6139 5.7963C14.61 5.78861 14.6046 5.77249 14.6046 5.74663V4.65992C14.6046 2.69637 16.2021 1.09887 18.1657 1.09887H19.3401C21.3037 1.09887 22.9011 2.69637 22.9011 4.65992V4.77969C22.9011 4.79749 22.8904 4.81295 22.8764 4.81573C19.5865 5.46549 17.9364 4.24092 17.3797 3.68419C17.1651 3.46963 16.8172 3.46963 16.6028 3.68419C16.3882 3.89875 16.3882 4.24663 16.6028 4.46112C18.3088 6.16718 20.7983 6.19795 22.3139 6.01584V7.00864C22.3139 8.97219 20.7164 10.5697 18.7529 10.5697Z" fill="#00427E"/>
<path d="M9.9069 10.5321V9.35748C9.9069 7.92421 9.16206 6.6625 8.03975 5.93641C8.10905 5.71409 8.14524 5.48122 8.14524 5.24703C8.14524 3.97271 7.10856 2.93604 5.83425 2.93604C4.55993 2.93604 3.52326 3.97279 3.52326 5.24703C3.52326 5.48415 3.55915 5.71475 3.62859 5.93656C2.50636 6.66257 1.76159 7.92428 1.76159 9.35748V10.5319C1.76159 11.9198 2.45991 13.1471 3.52318 13.8827V15.0909C3.52318 15.3291 3.39081 15.5433 3.17772 15.6499L1.27746 16.6C0.489477 16.9941 0 17.7861 0 18.6671V23.4505C0 23.7539 0.245984 23.9999 0.549398 23.9999C0.852813 23.9999 1.0988 23.7539 1.0988 23.4505V18.9048L1.9938 19.7998C2.22272 20.0288 2.34886 20.3331 2.34886 20.657V23.4505C2.34886 23.7539 2.59485 23.9999 2.89826 23.9999C3.20167 23.9999 3.44766 23.7539 3.44766 23.4505V20.657C3.44766 20.0397 3.20724 19.4594 2.7708 19.0229L1.52513 17.7772C1.51912 17.7712 1.51268 17.766 1.50652 17.7603C1.58468 17.6913 1.67237 17.6313 1.76892 17.5829L3.66918 16.6328C3.76653 16.5841 3.85714 16.5266 3.9416 16.4627L5.28485 17.8061V23.4506C5.28485 23.754 5.53083 24 5.83425 24C6.13766 24 6.38364 23.754 6.38364 23.4506V17.806L7.72696 16.4627C7.81149 16.5266 7.90204 16.5841 7.99939 16.6328L8.52337 16.8948C8.60226 16.9343 8.68606 16.9529 8.76869 16.9529C8.97021 16.9529 9.16426 16.8416 9.26051 16.6492C9.39625 16.3778 9.28623 16.0478 9.01482 15.9121L8.49084 15.6501C8.27768 15.5435 8.14531 15.3293 8.14531 15.0911V13.8829C9.20858 13.1473 9.9069 11.9199 9.9069 10.5321ZM5.83425 4.03483C6.50268 4.03483 7.04644 4.57866 7.04644 5.24703C7.04644 5.32064 7.03985 5.3928 7.02725 5.46349C6.6497 5.3476 6.24922 5.28482 5.83425 5.28482C5.41985 5.28482 5.01989 5.34738 4.64293 5.46298C4.63026 5.39229 4.62205 5.3205 4.62205 5.24703C4.62205 4.57859 5.16581 4.03483 5.83425 4.03483ZM5.83425 6.38369C7.47402 6.38369 8.8081 7.71778 8.8081 9.35755V9.55665C6.52077 10.257 5.15761 8.51697 5.09937 8.44071C5.00378 8.31333 4.85763 8.23363 4.69882 8.22235C4.54001 8.21121 4.38398 8.2693 4.27139 8.38189C3.74697 8.90631 3.23332 9.15925 2.86237 9.28137C2.90302 7.67668 4.22004 6.38369 5.83425 6.38369ZM5.83425 16.8014L4.5647 15.5318C4.60176 15.3902 4.62205 15.2425 4.62205 15.0909V14.4203C5.00509 14.54 5.41231 14.6045 5.83425 14.6045C6.25618 14.6045 6.6634 14.54 7.04644 14.4203V15.0909C7.04644 15.2425 7.06673 15.3902 7.1038 15.5318L5.83425 16.8014ZM5.83425 13.5057C4.19447 13.5057 2.86039 12.1716 2.86039 10.5319V10.418C3.29852 10.3174 3.94812 10.0835 4.62579 9.53849C4.86555 9.76469 5.20822 10.0422 5.64459 10.2802C6.16074 10.5617 6.87356 10.8221 7.74425 10.8221C8.07513 10.8221 8.42916 10.7836 8.80342 10.6953C8.71822 12.2594 7.41915 13.5057 5.83425 13.5057Z" fill="#00427E"/>
<path d="M36.2281 15.4257L33.1535 13.8883C32.9404 13.7817 32.808 13.5675 32.808 13.3293V12.5507C33.5277 11.9117 33.9824 10.9805 33.9824 9.94472V9.31936C33.9951 9.31936 34.0076 9.31972 34.0202 9.31972C34.3236 9.31972 34.5696 9.07374 34.5696 8.77032V7.59593C34.5696 5.67406 33.006 4.11047 31.0842 4.11047H29.9098C27.9879 4.11047 26.4243 5.67406 26.4243 7.59593V8.77032C26.4243 9.07374 26.6703 9.31972 26.9737 9.31972C26.9783 9.31972 26.9914 9.31958 27.0115 9.31877V9.94472C27.0115 10.9806 27.4663 11.9118 28.186 12.5508V13.3294C28.186 13.5677 28.0536 13.7819 27.8404 13.8884C27.569 14.024 27.459 14.354 27.5948 14.6254C27.691 14.818 27.8851 14.9293 28.0866 14.9293C28.1691 14.9293 28.2529 14.9106 28.3318 14.8712C28.4292 14.8225 28.5198 14.765 28.6043 14.7011L29.9476 16.0444V23.4505C29.9476 23.754 30.1936 23.9999 30.497 23.9999C30.8004 23.9999 31.0464 23.754 31.0464 23.4505V16.0443L32.3896 14.701C32.4741 14.7649 32.5647 14.8224 32.662 14.8711L35.6372 16.3587L34.7348 17.2611C34.2984 17.6976 34.058 18.2779 34.058 18.8952V23.4504C34.058 23.7538 34.3039 23.9998 34.6073 23.9998C34.9108 23.9998 35.1567 23.7538 35.1567 23.4504V18.8952C35.1567 18.5714 35.2828 18.267 35.5118 18.038L36.3666 17.1832C36.3925 17.2826 36.4067 17.3863 36.4067 17.4926V23.4504C36.4067 23.7538 36.6527 23.9998 36.9561 23.9998C37.2596 23.9998 37.5055 23.7538 37.5055 23.4504V17.4926C37.5056 16.6117 37.0161 15.8197 36.2281 15.4257ZM27.523 8.1079V7.59586H27.5231C27.5231 6.27987 28.5938 5.2092 29.9098 5.2092H31.0842C32.4002 5.2092 33.4708 6.27987 33.4708 7.59586V8.20613C31.0826 8.07728 29.6413 7.14791 29.6273 7.13876C29.5343 7.07679 29.4283 7.04646 29.3227 7.04646C29.1809 7.04646 29.0403 7.10125 28.934 7.2074C28.4084 7.73306 27.8933 7.98608 27.523 8.1079ZM30.497 15.0398L29.2274 13.7702C29.2645 13.6285 29.2848 13.4809 29.2848 13.3293V13.2123C29.6625 13.3529 30.0709 13.4301 30.497 13.4301C30.9231 13.4301 31.3315 13.3529 31.7092 13.2123V13.3293C31.7092 13.4809 31.7294 13.6285 31.7665 13.7702L30.497 15.0398ZM30.497 12.3314C29.181 12.3314 28.1103 11.2608 28.1103 9.94472V9.05902C28.4951 8.90526 28.9434 8.66081 29.3996 8.27213C29.9766 8.57232 31.1836 9.09117 32.8836 9.26259V9.94472C32.8836 11.2607 31.813 12.3314 30.497 12.3314Z" fill="#00427E"/>
</svg>
