<svg width="18" height="18" viewBox="0 0 18 18" fill="none" xmlns="http://www.w3.org/2000/svg">
<g clip-path="url(#clip0_218_7247)">
<path d="M0.807156 5.59961H17.1929L17.2001 5.60672V15.2996C17.2001 15.8035 16.9999 16.2868 16.6436 16.6431C16.2872 16.9994 15.804 17.1996 15.3 17.1996H2.70005C2.19614 17.1996 1.71287 16.9994 1.35655 16.6431C1.00023 16.2868 0.800049 15.8035 0.800049 15.2996V5.60672L0.807156 5.59961Z" stroke="#F28B00"/>
<path d="M17.7001 4.1998V5.3998H0.300049V4.1998C0.300049 3.56329 0.552905 2.95284 1.00299 2.50275C1.45308 2.05266 2.06353 1.7998 2.70005 1.7998H15.3C15.9366 1.7998 16.547 2.05266 16.9971 2.50275C17.4472 2.95284 17.7001 3.56329 17.7001 4.1998Z" fill="#F28B00"/>
<path d="M3.9 0.299805H3.3C3.13431 0.299805 3 0.434119 3 0.599805V2.9998C3 3.16549 3.13431 3.2998 3.3 3.2998H3.9C4.06569 3.2998 4.2 3.16549 4.2 2.9998V0.599805C4.2 0.434119 4.06569 0.299805 3.9 0.299805Z" fill="#00427E"/>
<path d="M9.30002 0.299805H8.70002C8.53434 0.299805 8.40002 0.434119 8.40002 0.599805V2.9998C8.40002 3.16549 8.53434 3.2998 8.70002 3.2998H9.30002C9.46571 3.2998 9.60002 3.16549 9.60002 2.9998V0.599805C9.60002 0.434119 9.46571 0.299805 9.30002 0.299805Z" fill="#00427E"/>
<path d="M14.7 0.299805H14.1C13.9344 0.299805 13.8 0.434119 13.8 0.599805V2.9998C13.8 3.16549 13.9344 3.2998 14.1 3.2998H14.7C14.8657 3.2998 15 3.16549 15 2.9998V0.599805C15 0.434119 14.8657 0.299805 14.7 0.299805Z" fill="#00427E"/>
</g>
<defs>
<clipPath id="clip0_218_7247">
<rect width="18" height="18" fill="white"/>
</clipPath>
</defs>
</svg>
