<svg width="24" height="24" viewBox="0 0 24 24" fill="none" xmlns="http://www.w3.org/2000/svg">
<g clip-path="url(#clip0_27_726)">
<path d="M14 9.08997L22.81 10.84C23.52 10.99 24 11.59 24 12.3V22.5C24 23.33 23.33 24 22.5 24H13.5C13.78 24 14 23.78 14 23.5V23H22.5C22.77 23 23 22.78 23 22.5V12.3C23 12.07 22.84 11.86 22.61 11.81L14 10.11V9.08997Z" fill="#00427E"/>
<path d="M19.5 14C19.78 14 20 14.22 20 14.5C20 14.78 19.78 15 19.5 15H17.5C17.22 15 17 14.78 17 14.5C17 14.22 17.22 14 17.5 14H19.5Z" fill="#00427E"/>
<path d="M19.5 17C19.78 17 20 17.22 20 17.5C20 17.78 19.78 18 19.5 18H17.5C17.22 18 17 17.78 17 17.5C17 17.22 17.22 17 17.5 17H19.5Z" fill="#00427E"/>
<path d="M19.5 20C19.78 20 20 20.22 20 20.5C20 20.78 19.78 21 19.5 21H17.5C17.22 21 17 20.78 17 20.5C17 20.22 17.22 20 17.5 20H19.5Z" fill="#00427E"/>
<path d="M14 23.5C14 23.78 13.78 24 13.5 24C13.22 24 13 23.78 13 23.5V23V9.49997C13 9.34997 13.07 9.20997 13.18 9.10997C13.3 9.01997 13.45 8.97997 13.6 9.00997L14 9.08997V10.11V23V23.5Z" fill="#00427E"/>
<path d="M13 23V23.5C13 23.78 13.22 24 13.5 24H9.5C9.78 24 10 23.78 10 23.5V23H13Z" fill="#00427E"/>
<path d="M10.5 5C10.78 5 11 5.22 11 5.5C11 5.78 10.78 6 10.5 6H8.5C8.22 6 8 5.78 8 5.5C8 5.22 8.22 5 8.5 5H10.5Z" fill="#00427E"/>
<path d="M11 8.5C11 8.78 10.78 9 10.5 9H8.5C8.22 9 8 8.78 8 8.5C8 8.22 8.22 8 8.5 8H10.5C10.78 8 11 8.22 11 8.5Z" fill="#00427E"/>
<path d="M10.5 11C10.78 11 11 11.22 11 11.5C11 11.78 10.78 12 10.5 12H8.5C8.22 12 8 11.78 8 11.5C8 11.22 8.22 11 8.5 11H10.5Z" fill="#00427E"/>
<path d="M10.5 14C10.78 14 11 14.22 11 14.5C11 14.78 10.78 15 10.5 15H8.5C8.22 15 8 14.78 8 14.5C8 14.22 8.22 14 8.5 14H10.5Z" fill="#00427E"/>
<path d="M6 14.5C6 14.78 5.78 15 5.5 15H3.5C3.22 15 3 14.78 3 14.5C3 14.22 3.22 14 3.5 14H5.5C5.78 14 6 14.22 6 14.5Z" fill="#00427E"/>
<path d="M5.5 5C5.78 5 6 5.22 6 5.5C6 5.78 5.78 6 5.5 6H3.5C3.22 6 3 5.78 3 5.5C3 5.22 3.22 5 3.5 5H5.5Z" fill="#00427E"/>
<path d="M5.5 8C5.78 8 6 8.22 6 8.5C6 8.78 5.78 9 5.5 9H3.5C3.22 9 3 8.78 3 8.5C3 8.22 3.22 8 3.5 8H5.5Z" fill="#00427E"/>
<path d="M5.5 11C5.78 11 6 11.22 6 11.5C6 11.78 5.78 12 5.5 12H3.5C3.22 12 3 11.78 3 11.5C3 11.22 3.22 11 3.5 11H5.5Z" fill="#00427E"/>
<path d="M9 18.5C9 18.22 8.77 18 8.5 18H5.5C5.22 18 5 18.22 5 18.5V23H4V18.5C4 17.67 4.67 17 5.5 17H8.5C9.33 17 10 17.67 10 18.5V23H9V18.5Z" fill="#00427E"/>
<path d="M5 23H9H10V23.5C10 23.78 9.78 24 9.5 24H4.5C4.22 24 4 23.78 4 23.5V23H5Z" fill="#00427E"/>
<path d="M1.75 0.200011L12.74 1.87001C13.47 1.99001 14 2.61001 14 3.35001V9.09001L13.6 9.01001C13.45 8.98001 13.3 9.02001 13.18 9.11001C13.07 9.21001 13 9.35001 13 9.50001V3.35001C13 3.10001 12.82 2.89001 12.58 2.85001L1.59 1.19001C1.56 1.18001 1.53 1.18001 1.5 1.18001C1.38 1.18001 1.27 1.22001 1.18 1.30001C1.06 1.40001 1 1.53001 1 1.68001V22.5C1 22.78 1.23 23 1.5 23H4V23.5C4 23.78 4.22 24 4.5 24H1.5C0.67 24 0 23.33 0 22.5V1.68001C0 1.24001 0.19 0.820011 0.53 0.540011C0.87 0.250011 1.31 0.130011 1.75 0.200011Z" fill="#00427E"/>
</g>
<defs>
<clipPath id="clip0_27_726">
<rect width="24" height="24" fill="white"/>
</clipPath>
</defs>
</svg>
