<svg width="48" height="56" viewBox="0 0 48 56" fill="none" xmlns="http://www.w3.org/2000/svg">
<g id="&#208;&#161;&#209;&#130;&#208;&#176;&#208;&#189;&#208;&#180;&#208;&#176;&#209;&#128;&#209;&#130;&#209;&#139;_icon">
<path id="Vector" fill-rule="evenodd" clip-rule="evenodd" d="M2.78394 55.7094C15.2046 55.7094 27.5946 55.6788 39.9847 55.6788C41.5143 55.6788 42.7686 54.4245 42.7686 52.8948C42.7686 36.1912 42.7686 19.4876 42.7686 2.78394C42.7686 1.2543 41.5143 0 39.9847 0H2.78394C1.2543 0 0 1.2543 0 2.78394V52.9254C0 54.4551 1.2543 55.7094 2.78394 55.7094Z" fill="#00427E"/>
<path id="Vector_2" fill-rule="evenodd" clip-rule="evenodd" d="M42.7686 45.8281V7.98486C33.2543 9.02502 25.8509 17.1015 25.8509 26.8912C25.8509 36.7114 33.2543 44.7879 42.7686 45.8281Z" fill="#F28B00"/>
<path id="Vector_3" fill-rule="evenodd" clip-rule="evenodd" d="M13.2161 0H2.78394C1.2543 0 0 1.2543 0 2.78394V14.6845C6.7304 12.6654 11.9006 7.00574 13.2161 0Z" fill="#F28B00"/>
<path id="Vector_4" d="M4.09943 17.2852H38.6998V17.5605H4.09943V17.2852Z" fill="white"/>
<path id="Vector_5" d="M4.09943 22.7607H38.6998V23.0667H4.09943V22.7607Z" fill="white"/>
<path id="Vector_6" d="M4.09943 28.2679L38.6998 28.2373V28.5432H4.09943V28.2679Z" fill="white"/>
<path id="Vector_7" d="M4.09943 33.7437H38.6998V34.019H4.09943V33.7437Z" fill="white"/>
<path id="Vector_8" d="M4.09943 39.2197H38.6998V39.4951H4.09943V39.2197Z" fill="white"/>
<path id="Vector_9" d="M4.09943 9.05566H21.5373V9.331H4.09943V9.05566Z" fill="white"/>
<path id="Vector_10" d="M32.5813 55.8932C41.0968 55.8932 48 49.1133 48 40.7498C48 32.3864 41.0968 25.6064 32.5813 25.6064C24.0657 25.6064 17.1625 32.3864 17.1625 40.7498C17.1625 49.1133 24.0657 55.8932 32.5813 55.8932Z" fill="#189AD7"/>
<path id="Vector_11" d="M32.7648 51.1512C38.8473 51.1512 43.7782 46.3162 43.7782 40.352C43.7782 34.3877 38.8473 29.5527 32.7648 29.5527C26.6823 29.5527 21.7514 34.3877 21.7514 40.352C21.7514 46.3162 26.6823 51.1512 32.7648 51.1512Z" fill="#F28B00"/>
<path id="Vector_12" fill-rule="evenodd" clip-rule="evenodd" d="M32.7648 29.5527C38.8528 29.5527 43.7782 34.3864 43.7782 40.352C43.7782 42.3099 43.2581 44.1761 42.3097 45.7669C34.5392 44.7267 28.2677 39.0059 26.4015 31.5413C28.2065 30.287 30.4092 29.5527 32.7648 29.5527Z" fill="#00427E"/>
<path id="Vector_13" d="M38.9446 37.507L30.3786 45.9505C29.0019 44.5739 27.5947 43.1666 26.218 41.7899L28.023 39.9544C28.8184 40.7498 29.6138 41.5452 30.3786 42.31L37.1396 35.6714L38.9446 37.507Z" fill="#00427E"/>
<path id="Vector_14" d="M38.9445 37.507L33.9273 42.463C33.2237 41.9735 32.5507 41.4228 31.9082 40.8416L37.1396 35.6714L38.9445 37.507Z" fill="#F28B00"/>
</g>
</svg>
