<svg width="48" height="58" viewBox="0 0 48 58" fill="none" xmlns="http://www.w3.org/2000/svg">
<g id="&#208;&#145;&#209;&#128;&#208;&#181;&#208;&#189;&#208;&#180;&#208;&#177;&#209;&#131;&#208;&#186;_icon">
<path id="Vector" d="M45.5921 0H2.40792C1.07806 0 0 1.26247 0 2.8198V54.495C0 56.0524 1.07806 57.3148 2.40792 57.3148H45.5921C46.9219 57.3148 48 56.0524 48 54.495V2.8198C48 1.26247 46.9219 0 45.5921 0Z" fill="#189AD7"/>
<path id="Vector_2" fill-rule="evenodd" clip-rule="evenodd" d="M10.8673 0H45.5921C46.9228 0 48 1.07723 48 2.40792V54.9069C48 56.2059 46.9228 57.3148 45.5921 57.3148H10.8673V0Z" fill="#00427E"/>
<path id="Vector_3" fill-rule="evenodd" clip-rule="evenodd" d="M48 14.1304V54.9066C48 56.2056 46.9228 57.3145 45.5921 57.3145H29.2436C27.4059 53.2908 26.3604 48.7918 26.3604 44.071C26.3604 30.1304 35.4218 18.2809 48 14.1304Z" fill="#F28B00"/>
<g id="_1394035312064">
<path id="Vector_4" fill-rule="evenodd" clip-rule="evenodd" d="M29.402 20.0874C31.1129 22.0518 34.4079 25.125 34.4079 27.7547C34.4079 30.4795 32.1901 32.6656 29.4337 32.6656C26.6772 32.6656 24.4277 30.4795 24.4277 27.7547C24.4277 25.0617 27.7545 21.9884 29.402 20.0874Z" fill="#189AD7"/>
<path id="Vector_5" fill-rule="evenodd" clip-rule="evenodd" d="M29.4337 24.4595C30.5426 25.7585 32.6653 27.7545 32.6653 29.4654C32.6653 31.2397 31.2079 32.6654 29.4337 32.6654C27.6277 32.6654 26.1703 31.2397 26.1703 29.4654C26.1703 27.7228 28.3564 25.6951 29.4337 24.4595Z" fill="#F28B00"/>
<path id="Vector_6" d="M29.9723 27.248C30.7644 28.1351 31.8099 29.2757 31.8099 30.3212C31.8099 30.9866 31.5564 31.5886 31.1129 32.0005C30.1941 32.9193 28.6416 32.9193 27.7228 32.0005C27.3109 31.5886 27.0257 30.9866 27.0257 30.3212C27.0257 29.2757 28.0713 28.1034 28.895 27.248C29.0535 27.0579 29.2436 26.8361 29.4337 26.646C29.5921 26.8361 29.7822 27.0579 29.9723 27.248ZM29.7505 27.4381L29.4337 27.0896L29.0851 27.4381C28.3248 28.2618 27.3109 29.3707 27.3109 30.3212C27.3109 30.8915 27.5644 31.4302 27.9446 31.7787C28.7683 32.6024 30.099 32.6024 30.9228 31.7787C31.303 31.4302 31.5248 30.8915 31.5248 30.3212C31.5248 29.4024 30.5109 28.2935 29.7505 27.4381Z" fill="white"/>
</g>
<g id="_1394035309088">
<path id="Vector_7" fill-rule="evenodd" clip-rule="evenodd" d="M33.1723 24.5225C33.901 25.5997 34.4079 26.7086 34.4079 27.7541C34.4079 30.4789 32.1901 32.665 29.4337 32.665C29.1168 32.665 28.8 32.6334 28.5149 32.6017C29.6554 29.6551 31.2396 26.9304 33.1723 24.5225Z" fill="#189AD7"/>
<path id="Vector_8" fill-rule="evenodd" clip-rule="evenodd" d="M31.4931 26.8359C32.1584 27.6914 32.6653 28.6102 32.6653 29.4656C32.6653 31.2399 31.2079 32.6656 29.4337 32.6656C29.1168 32.6656 28.8 32.634 28.5149 32.5706C29.3069 30.5429 30.3208 28.6102 31.4931 26.8359Z" fill="#00427E"/>
<path id="Vector_9" d="M30.701 28.103C31.303 28.8001 31.8099 29.5921 31.8099 30.3208C31.8099 30.9862 31.5564 31.5882 31.1129 32.0001C30.4475 32.6654 29.402 32.8555 28.5465 32.507C28.5782 32.4436 28.6099 32.3486 28.6416 32.2535C29.402 32.5387 30.3208 32.3803 30.9228 31.7783C31.303 31.4298 31.5248 30.8911 31.5248 30.3208C31.5248 29.6872 31.0812 28.9902 30.5426 28.3565C30.6059 28.2614 30.6693 28.1664 30.701 28.103Z" fill="white"/>
</g>
<path id="Vector_10" fill-rule="evenodd" clip-rule="evenodd" d="M5.22773 47.4932H48V55.2555H5.22773C3.07327 55.2555 1.3307 53.513 1.3307 51.3902C1.3307 49.2357 3.07327 47.4932 5.22773 47.4932Z" fill="#F28B00"/>
<path id="Vector_11" fill-rule="evenodd" clip-rule="evenodd" d="M26.5505 47.4932H48V55.2555H28.3881C27.4693 52.8159 26.8356 50.2179 26.5505 47.4932Z" fill="#00427E"/>
<path id="Vector_12" d="M3.64357 49.1724H47.0495V49.4575H3.64357V49.1724Z" fill="white"/>
<path id="Vector_13" d="M3.64357 50.5347H47.0495V50.7881H3.64357V50.5347Z" fill="white"/>
<path id="Vector_14" d="M3.64357 51.8657H47.0495V52.1192H3.64357V51.8657Z" fill="white"/>
<path id="Vector_15" d="M3.64357 53.1963H47.0495V53.4814H3.64357V53.1963Z" fill="white"/>
<path id="Vector_16" d="M21.0693 49.1724H47.0495V49.4575H21.0693V49.1724Z" fill="white"/>
<path id="Vector_17" d="M21.0693 50.5347H47.0495V50.7881H21.0693V50.5347Z" fill="white"/>
<path id="Vector_18" d="M21.1327 51.8657H47.0495V52.1192H21.1327V51.8657Z" fill="white"/>
<path id="Vector_19" d="M21.2277 53.1963H47.0495V53.4814H21.2594L21.2277 53.1963Z" fill="white"/>
</g>
</svg>
