<svg width="60" height="52" viewBox="0 0 60 52" fill="none" xmlns="http://www.w3.org/2000/svg">
<g id="&#208;&#146;&#208;&#189;&#208;&#181;&#209;&#136;&#208;&#189;&#208;&#184;&#208;&#185; &#208;&#178;&#208;&#184;&#208;&#180;_icon">
<path id="Vector" fill-rule="evenodd" clip-rule="evenodd" d="M51.3658 51.8369C46.3108 49.9844 41.0675 48.1006 35.9812 46.2796C35.9812 42.4805 35.9812 38.7129 35.9498 34.9452C41.0989 33.0928 46.3108 31.3345 51.46 29.4821C51.4286 36.9232 51.3972 44.3957 51.3658 51.8369ZM8.38305 51.8055C13.438 49.953 18.6813 48.0692 23.7677 46.2168C23.7677 42.4491 23.7677 38.6501 23.7991 34.8824C18.6499 33.03 13.438 31.2717 8.28886 29.4507C8.32025 36.8918 8.35165 44.3329 8.38305 51.8055ZM25.3061 33.5951H34.4427V47.7238H25.3061V33.5951Z" fill="#00427E"/>
<path id="Vector_2" fill-rule="evenodd" clip-rule="evenodd" d="M51.3658 51.8371C46.3108 49.9847 41.0675 48.1008 35.9812 46.2798V37.4258L51.46 29.6079L51.3658 51.8371ZM8.38305 51.3348L23.7677 43.5797V46.217C18.6813 48.0695 13.438 49.9533 8.38305 51.8057V51.3348ZM25.3061 42.7947L34.4427 38.1793V47.7241H25.3061V42.7947Z" fill="#F28B00"/>
<path id="Vector_3" fill-rule="evenodd" clip-rule="evenodd" d="M8.10047 26.7815C5.40032 21.9777 2.76295 17.2681 0.0627944 12.4644C0.0627944 9.16767 0 5.96516 0 2.66846C9.04239 11.2085 18.1162 19.5915 27.19 28.163C25.3061 29.4189 23.4223 30.6433 21.5385 31.8678C17.0487 30.1724 12.6217 28.4769 8.10047 26.7815Z" fill="#189AD7"/>
<path id="Vector_4" fill-rule="evenodd" clip-rule="evenodd" d="M57.551 0.0313972C39.3093 0.0313972 21.0989 0 2.88854 0C6.6562 3.61068 10.3925 7.44113 14.1915 11.0518C24.8352 11.0204 35.416 10.9576 46.0911 10.9262C49.9529 7.25275 53.6892 3.70487 57.551 0.0313972Z" fill="#189AD7"/>
<path id="Vector_5" fill-rule="evenodd" clip-rule="evenodd" d="M38.3359 31.8683C42.8257 30.1728 47.3783 28.4774 51.8681 26.7819C54.5997 21.9782 57.237 17.2686 59.9372 12.4648C59.9372 9.16812 60 5.90281 60 2.57471C50.9262 11.1461 41.7582 19.6862 32.7159 28.2576C34.5683 29.4507 36.4521 30.6752 38.3359 31.8683Z" fill="#189AD7"/>
<path id="Vector_6" d="M46.6562 27.9748L38.3046 31.1145L38.2104 30.8634L46.562 27.7236L46.6562 27.9748Z" fill="white"/>
<path id="Vector_7" d="M13.2182 27.9748L21.5699 31.1145L21.6641 30.8634L13.3124 27.7236L13.2182 27.9748Z" fill="white"/>
</g>
</svg>
