<svg width="60" height="38" viewBox="0 0 60 38" fill="none" xmlns="http://www.w3.org/2000/svg">
<path fill-rule="evenodd" clip-rule="evenodd" d="M6.11207 0.652816C5.00903 2.58878 1.31719 12.6513 0.259167 15.4201C0.0565669 15.9829 -0.146034 16.3656 0.146612 16.8834C0.574324 17.6938 3.52329 18.4592 4.46876 18.8418C5.32418 19.202 5.97701 18.9319 6.29216 18.0765C8.1831 12.9664 10.3217 8.01397 12.2126 2.97147C12.4377 2.38618 12.055 1.73335 11.4922 1.50824C10.2091 1.013 8.81341 0.472727 7.53028 0.0675258C6.89996 -0.135075 6.40472 0.135059 6.11207 0.652816ZM22.095 3.6468C21.5322 3.96196 20.6093 4.4572 20.4967 4.52474C19.7764 4.88492 18.9434 5.29012 18.2906 5.47021C17.6378 5.6503 16.7824 5.76285 16.1295 5.69532C15.1165 5.60527 13.7434 4.95245 13.0455 4.14205C12.3252 5.96545 7.91297 16.9284 7.46274 18.2791C7.41772 18.4141 7.44023 18.4817 7.46274 18.5492C7.84543 19.202 11.2896 22.5787 12.055 23.2765C12.4602 22.9614 12.933 22.5787 13.4732 22.3761C15.4767 21.6107 17.5703 23.4341 17.7954 25.4826C18.2681 25.0549 19.4837 23.8168 20.4517 23.164C22.8154 21.5657 25.5392 23.5467 25.5392 26.0454C26.7548 25.1675 28.4882 25.2575 29.5687 26.293C30.4466 27.1034 31.0319 28.5216 30.3116 30.165C31.6172 30.2325 33.4181 31.268 33.5307 33.1364C33.5982 33.9693 33.5982 34.217 33.3956 34.9373C34.8588 36.1079 37.1325 34.217 36.4121 32.3936C35.3766 30.7277 32.1575 27.6212 31.5722 26.4281C31.5722 25.8878 31.9099 25.4601 32.5177 25.5502C34.0034 27.2385 37.0874 30.8628 38.6407 31.9433C40.7343 32.9338 42.2875 30.8178 41.6347 29.1069C41.2745 28.229 37.5827 24.5147 36.5922 23.4566C35.7593 22.5562 36.8173 21.7458 37.3351 22.0384C38.5507 22.7363 42.4676 27.9814 43.5932 28.7017C45.4166 29.8498 47.3075 27.7788 46.8573 27.0359C41.7923 21.7908 36.4796 15.6903 31.3021 10.6253C31.167 10.4902 31.0094 10.4227 30.8068 10.5577C28.6232 11.7058 22.005 15.1275 19.8889 15.7353C18.4032 15.9379 17.075 15.15 16.5573 13.8669C16.062 12.6738 16.4222 11.0305 17.2326 10.04C18.4032 8.64428 25.089 4.52474 26.8674 3.35416C26.6648 2.97147 25.8544 2.81389 25.4492 2.79138C24.2336 2.72384 23.1981 3.039 22.095 3.6468Z" fill="#00427E"/>
<path fill-rule="evenodd" clip-rule="evenodd" d="M25.1115 24.3349L37.6052 17.1313C40.7118 20.4855 43.8183 23.9072 46.8573 27.0363C47.3075 27.7791 45.4166 29.8502 43.5932 28.7021C42.4676 27.9817 38.5507 22.7366 37.3351 22.0388C36.8173 21.7461 35.7593 22.5565 36.5922 23.457C37.5827 24.515 41.2745 28.2294 41.6347 29.1073C42.2875 30.8181 40.7343 32.9342 38.6407 31.9437C37.0875 30.8632 34.0034 27.2389 32.5177 25.5505C31.9099 25.4605 31.5722 25.8657 31.5722 26.4285C32.1575 27.6216 35.3766 30.7281 36.4121 32.3939C37.1325 34.2173 34.8588 36.1083 33.3956 34.9377C33.5982 34.2173 33.5982 33.9697 33.5307 33.1368C33.4181 31.2684 31.6172 30.2329 30.3116 30.1653C31.0319 28.522 30.4467 27.1038 29.5687 26.2934C28.4882 25.2579 26.7548 25.1678 25.5392 26.0458C25.5392 25.438 25.3816 24.8527 25.1115 24.3349Z" fill="#F28B00"/>
<path fill-rule="evenodd" clip-rule="evenodd" d="M11.5147 26.496C11.5147 27.3964 11.8749 28.0718 12.6853 28.4545C14.6213 29.3099 17.1425 26.9462 16.4897 24.9652C15.6118 22.2414 11.4922 23.5921 11.5147 26.496ZM46.2045 3.78222C47.0149 5.85325 52.395 15.1053 53.8583 17.6716C54.1509 18.1894 54.331 18.5946 54.9163 18.7071C55.8167 18.8872 58.293 17.1313 59.1709 16.6361C60.0038 16.1859 60.2289 15.5331 59.7562 14.7227C57.0098 10.0178 54.5786 5.22294 51.8998 0.540613C51.5846 0.000344645 50.8192 -0.134722 50.3015 0.157923C49.0859 0.855769 47.8027 1.57613 46.6547 2.319C46.1144 2.65666 46.0019 3.19693 46.2045 3.78222ZM20.2266 14.43C22.9954 13.6871 27.3626 10.7607 30.5367 9.36499C30.7618 9.27495 31.0544 9.20741 31.3246 9.27495C31.4822 9.31997 31.5947 9.3875 31.7298 9.50006C32.1575 9.81522 44.3811 22.7591 46.5196 25.0328C47.1049 25.6631 46.9698 25.573 47.4876 25.1678C48.8383 24.1098 50.324 22.7366 51.5396 21.2959C51.9223 20.8457 52.9578 19.5851 53.1154 19.0673C53.2054 18.8197 51.2695 15.5331 51.1119 15.2404C49.2435 11.8412 47.4651 8.28446 45.5291 4.9528C45.304 4.63765 44.9663 4.97531 44.7187 5.13289C43.7733 5.74069 42.6027 5.80823 41.5897 5.38052C39.4736 4.50258 37.9429 2.79173 35.5342 2.16142C33.4181 1.62115 31.7523 2.13891 30.5592 2.7242C27.7228 4.09738 22.4552 7.94679 20.3166 9.20741C19.4612 9.68015 18.6958 10.1754 18.0655 10.8732C16.7598 12.314 17.4127 14.385 19.2361 14.5201C19.5287 14.5426 19.8664 14.5201 20.2266 14.43ZM28.9609 37.8867C30.199 37.5265 31.9549 35.658 32.3601 34.0823C32.7878 32.484 31.257 30.9532 29.7488 31.4935C28.8258 31.8086 26.5297 34.2624 26.3271 35.0502C25.8994 36.7161 27.2275 38.4044 28.9609 37.8867ZM25.9669 27.1488C24.4587 28.3644 21.8474 30.548 21.037 31.6736C19.9114 33.2043 21.3521 35.8156 23.4232 34.9152C25.4041 34.0823 28.8033 31.2233 29.3886 29.3324C29.9064 27.6891 27.9929 25.528 25.9669 27.1488ZM19.5963 31.2459C20.5417 30.6831 23.8509 27.8467 24.2561 26.9012C24.9539 25.2354 23.6708 23.502 21.8924 23.7947C21.8023 23.8172 21.7123 23.8397 21.6223 23.8847C20.7893 24.1999 17.8629 26.7211 16.8949 27.9142C16.5122 28.4094 16.3772 29.1523 16.5122 29.8051C16.8049 31.1558 18.3356 32.0337 19.5963 31.2459Z" fill="#189AD7"/>
<path fill-rule="evenodd" clip-rule="evenodd" d="M16.4672 29.3098L24.1886 24.8751C24.5037 25.4379 24.5487 26.1807 24.2561 26.9011C23.8509 27.8466 20.5417 30.683 19.5963 31.2458C18.3357 32.0337 16.8049 31.1557 16.5122 29.805C16.4897 29.6475 16.4672 29.4899 16.4672 29.3098ZM38.5507 16.591L48.7032 10.7381C49.4911 12.2463 50.3015 13.7771 51.1119 15.2403C51.2695 15.533 53.2055 18.8196 53.1154 19.0672C52.9578 19.585 51.9223 20.8456 51.5396 21.2958C50.324 22.7365 48.8383 24.1097 47.4876 25.1677C46.9699 25.5729 47.1049 25.663 46.5196 25.0327C45.4616 23.9071 41.9049 20.1478 38.5507 16.591ZM49.6037 10.2203L55.389 6.88867C56.8298 9.49997 58.248 12.1338 59.7562 14.7226C60.2289 15.533 60.0038 16.1858 59.1709 16.636C58.293 17.1313 55.8168 18.8871 54.9163 18.707C54.331 18.5945 54.1509 18.1893 53.8583 17.6715C53.1154 16.3434 51.292 13.2143 49.6037 10.2203ZM28.9609 37.8866C30.199 37.5264 31.9549 35.658 32.3601 34.0822C32.7878 32.4839 31.2571 30.9531 29.7488 31.4934C28.8259 31.8085 26.5297 34.2623 26.3271 35.0502C25.8994 36.716 27.2276 38.4268 28.9609 37.8866ZM25.9669 27.1487C24.4587 28.3643 21.8474 30.5479 21.037 31.6735C19.9114 33.2042 21.3521 35.8155 23.4232 34.9151C25.4042 34.0822 28.8033 31.2233 29.3886 29.3323C29.9064 27.689 27.9929 25.5279 25.9669 27.1487Z" fill="#00427E"/>
<path d="M9.28613 2.04855C9.84891 2.61133 9.84891 3.53429 9.28613 4.09707C8.74587 4.63733 7.8004 4.63733 7.26013 4.09707C6.69735 3.53429 6.69735 2.61133 7.26013 2.04855C7.82291 1.48577 8.72335 1.48577 9.28613 2.04855ZM9.15107 2.18362C8.67833 1.71088 7.86793 1.71088 7.39519 2.18362C6.89995 2.67886 6.89995 3.46675 7.39519 3.962C7.86793 4.43473 8.67833 4.43473 9.15107 3.962C9.64631 3.46675 9.64631 2.67886 9.15107 2.18362Z" fill="white"/>
<path d="M57.5276 14.3166C58.0904 14.8794 58.0904 15.8024 57.5276 16.3651C56.9873 16.9054 56.0419 16.9054 55.5016 16.3651C54.9388 15.8024 54.9388 14.8794 55.5016 14.3166C56.0644 13.7538 56.9873 13.7538 57.5276 14.3166ZM57.3925 14.4517C56.9198 13.9789 56.1094 13.9789 55.6366 14.4517C55.1414 14.9469 55.1414 15.7348 55.6366 16.2301C56.1094 16.7253 56.9198 16.7253 57.3925 16.2301C57.8878 15.7348 57.8878 14.9469 57.3925 14.4517Z" fill="white"/>
</svg>
