<svg width="55" height="60" viewBox="0 0 55 60" fill="none" xmlns="http://www.w3.org/2000/svg">
<g id="&#208;&#156;&#208;&#184;&#209;&#129;&#209;&#129;&#208;&#184;&#209;&#143;_icon">
<g id="_1430771536496">
<path id="Vector" d="M27.156 59.9999C20.1962 54.8872 3.0109 43.3753 0.306112 30.874C-1.11225 24.211 2.51612 15.9317 8.75031 12.8971C14.8196 9.9284 22.67 11.8415 27.4199 18.3066C30.9163 13.6227 35.7322 11.4787 40.3171 11.5447C46.1555 11.6436 51.697 15.338 53.7751 22.001C58.6898 37.6359 38.239 52.3803 27.156 59.9999Z" fill="#00427E"/>
<path id="Vector_2" fill-rule="evenodd" clip-rule="evenodd" d="M27.1231 0C28.9043 2.04508 32.3347 5.24464 32.3347 7.98241C32.3347 10.8191 29.9928 13.0951 27.1231 13.0951C24.2534 13.0951 21.9444 10.8191 21.9444 7.98241C21.9444 5.17867 25.4078 1.97911 27.1231 0Z" fill="#00427E"/>
<path id="Vector_3" fill-rule="evenodd" clip-rule="evenodd" d="M27.123 4.55225C28.2775 5.90464 30.5205 7.9827 30.5205 9.7639C30.5205 11.6111 29.0032 13.1284 27.123 13.1284C25.2759 13.1284 23.7585 11.6111 23.7585 9.7639C23.7585 7.94972 26.0015 5.83867 27.123 4.55225Z" fill="#F28B00"/>
<path id="Vector_4" d="M27.7168 7.45484C28.5414 8.37843 29.6299 9.56589 29.6299 10.6544C29.6299 11.3471 29.366 11.9738 28.9043 12.4026C27.9477 13.3592 26.3314 13.3592 25.3748 12.4026C24.9131 11.9738 24.6492 11.3471 24.6492 10.6544C24.6492 9.56589 25.7377 8.34544 26.5623 7.45484C26.7602 7.25693 26.9581 7.02604 27.1231 6.82812C27.321 7.02604 27.5189 7.25693 27.7168 7.45484ZM27.4859 7.65275L27.1231 7.28992L26.7932 7.65275C26.0016 8.51037 24.946 9.66485 24.946 10.6544C24.946 11.2481 25.2099 11.8089 25.5728 12.1717C26.4304 13.0293 27.8487 13.0293 28.6734 12.1717C29.0692 11.8089 29.3331 11.2481 29.3331 10.6544C29.3331 9.69783 28.2775 8.54335 27.4859 7.65275Z" fill="white"/>
</g>
<path id="Vector_5" d="M27.1231 60.0001C22.0763 56.2728 11.5541 49.148 5.18793 40.7038L49.5859 15.2393C51.4331 16.9545 52.8845 19.1975 53.7751 22.0012C58.6899 37.6362 38.2391 52.3805 27.1231 60.0001Z" fill="#189AD7"/>
</g>
</svg>
