<svg width="356" height="555" viewBox="0 0 356 555" fill="none" xmlns="http://www.w3.org/2000/svg">
<path d="M273.652 351.352C273.236 354.669 272.737 357.952 272.155 361.202C272.092 361.579 272.021 361.951 271.951 362.328H263.856C263.167 362.329 262.506 362.745 262.018 363.484C261.531 364.223 261.257 365.225 261.256 366.27V401.254C261.011 401.947 260.762 402.634 260.513 403.321C259.228 406.869 257.89 410.377 256.523 413.841C234.232 470.133 203.142 517.239 165.998 551L168.197 543.476C167.391 543.392 166.581 543.307 165.775 543.223C148.222 541.404 130.611 539.388 113.471 533.407C95.5393 527.15 77.9982 516.298 63.9451 498.305C49.8883 480.306 39.5836 454.603 38.1533 426.794C37.6764 417.236 38.314 407.626 40.0369 398.404C43.3317 380.653 50.5311 364.682 60.9176 355.232C77.2329 340.393 98.515 343.417 115.714 355.762C132.91 368.1 146.907 388.527 160.574 408.598C146.776 372.726 127.564 342.324 104.514 319.888C96.8767 312.476 88.7711 305.876 82.2776 296.274C75.7878 286.678 70.9994 273.224 72.1474 259.59C73.4512 244.125 81.8059 232.389 90.1752 223.339C93.5185 219.723 96.9695 216.293 100.528 213.14C110.569 204.219 121.431 197.489 132.903 194.994C148.442 191.61 165.225 196.746 177.138 212.244C190.56 229.708 196.065 257.872 195.541 284.814C203.81 266.59 216.563 252.64 230.965 252.049C245.917 251.441 260.13 265.762 267.619 285.394C275.105 305.02 276.449 329.079 273.652 351.352Z" fill="#EEF1F5"/>
<path d="M161.963 406.25C172.143 404.884 181.547 403.288 191.411 399.035C200.973 394.913 210.173 388.012 216.98 376.744C224.301 364.624 228.253 348.884 231.042 333.215C232.596 324.479 233.874 315.621 235.079 306.76C236.387 297.146 237.549 287.489 238.565 277.79C240.588 258.483 242.032 239.063 242.897 219.528C243.002 217.157 243.098 214.785 243.185 212.412C243.239 210.949 241.744 210.953 241.691 212.412C240.98 231.667 239.701 250.848 237.854 269.952C236.032 288.723 233.7 307.412 230.741 325.846C228.235 341.463 224.99 357.323 218.562 370.323C212.534 382.514 203.828 390.48 194.427 395.244C184.862 400.09 174.776 402.025 164.78 403.464C163.553 403.641 163.19 403.809 161.963 403.974C161.013 404.101 161.004 406.379 161.963 406.25L161.963 406.25Z" fill="white"/>
<path d="M1.23483 374.476C14.0783 375.561 26.7911 378.974 39.1045 384.643C51.4232 390.301 63.261 398.152 74.3728 408.034C85.1096 417.59 95.077 429.024 104.072 442.105C112.802 454.807 120.583 468.942 127.272 484.252C133.991 499.601 139.56 516.049 143.873 533.289C144.399 535.399 144.906 537.52 145.393 539.651C145.708 541.026 147.152 540.435 146.834 539.046C142.799 521.442 137.479 504.585 130.974 488.79C124.471 472.993 116.839 458.344 108.218 445.109C99.4588 431.67 89.7102 419.816 79.1661 409.784C57.0269 388.772 31.9323 376.06 5.94301 372.693C4.37528 372.493 2.80589 372.329 1.23485 372.199C0.274084 372.119 0.277033 374.396 1.23485 374.476L1.23483 374.476Z" fill="white"/>
<path d="M71.0914 159.029C79.3033 163.008 87.0871 168.803 94.1936 176.229C101.455 183.869 108.078 192.831 113.915 202.915C120.066 213.523 125.535 225.006 130.246 237.206C135.243 250.088 139.584 263.535 143.23 277.428C146.985 291.693 150.144 306.305 152.686 321.177C155.271 336.226 157.289 351.487 158.732 366.886C160.168 382.122 161.037 397.469 161.335 412.854C161.635 427.566 161.35 442.292 160.48 456.951C159.685 470.627 158.233 484.196 156.135 497.549C154.272 509.609 151.647 521.365 148.296 532.653C147.519 535.215 146.696 537.742 145.825 540.233C145.373 541.525 146.662 542.677 147.115 541.382C150.818 530.6 153.775 519.26 155.938 507.545C158.365 494.505 160.125 481.197 161.2 467.742C162.393 453.144 162.973 438.444 162.939 423.734C162.917 408.279 162.313 392.839 161.13 377.49C159.947 361.949 158.189 346.523 155.867 331.283C153.55 316.019 150.61 300.989 147.066 286.282C143.65 272.044 139.56 258.204 134.828 244.869C130.321 232.144 125.069 220.066 119.136 208.781C113.501 198.037 107.068 188.323 99.965 179.835C93.1162 171.675 85.548 165.024 77.4829 160.076C75.5121 158.881 73.514 157.8 71.4886 156.833C70.5693 156.393 70.1759 158.59 71.0914 159.029H71.0914Z" fill="white"/>
<path d="M166.143 555C233.487 555 288.079 551.932 288.079 548.146C288.079 544.361 233.487 541.293 166.143 541.293C98.8 541.293 44.2074 544.361 44.2074 548.146C44.2074 551.932 98.8 555 166.143 555Z" fill="#6C88B3"/>
<path d="M48.2141 531.4C48.5112 531.417 48.8044 531.293 49.054 531.045C49.3037 530.797 49.4977 530.438 49.6097 530.015C49.7218 529.593 49.7465 529.128 49.6805 528.683C49.6145 528.238 49.461 527.835 49.2409 527.529C49.2029 527.307 49.1757 527.147 49.1378 526.924C49.4151 525.813 49.9024 524.853 50.5374 524.169C51.1724 523.485 51.926 523.107 52.7017 523.085C53.4774 523.062 54.2398 523.396 54.8913 524.042C55.5427 524.689 56.0534 525.619 56.3579 526.714C58.1144 532.86 60.3777 539.216 59.314 546.03C66.4713 522.167 63.8038 492.653 52.8823 472.496C49.8827 470.017 47.4363 465.571 46.7744 460.377C48.256 461.123 50.0858 459.253 48.9606 456.882C48.4737 455.977 47.9821 455.079 47.4952 454.174C53.0481 444.924 59.8215 459.235 53.7235 471.698C55.7676 475.555 57.5433 479.729 59.0217 484.152C58.6574 479.437 59.0276 474.658 60.102 470.206C61.1932 466.055 63.2648 462.543 65.086 458.942C67.3002 454.555 71.9256 456.496 72.2615 462.018C70.1995 463.091 69.9593 467.68 72.3292 468.273C71.7733 478.562 67.455 488.074 61.4546 492.671C63.7403 502.223 64.6729 512.413 64.1903 522.562C65.1809 510.695 73.4537 507.697 79.2194 502.902C79.586 502.534 80.0145 502.337 80.4526 502.336C80.8908 502.335 81.3197 502.53 81.687 502.897C82.0543 503.263 82.3441 503.786 82.5211 504.401C82.6981 505.016 82.7546 505.697 82.6837 506.36C81.887 506.871 81.1254 507.502 80.4099 508.244C80.0747 508.597 79.8189 509.1 79.6774 509.685C79.536 510.27 79.5159 510.908 79.6199 511.511C79.7239 512.114 79.947 512.653 80.2584 513.054C80.5699 513.454 80.9545 513.698 81.3596 513.75C78.5075 524.886 71.0018 532.445 63.2453 532.517C62.5307 537.498 61.4808 542.351 60.1123 546.999L48.6005 547.168C48.558 546.972 48.5196 546.77 48.4812 546.574C49.5474 546.661 50.6165 546.548 51.6648 546.236C48.8138 541.156 46.6174 538.575 48.2138 531.4L48.2141 531.4Z" fill="#5CC4E1"/>
<path d="M293.398 534.21C293.067 534.226 292.741 534.109 292.463 533.877C292.185 533.645 291.969 533.308 291.844 532.911C291.72 532.515 291.692 532.079 291.766 531.661C291.839 531.244 292.01 530.866 292.255 530.579C292.297 530.37 292.327 530.221 292.37 530.012C292.061 528.969 291.519 528.069 290.812 527.427C290.105 526.786 289.266 526.432 288.403 526.41C287.54 526.389 286.691 526.702 285.966 527.309C285.241 527.915 284.673 528.788 284.334 529.815C282.379 535.58 279.86 541.542 281.043 547.933C273.077 525.55 276.046 497.866 288.202 478.958C291.54 476.633 294.263 472.462 295 467.59C293.351 468.29 291.314 466.536 292.567 464.312C293.109 463.463 293.656 462.621 294.198 461.772C288.017 453.096 280.479 466.519 287.266 478.21C284.991 481.827 283.014 485.742 281.369 489.891C281.774 485.469 281.362 480.986 280.166 476.81C278.952 472.917 276.646 469.622 274.619 466.244C272.155 462.129 267.007 463.95 266.633 469.13C268.928 470.137 269.195 474.441 266.558 474.997C267.176 484.648 271.983 493.57 278.661 497.882C276.117 506.842 275.079 516.4 275.616 525.92C274.514 514.788 265.306 511.977 258.889 507.479C258.481 507.134 258.004 506.949 257.516 506.948C257.029 506.947 256.551 507.13 256.142 507.474C255.734 507.818 255.411 508.308 255.214 508.885C255.017 509.462 254.954 510.1 255.033 510.723C255.92 511.202 256.768 511.794 257.564 512.489C257.937 512.821 258.222 513.293 258.379 513.841C258.536 514.39 258.559 514.988 258.443 515.554C258.327 516.119 258.079 516.625 257.732 517.001C257.386 517.377 256.958 517.605 256.507 517.654C259.681 528.1 268.035 535.191 276.668 535.257C277.463 539.93 278.632 544.482 280.155 548.842L292.968 549C293.015 548.816 293.058 548.627 293.1 548.443C291.914 548.525 290.724 548.419 289.557 548.127C292.73 543.361 295.175 540.94 293.398 534.21L293.398 534.21Z" fill="#7ABF77"/>
<path d="M283.2 537.862C282.988 537.874 282.779 537.786 282.6 537.609C282.422 537.432 282.284 537.175 282.204 536.873C282.123 536.571 282.106 536.239 282.153 535.922C282.2 535.604 282.31 535.316 282.467 535.097C282.494 534.938 282.514 534.824 282.541 534.665C282.343 533.871 281.994 533.186 281.541 532.697C281.087 532.209 280.549 531.939 279.995 531.923C279.441 531.907 278.896 532.145 278.431 532.607C277.966 533.069 277.601 533.733 277.383 534.515C276.129 538.905 274.512 543.445 275.272 548.312C270.16 531.267 272.065 510.186 279.866 495.788C282.009 494.017 283.756 490.841 284.229 487.131C283.17 487.664 281.863 486.329 282.667 484.635C283.015 483.989 283.366 483.347 283.714 482.7C279.748 476.094 274.909 486.315 279.265 495.218C277.805 497.973 276.537 500.954 275.481 504.113C275.741 500.746 275.476 497.332 274.709 494.152C273.93 491.187 272.45 488.679 271.149 486.106C269.567 482.973 266.264 484.359 266.024 488.304C267.497 489.07 267.668 492.348 265.975 492.771C266.372 500.121 269.457 506.915 273.743 510.198C272.11 517.021 271.444 524.3 271.789 531.549C271.081 523.073 265.172 520.932 261.054 517.507C260.792 517.244 260.486 517.103 260.173 517.102C259.86 517.102 259.554 517.241 259.291 517.503C259.029 517.764 258.822 518.138 258.695 518.577C258.569 519.016 258.529 519.503 258.579 519.977C259.148 520.342 259.692 520.792 260.203 521.322C260.443 521.574 260.626 521.934 260.727 522.351C260.828 522.769 260.842 523.225 260.768 523.655C260.693 524.086 260.534 524.471 260.312 524.758C260.089 525.044 259.814 525.218 259.525 525.255C261.562 533.209 266.924 538.609 272.464 538.66C272.974 542.218 273.724 545.685 274.702 549.005L282.924 549.125C282.955 548.985 282.982 548.841 283.01 548.701C282.248 548.763 281.484 548.682 280.736 548.46C282.772 544.831 284.341 542.987 283.201 537.862L283.2 537.862Z" fill="#189AD7"/>
<path d="M343.25 452.303C343.25 452.303 344.69 475.261 331.646 492.105C318.602 508.948 296.014 513.298 296.014 513.298C296.014 513.298 294.574 490.34 307.618 473.497C320.661 456.653 343.25 452.303 343.25 452.303Z" fill="#00427E"/>
<path d="M81.1721 528.085L90.2907 531.017L103.846 489.255L90.3884 484.928L81.1721 528.085Z" fill="#F28B00"/>
<path d="M105.657 547.066L77.0001 537.852L79.9013 524.266L97.4863 529.92C100.423 530.864 102.933 533.201 104.466 536.417C105.998 539.632 106.427 543.463 105.657 547.066Z" fill="#00427E"/>
<path d="M162.227 536.056L171.507 534.022L169.529 489.135L155.834 492.137L162.227 536.056Z" fill="#F28B00"/>
<path d="M190.941 540.672L161.778 547.064L159.766 533.238L177.661 529.315C179.141 528.991 180.658 529.027 182.126 529.423C183.594 529.818 184.985 530.564 186.218 531.619C187.451 532.673 188.503 534.015 189.313 535.569C190.124 537.122 190.677 538.856 190.941 540.672Z" fill="#00427E"/>
<path d="M143.956 205.944C146.242 206.627 148.102 209.486 149.22 212.798C150.25 216.277 150.948 219.891 151.299 223.567C152.176 230.414 153.019 237.826 151.204 244.167C149.076 251.599 143.406 255.491 138.488 253.662C133.57 251.833 129.658 244.966 128.322 237.063C127.105 229.076 127.889 220.825 130.57 213.396C131.967 209.493 133.893 205.892 136.452 204.131C137.707 203.2 139.204 202.886 140.64 203.253C142.076 203.621 143.345 204.641 144.193 206.111" fill="#00427E"/>
<path d="M156.893 329.9L174.559 524.06L159.969 530.858L133.059 400.66L95.5937 519.705L79.6232 520.793C79.6232 520.793 101.536 335.561 117.775 331.352L156.893 329.9Z" fill="#00427E"/>
<path d="M142.055 230.724C152.484 230.724 160.939 220.349 160.939 207.551C160.939 194.754 152.484 184.379 142.055 184.379C131.626 184.379 123.171 194.754 123.171 207.551C123.171 220.349 131.626 230.724 142.055 230.724Z" fill="#F28B00"/>
<path d="M132.948 239.372C136.435 236.824 136.807 230.676 136.333 225.611C135.859 220.546 135.068 214.9 137.417 210.759C140.221 205.816 145.855 205.718 150.657 205.557C155.459 205.395 161.307 203.613 162.551 197.734C163.373 193.849 161.614 189.68 159.09 187.241C156.566 184.803 153.408 183.725 150.338 182.7C143.472 180.408 136.382 178.096 129.351 179.356C122.388 180.604 116.091 185.276 111.825 192.361C107.559 199.447 105.666 208.376 106.556 217.216C107.694 228.525 109.344 233.463 108.261 238.449C106.243 247.736 97.5428 253.702 97.3695 263.333C97.234 270.866 102.485 276.677 107.608 280.502C111.672 283.535 116.057 286.11 120.74 286.82C125.423 287.53 130.465 286.171 133.954 282.148C138.454 276.961 139.567 268.294 138.276 260.761C136.986 253.228 133.676 246.538 130.402 240.041" fill="#00427E"/>
<path d="M150.159 240.442L129.752 237.176C129.752 237.176 116.444 256.773 117.331 290.524C118.218 324.275 115.113 334.619 115.113 334.619L157.662 335.562C151.511 325.184 177.238 265.579 150.159 240.442Z" fill="#189AD7"/>
<path d="M161.122 340.28C160.696 340.284 160.272 340.329 159.852 340.414L133.746 306.312L136.407 295.424L123.542 288.348L116.547 309.329C115.941 311.146 116.427 313.15 117.798 314.488L153.117 348.962C152.915 350.958 153.213 352.982 153.971 354.764C154.729 356.547 155.912 358.004 157.361 358.942C158.811 359.88 160.458 360.254 162.085 360.015C163.712 359.775 165.242 358.934 166.469 357.602C167.697 356.27 168.565 354.512 168.959 352.56C169.352 350.608 169.252 348.555 168.671 346.675C168.091 344.794 167.058 343.175 165.709 342.033C164.36 340.891 162.76 340.279 161.122 340.28Z" fill="#F28B00"/>
<path d="M210.074 254.228C209.98 254.737 209.918 255.254 209.89 255.775L176.862 279.156L168.834 273.485L160.276 287.234L173.986 299.225C175.944 300.937 178.887 300.863 180.756 299.054L215.13 265.777C216.666 266.475 218.34 266.582 219.928 266.085C221.515 265.587 222.942 264.508 224.018 262.991C225.093 261.474 225.767 259.591 225.95 257.593C226.132 255.595 225.815 253.576 225.039 251.804C224.264 250.033 223.067 248.593 221.609 247.677C220.15 246.76 218.499 246.41 216.874 246.673C215.25 246.936 213.729 247.8 212.514 249.149C211.299 250.499 210.448 252.27 210.074 254.228Z" fill="#F28B00"/>
<path d="M134.855 268.573L160.861 291.318L172.492 273.423L147.212 248.532C146.124 247.461 144.87 246.674 143.526 246.219C142.182 245.763 140.776 245.65 139.395 245.885C138.013 246.119 136.686 246.698 135.493 247.584C134.3 248.471 133.268 249.647 132.458 251.04C130.881 253.755 130.248 257.128 130.697 260.416C131.147 263.704 132.642 266.638 134.855 268.573Z" fill="#189AD7"/>
<path d="M129.482 263.71L117.391 299.979L135.421 306L148.209 273.884C148.81 272.34 149.147 270.661 149.201 268.951C149.254 267.241 149.023 265.536 148.52 263.94C148.018 262.344 147.255 260.89 146.279 259.668C145.303 258.447 144.133 257.482 142.843 256.834C141.598 256.209 140.264 255.891 138.919 255.899C137.574 255.906 136.243 256.238 135.002 256.876C133.762 257.515 132.636 258.447 131.688 259.619C130.741 260.792 129.992 262.182 129.482 263.71Z" fill="#189AD7"/>
<path d="M325.281 230.959C325.218 230.959 325.178 230.957 325.165 230.956L317.647 230.957V229.863H325.192C325.367 229.868 328.93 229.968 332.214 226.034C337.108 220.171 341.126 205.658 332.481 169.809C320.856 121.605 330.552 79.0202 335.26 62.9486C335.492 62.1535 335.533 61.316 335.381 60.5023C335.229 59.6886 334.887 58.921 334.383 58.2602C333.878 57.5993 333.225 57.0634 332.475 56.6946C331.725 56.3258 330.898 56.1344 330.06 56.1354H217.788C216.935 56.1365 216.093 56.3363 215.333 56.7186C214.572 57.1009 213.913 57.6549 213.41 58.3356C211.416 61.0442 208.679 66.2477 206.966 75.6565L205.875 75.463C207.625 65.8498 210.451 60.4933 212.514 57.6922C213.12 56.872 213.913 56.2044 214.83 55.7438C215.746 55.2832 216.76 55.0424 217.788 55.041H330.06C331.07 55.0401 332.066 55.271 332.97 55.7156C333.874 56.1601 334.661 56.8062 335.269 57.6026C335.876 58.3991 336.288 59.3241 336.471 60.3047C336.655 61.2853 336.604 62.2945 336.325 63.2526C331.641 79.2409 321.996 121.605 333.56 169.556C342.326 205.909 338.112 220.737 333.033 226.775C329.682 230.757 325.991 230.959 325.281 230.959Z" fill="#D1D7E1"/>
<path d="M304.921 251.002C304.858 251.002 304.819 251 304.805 250.999L194.321 251C193.257 251.001 192.209 250.745 191.269 250.254C190.329 249.762 189.525 249.051 188.927 248.181C188.33 247.312 187.958 246.311 187.842 245.266C187.727 244.222 187.873 243.165 188.267 242.189C192.276 232.296 197.673 208.561 188.783 160.748C178.285 104.291 187.684 83.8871 192.212 77.7352C192.817 76.9149 193.611 76.2474 194.527 75.7868C195.443 75.3261 196.456 75.0853 197.484 75.084H309.698C310.707 75.083 311.703 75.314 312.606 75.7585C313.51 76.2031 314.297 76.8491 314.904 77.6456C315.511 78.442 315.923 79.3671 316.106 80.3477C316.289 81.3282 316.239 82.3375 315.96 83.2956C311.278 99.2839 301.638 141.648 313.196 189.599C321.958 225.952 317.746 240.78 312.669 246.818C309.321 250.8 305.631 251.002 304.921 251.002ZM197.484 76.1783C196.631 76.1795 195.79 76.3793 195.029 76.7616C194.269 77.1438 193.611 77.6978 193.108 78.3785C188.664 84.4164 179.452 104.51 189.873 160.551C198.366 206.225 194.247 230.378 189.296 242.596C188.962 243.402 188.837 244.278 188.931 245.144C189.026 246.009 189.337 246.838 189.837 247.556C190.332 248.28 191.001 248.873 191.782 249.283C192.564 249.692 193.436 249.906 194.321 249.906H304.832C305.007 249.914 308.569 250.011 311.851 246.077C316.742 240.214 320.759 225.701 312.118 189.852C300.499 141.648 310.19 99.0632 314.895 82.9916C315.127 82.1964 315.169 81.3589 315.016 80.5452C314.864 79.7316 314.523 78.964 314.018 78.3031C313.514 77.6423 312.861 77.1063 312.112 76.7376C311.362 76.3688 310.535 76.1774 309.698 76.1783H197.484Z" fill="#6C88B3"/>
<path d="M291.19 124.073H202.78C201.6 124.073 200.469 123.604 199.635 122.769C198.801 121.934 198.332 120.801 198.332 119.62C198.332 118.438 198.801 117.306 199.635 116.47C200.469 115.635 201.6 115.166 202.78 115.166H291.19C292.369 115.166 293.501 115.635 294.335 116.47C295.169 117.306 295.638 118.438 295.638 119.62C295.638 120.801 295.169 121.934 294.335 122.769C293.501 123.604 292.369 124.073 291.19 124.073Z" fill="#00427E"/>
<path d="M291.19 142.628H202.78C201.6 142.628 200.469 142.159 199.635 141.323C198.801 140.488 198.332 139.355 198.332 138.174C198.332 136.993 198.801 135.86 199.635 135.025C200.469 134.19 201.6 133.721 202.78 133.721H291.19C292.369 133.721 293.501 134.19 294.335 135.025C295.169 135.86 295.638 136.993 295.638 138.174C295.638 139.355 295.169 140.488 294.335 141.323C293.501 142.159 292.369 142.628 291.19 142.628Z" fill="#00427E"/>
<path d="M291.19 161.187H202.78C201.6 161.187 200.469 160.717 199.635 159.882C198.801 159.047 198.332 157.914 198.332 156.733C198.332 155.552 198.801 154.419 199.635 153.584C200.469 152.749 201.6 152.279 202.78 152.279H291.19C292.369 152.279 293.501 152.749 294.335 153.584C295.169 154.419 295.638 155.552 295.638 156.733C295.638 157.914 295.169 159.047 294.335 159.882C293.501 160.717 292.369 161.187 291.19 161.187Z" fill="#00427E"/>
<path d="M297.259 179.743H209.534C208.364 179.743 207.241 179.274 206.413 178.439C205.586 177.604 205.121 176.471 205.121 175.29C205.121 174.108 205.586 172.976 206.413 172.14C207.241 171.305 208.364 170.836 209.534 170.836H297.259C298.429 170.836 299.552 171.305 300.38 172.14C301.207 172.976 301.672 174.108 301.672 175.29C301.672 176.471 301.207 177.604 300.38 178.439C299.552 179.274 298.429 179.743 297.259 179.743Z" fill="#00427E"/>
<path d="M297.259 198.3H209.534C208.364 198.3 207.241 197.831 206.413 196.995C205.586 196.16 205.121 195.027 205.121 193.846C205.121 192.665 205.586 191.532 206.413 190.697C207.241 189.862 208.364 189.393 209.534 189.393H297.259C298.429 189.393 299.552 189.862 300.38 190.697C301.207 191.532 301.672 192.665 301.672 193.846C301.672 195.027 301.207 196.16 300.38 196.995C299.552 197.831 298.429 198.3 297.259 198.3Z" fill="#00427E"/>
<path d="M244.428 105.515H202.775C201.597 105.515 200.466 105.045 199.633 104.21C198.8 103.375 198.332 102.242 198.332 101.061C198.332 99.8799 198.8 98.7471 199.633 97.9119C200.466 97.0766 201.597 96.6074 202.775 96.6074H244.428C245.606 96.6074 246.736 97.0766 247.569 97.9119C248.403 98.7471 248.871 99.8799 248.871 101.061C248.871 102.242 248.403 103.375 247.569 104.21C246.736 105.045 245.606 105.515 244.428 105.515Z" fill="#5CC4E1"/>
<circle cx="216" cy="22" r="21" stroke="#7ABF77" stroke-width="2"/>
<path d="M209.247 21.1307L213.819 28.6816L223.122 16.9795" stroke="#7ABF77" stroke-width="2" stroke-linecap="round"/>
</svg>
