<svg width="46" height="48" viewBox="0 0 46 48" fill="none" xmlns="http://www.w3.org/2000/svg">
<path fill-rule="evenodd" clip-rule="evenodd" d="M39.393 6.99435C43.4778 11.364 46 17.3466 46 24.0037C46 30.6314 43.4778 36.6433 39.393 40.9837C30.6202 50.3388 16.2821 50.3388 7.4819 40.9837C3.39706 36.6433 0.874878 30.6314 0.874878 24.0037C0.874878 17.3466 3.39706 11.364 7.4819 6.99435C16.2547 -2.33145 30.6202 -2.33145 39.393 6.99435Z" fill="#F28B00"/>
<path fill-rule="evenodd" clip-rule="evenodd" d="M39.393 6.99435C43.4778 11.364 46 17.3466 46 24.0037C46 26.5844 45.6162 29.0478 44.9308 31.3939C43.094 31.6579 41.2572 31.8045 39.3656 31.8045C24.5066 31.8045 11.649 22.8306 5.3161 9.69238C5.97406 8.72461 6.71427 7.84481 7.48189 6.99435C16.2547 -2.33145 30.6202 -2.33145 39.393 6.99435Z" fill="#189AD7"/>
<path fill-rule="evenodd" clip-rule="evenodd" d="M39.393 6.99435C43.4778 11.364 46 17.3466 46 24.0037C46 30.6314 43.4778 36.6433 39.393 40.9837C30.6202 50.3388 16.2821 50.3388 7.4819 40.9837C3.39706 36.6433 0.874878 30.6314 0.874878 24.0037C0.874878 17.3466 3.39706 11.364 7.4819 6.99435C16.2547 -2.33145 30.6202 -2.33145 39.393 6.99435ZM15.7612 44.5908C18.0641 44.8547 19.8461 45.0894 22.2038 44.8841C24.0132 43.4471 24.9453 42.3033 25.7129 39.8986C24.0954 38.5789 21.8474 35.3237 21.2168 33.4761C18.3382 33.9453 14.9388 33.7694 12.2247 32.5083C11.3474 34.0333 10.5798 35.6169 9.53802 36.9953C10.4976 39.6346 12.5811 42.1274 14.5276 44.0336C14.9388 44.2389 15.35 44.4148 15.7612 44.5908ZM23.3826 45.1187C23.7664 45.4706 24.2051 45.8225 24.6711 46.1158C30.017 45.7932 35.0066 43.2711 38.6528 39.1068C38.7624 38.7842 38.8173 38.4909 38.8995 38.1683C37.4191 37.7871 36.1306 37.4058 34.8147 36.526C33.3891 37.6698 28.2625 40.2212 26.5353 40.2212C25.85 42.3327 25.1098 43.623 23.3826 45.1187ZM39.4478 37.3472C39.9687 36.9366 40.4348 36.5554 40.9008 36.0568C43.3682 32.0098 44.5196 27.2882 44.1906 22.4787C43.4504 22.2441 41.1475 20.9537 40.517 20.5431C39.6671 23.2412 37.3369 26.0858 35.4178 27.6695C35.692 29.7516 35.4726 33.5641 35.1711 35.6463C36.5418 36.5847 37.7755 36.9073 39.4478 37.3472ZM11.6764 42.274C10.4427 40.7784 9.37353 39.1068 8.74299 37.3179C8.71557 37.3179 8.60591 37.2592 8.5785 37.2592C6.71428 36.3501 5.837 35.5289 4.71298 33.6814C6.30305 37.1419 8.71557 40.1039 11.6764 42.274ZM12.3344 31.5699C15.021 32.8896 18.3108 33.0069 21.1894 32.5083C21.957 30.8367 24.6437 26.7017 25.9048 25.2647C25.3839 22.2148 24.0954 18.7836 22.4505 16.2322C19.8461 15.9389 16.7756 15.587 14.1986 15.1764C12.115 17.8744 10.4153 20.0153 9.01714 23.2412C9.51061 24.3849 12.0328 30.5435 12.3344 31.5699ZM3.34223 18.2264C3.53413 19.9566 3.69863 21.3936 4.1921 23.0066C5.26128 22.508 7.15292 22.4787 8.27693 22.684C9.64768 19.5754 11.4297 17.2293 13.5132 14.6192C13.102 13.1822 13.102 9.6044 13.2665 8.07943C10.8814 8.07943 9.34612 8.84191 7.18033 10.1909C5.42577 12.5077 4.10985 15.2351 3.34223 18.2264ZM3.50672 23.7104C3.17774 22.772 2.98583 21.8922 2.82134 21.0124C2.57461 23.0066 2.57461 25.0008 2.82134 26.995C2.87617 26.1152 3.17774 24.5022 3.50672 23.7104ZM26.6998 24.8248C27.4949 24.7955 33.7455 26.5257 34.8147 26.9656C36.8708 25.206 39.2011 22.5373 39.8316 19.81C39.4752 19.2235 36.0758 11.5693 36.0483 11.3053C32.9779 10.1029 30.675 9.69238 27.5223 9.89766C26.5902 11.5399 24.2599 14.8538 23.3552 15.9682C24.863 18.285 26.1515 21.8922 26.6998 24.8248ZM36.4047 10.4549C36.7886 9.80968 37.611 8.81259 38.2416 8.40202C34.0471 3.91508 28.3173 1.56896 22.4231 1.86223C22.6698 2.53673 22.7795 3.26989 22.9166 3.97373C24.6437 4.91217 26.6176 7.19963 27.6319 8.95922C30.5653 8.78326 32.923 9.13518 35.7468 10.1909C35.8016 10.2203 36.4047 10.4549 36.4047 10.4549ZM8.90748 8.16741C10.3879 7.43424 11.8135 7.08233 13.6777 7.17031C14.7195 6.0559 20.0106 3.97373 21.957 3.68046C21.8748 3.09394 21.7377 2.50741 21.4636 1.95021C16.5837 2.41943 12.1973 4.70689 8.90748 8.16741Z" fill="#00427E"/>
<path fill-rule="evenodd" clip-rule="evenodd" d="M39.393 6.99435C43.4778 11.364 46 17.3466 46 24.0037C46 26.5844 45.6162 29.0478 44.9308 31.3939C44.2728 31.4819 43.6423 31.5699 42.9843 31.6285C43.9713 28.7252 44.4099 25.6166 44.1906 22.4787C43.4504 22.2441 41.1475 20.9537 40.517 20.5431C39.6671 23.2412 37.3368 26.0858 35.4178 27.6695C35.5549 28.6959 35.5823 30.1329 35.5275 31.5992C31.333 31.1593 27.3852 30.0156 23.7116 28.256C24.534 27.0243 25.3565 25.8806 25.9048 25.2647C25.3839 22.2148 24.0954 18.7836 22.4505 16.2322C19.8461 15.9389 16.7756 15.587 14.1986 15.1764C13.1842 16.4961 12.2521 17.6692 11.4022 18.9009C11.2103 18.6663 11.0184 18.4316 10.7991 18.197C11.6216 16.9947 12.5263 15.8509 13.5132 14.6192C13.102 13.1822 13.102 9.6044 13.2665 8.07942C10.8814 8.07942 9.34611 8.84191 7.18032 10.1909C6.85134 10.6015 6.54978 11.0707 6.24821 11.5106C5.91923 10.9241 5.61767 10.3082 5.3161 9.69238C5.97406 8.72461 6.71427 7.84481 7.48189 6.99435C16.2547 -2.33145 30.6202 -2.33145 39.393 6.99435ZM26.6998 24.8248C27.4949 24.7955 33.7455 26.5257 34.8147 26.9656C36.8708 25.206 39.2011 22.5373 39.8316 19.81C39.4752 19.2235 36.0758 11.5693 36.0483 11.3053C32.9779 10.1029 30.675 9.69238 27.5223 9.89766C26.5902 11.5399 24.2599 14.8538 23.3552 15.9682C24.863 18.285 26.1515 21.8922 26.6998 24.8248ZM36.4047 10.4549C36.7885 9.80968 37.611 8.81259 38.2415 8.40202C34.047 3.91508 28.3173 1.56896 22.4231 1.86223C22.6698 2.53673 22.7795 3.26989 22.9165 3.97373C24.6437 4.91217 26.6176 7.19963 27.6319 8.95922C30.5653 8.78326 32.923 9.13518 35.7468 10.1909C35.8016 10.2203 36.4047 10.4549 36.4047 10.4549ZM8.90747 8.1674C10.3879 7.43424 11.8135 7.08233 13.6777 7.17031C14.7195 6.0559 20.0106 3.97373 21.957 3.68046C21.8748 3.09394 21.7377 2.50741 21.4635 1.95021C16.5837 2.41943 12.1973 4.70689 8.90747 8.1674Z" fill="#F28B00"/>
<path d="M26.6724 25.9694C27.0562 25.7641 27.5771 25.9107 27.9609 25.9987C29.7977 26.4093 32.1828 26.9665 33.9374 27.641C34.2389 27.729 34.3486 27.8169 34.4034 28.1395C34.6227 29.7818 34.4857 33.7409 34.3486 35.4418C34.2664 36.3802 28.5366 38.6091 27.111 38.9903C26.3982 39.1663 26.316 39.0783 25.7403 38.3744C25.0275 37.4946 21.957 33.9462 22.3682 32.7731C22.6698 31.952 26.1515 26.2333 26.6724 25.9694ZM22.5876 32.8611C22.2312 33.8288 25.2742 37.436 25.9322 38.2278C26.3982 38.8143 26.4805 38.9023 27.0562 38.7264C28.3447 38.4038 34.047 36.1456 34.1019 35.4125C34.2389 33.7115 34.4034 29.7818 34.1841 28.1982C34.1567 27.9636 34.0744 27.9342 33.8551 27.8756C32.1006 27.2011 29.7429 26.6439 27.9061 26.2333C27.3304 26.116 27.0014 26.0573 26.7821 26.1747C26.3708 26.3799 22.8343 32.1572 22.5876 32.8611Z" fill="white"/>
<path d="M3.61641 27.9939C3.64383 28.6098 4.65818 31.7184 5.01458 32.4515C5.53546 33.478 7.34486 35.0029 8.27697 35.5895C8.5237 35.7361 8.55112 35.7654 8.82527 35.2962C9.15425 34.739 10.6621 32.0996 10.7991 31.5131C10.8266 31.4251 10.854 31.3078 10.7991 31.1025C10.5798 30.252 8.27697 24.0348 7.92057 23.8882C7.29003 23.6243 5.17907 23.7709 4.46628 23.8589C4.35662 23.8882 4.30179 23.8882 4.27437 24.0055C4.05505 24.768 3.56158 27.4074 3.61641 27.9939ZM11.0459 31.6011C10.8814 32.1876 9.34615 34.827 9.01717 35.4135C8.63336 36.088 8.55112 36.0587 8.16731 35.8241C7.20778 35.2082 5.26131 33.5953 4.79526 32.5102C4.41145 31.6304 3.42451 28.7564 3.36968 27.9939C3.31485 27.3781 3.83573 24.7387 4.05505 23.9469C4.10988 23.7123 4.21954 23.6536 4.43886 23.6243C5.20648 23.507 7.31744 23.3897 8.00282 23.6536C8.57853 23.8882 10.7717 30.0468 11.0185 31.0439C11.0733 31.2198 11.0733 31.3958 11.0459 31.6011Z" fill="white"/>
<path d="M14.6372 13.6518C14.3357 12.0975 14.2808 10.0739 14.3082 8.49032C14.3082 8.1384 14.3082 7.96244 14.4453 7.81581C14.5276 7.66918 14.7195 7.55187 15.0484 7.37591C17.1868 6.29084 19.2155 5.44037 21.491 4.76586C22.0941 4.58991 22.2038 4.53125 22.7246 4.9125C24.0954 5.96825 25.2194 7.024 26.2612 8.46099C26.4257 8.66628 26.5079 8.78358 26.5079 8.95954C26.4531 9.75135 22.7795 14.7368 22.4231 14.8541C22.0119 15.0301 15.1855 14.3849 14.8565 14.1796C14.7195 14.0623 14.6646 13.9157 14.6372 13.6518ZM14.8565 13.5931C14.884 13.7984 14.9114 13.9157 14.9936 13.9744C15.2129 14.121 22.0393 14.7368 22.3408 14.6195C22.615 14.5316 26.2338 9.60472 26.2612 8.95954C26.2612 8.87156 26.2064 8.78358 26.0693 8.60762C25.0275 7.19996 23.9583 6.1442 22.5876 5.11778C22.1489 4.76586 22.0941 4.85384 21.5458 5.00048C19.2978 5.67498 17.2691 6.52545 15.1581 7.61053C14.8565 7.75716 14.692 7.84514 14.6098 7.96244C14.555 8.05042 14.5276 8.19705 14.5276 8.49032C14.5276 10.0446 14.5824 12.0681 14.8565 13.5931Z" fill="white"/>
<path d="M37.5013 10.8367C37.3917 11.0127 37.3643 11.1593 37.4191 11.3646C37.6932 12.6256 39.859 17.4058 40.4896 18.4616C40.6267 18.6669 40.7089 18.7549 40.9008 18.8722C41.4491 19.2534 43.0666 20.2798 43.6971 20.4558C43.752 20.4558 43.752 20.4558 43.752 20.4558C43.7794 20.3678 43.7794 20.1625 43.7246 19.8106C43.1488 16.1741 41.8603 12.5377 39.5026 9.78098C39.3107 9.57569 39.2011 9.45839 39.1462 9.39974C39.0366 9.31176 38.9543 9.34108 38.8447 9.42906C38.4335 9.75165 37.8029 10.3968 37.5013 10.8367ZM39.2833 9.19445C39.3656 9.28243 39.4752 9.39974 39.6671 9.63435C42.0522 12.391 43.3682 16.0862 43.9439 19.752C43.9987 20.1625 44.0261 20.3971 43.9987 20.5144C43.9439 20.7197 43.8342 20.7491 43.6423 20.6904C42.9843 20.5144 41.3394 19.488 40.7637 19.0775C40.5444 18.9308 40.4347 18.8428 40.2977 18.6082C39.6397 17.5232 37.4739 12.7429 37.1998 11.4233C37.1175 11.13 37.1724 10.9247 37.3094 10.6901C37.611 10.2209 38.2964 9.57569 38.735 9.22378C38.8995 9.07715 39.0914 9.01849 39.2833 9.19445Z" fill="white"/>
</svg>
