<svg width="24" height="24" viewBox="0 0 24 24" fill="none" xmlns="http://www.w3.org/2000/svg">
<g clip-path="url(#clip0_27_782)">
<path d="M12 0H6.8C6.5791 0 6.4 0.179102 6.4 0.4V3.2H0.4C0.179102 3.2 0 3.3791 0 3.6V23.6C0 23.8209 0.179102 24 0.4 24H12C12.2209 24 12.4 23.8209 12.4 23.6V0.4C12.4 0.179102 12.2209 0 12 0ZM11.6 20.8H7.2V20H11.6V20.8ZM0.8 6H6.4V18H0.8V6ZM11.6 4.4H7.2V3.2H11.6V4.4ZM0.8 18.8H6.4V20H0.8V18.8ZM7.2 19.2V5.2H11.6V19.2H7.2ZM11.6 0.8V2.4H7.2V0.8H11.6ZM6.4 4V5.2H0.8V4H6.4ZM0.8 20.8H6.4V23.2H0.8V20.8ZM7.2 23.2V21.6H11.6V23.2H7.2Z" fill="#00427E"/>
<path d="M23.9871 21.8992L19.1871 3.49922C19.1603 3.3961 19.0935 3.30801 19.0014 3.2543C18.9094 3.20078 18.7998 3.18613 18.6969 3.21367L12.6969 4.81367C12.4844 4.87031 12.3574 5.08789 12.4129 5.30078L17.2129 23.7008C17.2396 23.8039 17.3066 23.892 17.3988 23.9455C17.4908 23.9988 17.6004 24.0133 17.7031 23.9855L23.7031 22.3855C23.9152 22.3289 24.042 22.1117 23.9871 21.8992ZM13.9248 7.92715L19.1519 6.5336L19.34 7.25352L14.1133 8.64922L13.9248 7.92715ZM19.542 8.02969L21.8619 16.9287L16.6367 18.3229L14.3168 9.42324L19.542 8.02969ZM22.0656 17.7031L22.4752 19.2729L17.248 20.6664L16.84 19.0973L22.0656 17.7031ZM18.5144 4.09004L18.95 5.75996L13.7228 7.15313L13.2877 5.48399L18.5144 4.09004ZM17.8855 23.11L17.45 21.44L22.6771 20.0461L23.1123 21.7152L17.8855 23.11Z" fill="#00427E"/>
<path d="M5.20001 7.19995H2.00001C1.77911 7.19995 1.60001 7.37905 1.60001 7.59995V10.8C1.60001 11.0208 1.77911 11.2 2.00001 11.2H5.20001C5.4209 11.2 5.60001 11.0208 5.60001 10.8V7.59995C5.60001 7.37905 5.4209 7.19995 5.20001 7.19995ZM4.80001 10.4H2.40001V7.99995H4.80001V10.4Z" fill="#00427E"/>
</g>
<defs>
<clipPath id="clip0_27_782">
<rect width="24" height="24" fill="white"/>
</clipPath>
</defs>
</svg>
