<svg width="60" height="60" viewBox="0 0 60 60" fill="none" xmlns="http://www.w3.org/2000/svg">
<g id="loading 1" clip-path="url(#clip0_41_715)">
<path id="Vector" d="M30 5.80645C31.6034 5.80645 32.9032 4.50663 32.9032 2.90323C32.9032 1.29982 31.6034 0 30 0C28.3966 0 27.0968 1.29982 27.0968 2.90323C27.0968 4.50663 28.3966 5.80645 30 5.80645Z" fill="#015DB0"/>
<path id="Vector_2" d="M30 59.9998C31.6034 59.9998 32.9032 58.7 32.9032 57.0966C32.9032 55.4932 31.6034 54.1934 30 54.1934C28.3966 54.1934 27.0968 55.4932 27.0968 57.0966C27.0968 58.7 28.3966 59.9998 30 59.9998Z" fill="#ABBDD5"/>
<path id="Vector_3" d="M16.4516 9.38751C18.055 9.38751 19.3548 8.08769 19.3548 6.48428C19.3548 4.88087 18.055 3.58105 16.4516 3.58105C14.8482 3.58105 13.5484 4.88087 13.5484 6.48428C13.5484 8.08769 14.8482 9.38751 16.4516 9.38751Z" fill="#6C88B3"/>
<path id="Vector_4" d="M46.0645 52.0649C46.8387 53.4197 46.3548 55.1616 45 56.0326C43.6452 56.8068 41.9032 56.3229 41.0323 54.9681C40.2581 53.6132 40.7419 51.8713 42.0968 51.0003C43.4516 50.2261 45.2903 50.71 46.0645 52.0649Z" fill="#A6BBD5"/>
<path id="Vector_5" d="M7.93549 13.9357C9.29033 14.7099 9.7742 16.4518 9.00001 17.9034C8.22581 19.2583 6.48388 19.7421 5.03227 18.9679C3.67743 18.1937 3.19356 16.4518 3.96775 15.0002C4.74194 13.5486 6.58065 13.1615 7.93549 13.9357Z" fill="#9AAECA"/>
<path id="Vector_6" d="M54.9677 41.0326C56.3226 41.8068 56.8065 43.5487 56.0323 45.0003C55.2581 46.3551 53.5161 46.839 52.0645 46.0648C50.7097 45.2906 50.2258 43.5487 51 42.0971C51.7742 40.7422 53.5161 40.2584 54.9677 41.0326Z" fill="#E3E9F1"/>
<path id="Vector_7" d="M2.90323 32.9031C4.50663 32.9031 5.80645 31.6033 5.80645 29.9999C5.80645 28.3965 4.50663 27.0967 2.90323 27.0967C1.29982 27.0967 0 28.3965 0 29.9999C0 31.6033 1.29982 32.9031 2.90323 32.9031Z" fill="#AABDD7"/>
<path id="Vector_8" d="M57.0968 32.9031C58.7002 32.9031 60 31.6033 60 29.9999C60 28.3965 58.7002 27.0967 57.0968 27.0967C55.4934 27.0967 54.1935 28.3965 54.1935 29.9999C54.1935 31.6033 55.4934 32.9031 57.0968 32.9031Z" fill="#ECF0F5"/>
<path id="Vector_9" d="M5.03225 41.0326C6.38709 40.2584 8.12903 40.7422 8.99999 42.0971C9.77419 43.4519 9.29032 45.1939 7.93548 46.0648C6.58064 46.839 4.8387 46.3551 3.96774 45.0003C3.09677 43.6455 3.67741 41.9035 5.03225 41.0326Z" fill="#B5C6DC"/>
<path id="Vector_10" d="M52.0645 13.9359C53.4194 13.1617 55.1613 13.6456 56.0323 15.0004C56.8065 16.3552 56.3226 18.0972 54.9677 18.9681C53.6129 19.7423 51.871 19.2585 51 17.9036C50.2258 16.5488 50.7097 14.7101 52.0645 13.9359Z" fill="#00427E"/>
<path id="Vector_11" d="M13.9355 52.0649C14.7097 50.71 16.4516 50.2261 17.9032 51.0003C19.2581 51.7745 19.7419 53.5165 18.9677 54.9681C18.1935 56.3229 16.4516 56.8068 15 56.0326C13.6452 55.1616 13.1613 53.4197 13.9355 52.0649Z" fill="#C0CFE1"/>
<path id="Vector_12" d="M41.0323 5.03263C41.8065 3.67779 43.5484 3.19392 45 3.96812C46.3548 4.74231 46.8387 6.48424 46.0645 7.93586C45.2903 9.2907 43.5484 9.77457 42.0968 9.00037C40.7419 8.22618 40.2581 6.48424 41.0323 5.03263Z" fill="#015098"/>
</g>
<defs>
<clipPath id="clip0_41_715">
<rect width="60" height="60" fill="white"/>
</clipPath>
</defs>
</svg>
