<svg width="42" height="42" viewBox="0 0 42 42" fill="none" xmlns="http://www.w3.org/2000/svg">
<rect x="0.5" y="0.5" width="41" height="41" rx="9.5" fill="white" stroke="#00427E"/>
<path d="M6.67392 21.0065C6.67192 21.0043 6.66993 21.0022 6.66795 21C6.66993 20.9978 6.67192 20.9957 6.67392 20.9935C6.86859 20.7803 7.15737 20.4741 7.5302 20.1057C8.27639 19.3684 9.35644 18.3851 10.69 17.4025C13.368 15.4294 17.013 13.5 21 13.5C24.987 13.5 28.632 15.4294 31.31 17.4025C32.6436 18.3851 33.7236 19.3684 34.4698 20.1057C34.8426 20.4741 35.1314 20.7803 35.3261 20.9935C35.3281 20.9957 35.3301 20.9978 35.3321 21C35.3301 21.0022 35.3281 21.0043 35.3261 21.0065C35.1314 21.2197 34.8426 21.5259 34.4698 21.8943C33.7236 22.6316 32.6436 23.6149 31.31 24.5975C28.632 26.5706 24.987 28.5 21 28.5C17.013 28.5 13.368 26.5706 10.69 24.5975C9.35644 23.6149 8.27639 22.6316 7.5302 21.8943C7.15737 21.5259 6.86859 21.2197 6.67392 21.0065Z" stroke="#004780"/>
<circle cx="21" cy="21" r="4.5" stroke="#004780"/>
</svg>
