<svg width="48" height="60" viewBox="0 0 48 60" fill="none" xmlns="http://www.w3.org/2000/svg">
<path d="M24.8114 58.4742C20.177 58.5914 11.072 57.8813 8.09714 57.1852C6.06611 56.7669 4.16291 55.6091 2.72087 53.9978C1.27884 52.3866 0.3816 50.3886 0.171328 48.3778C0.171328 48.3579 0.171328 48.3368 0.171328 48.3157C0.015605 46.8123 -0.032302 45.3 0.027961 43.7901C0.027961 43.7901 -0.0915115 42.4577 0.171328 40.0403C0.171328 40.0203 0.171328 39.9992 0.171328 39.9793C0.387502 37.9946 1.29221 36.1429 2.73402 34.7342C4.18358 33.3107 6.08373 32.4131 8.12223 32.189C11.109 31.8797 20.189 31.7098 24.8066 31.7109C29.4242 31.7121 36.8327 31.8785 39.8183 32.189C41.8568 32.4131 43.7567 33.3111 45.2053 34.7354C46.6503 36.1432 47.5576 37.9955 47.7752 39.9817V40.0426C48.0333 42.4612 47.9986 43.7924 47.9986 43.7924C48.0057 45.3053 47.9311 46.8175 47.7752 48.3227L47.768 48.3836C47.5578 50.398 46.651 52.3878 45.2149 54.0014C43.7789 55.615 41.8697 56.7704 39.8386 57.1887C36.8697 57.8508 29.4445 58.5012 24.8114 58.4742Z" fill="#F28B00"/>
<path d="M23.7001 28.3089C31.6702 28.3089 38.1312 21.9717 38.1312 14.1544C38.1312 6.33716 31.6702 0 23.7001 0C15.73 0 9.269 6.33716 9.269 14.1544C9.269 21.9717 15.73 28.3089 23.7001 28.3089Z" fill="#F28B00"/>
<path d="M38.4335 32.0742C34.9389 31.8398 28.8207 31.7098 24.8136 31.7109C20.1972 31.7109 11.1137 31.8797 8.12923 32.1891C6.08819 32.4116 4.18527 33.3093 2.73384 34.7342C1.29116 36.1426 0.38559 37.9943 0.168766 39.9793V40.0403C-0.0892946 42.4577 0.0253995 43.7901 0.0253995 43.7901C-0.0348635 45.3001 0.013043 46.8123 0.168766 48.3157V48.3778C0.291711 49.5084 0.615171 50.6093 1.12455 51.6308C3.43915 52.1332 5.80283 52.3858 8.17343 52.3842C21.9546 52.3807 33.7274 43.9588 38.4335 32.0742Z" fill="#189AD7"/>
<path d="M47.732 49.2806C47.5301 48.5095 46.7249 47.8662 45.928 47.7572C45.689 47.715 44.2554 47.6564 42.7536 47.6119C42.707 46.133 42.6473 44.7292 42.6043 44.4972C42.4991 43.7156 41.8444 42.9258 41.0511 42.7289C39.7298 42.4211 38.3534 42.4211 37.0321 42.7289C36.2459 42.9258 35.59 43.7156 35.4849 44.4972C35.4419 44.7315 35.3821 46.1377 35.3367 47.6119C33.829 47.6564 32.3977 47.715 32.1612 47.7572C31.3643 47.8603 30.559 48.5036 30.3583 49.2806C30.0429 50.5764 30.0429 51.9268 30.3583 53.2226C30.559 53.9936 31.3643 54.637 32.1612 54.7401C32.4001 54.7823 33.8338 54.8409 35.3367 54.8866C35.3821 56.3642 35.4419 57.7681 35.4849 58.0001C35.59 58.7817 36.2459 59.5715 37.0321 59.7695C38.3534 60.0773 39.7298 60.0773 41.0511 59.7695C41.8372 59.5715 42.4932 58.7817 42.6043 58.0001C42.6473 57.7657 42.707 56.3595 42.7536 54.8866C44.2602 54.8409 45.6914 54.7823 45.928 54.7401C46.7249 54.637 47.5301 53.9948 47.732 53.2226C48.0458 51.9266 48.0458 50.5765 47.732 49.2806Z" fill="#00427E"/>
</svg>
