<svg width="26" height="24" viewBox="0 0 26 24" fill="none" xmlns="http://www.w3.org/2000/svg">
<path fill-rule="evenodd" clip-rule="evenodd" d="M12.9447 3.53076C12.7403 3.12815 12.2046 3.03829 11.8799 3.35211L6.30859 8.73782L10.1837 16.3671L17.8396 15.0953C18.2869 15.021 18.5333 14.5336 18.3279 14.1293L12.9447 3.53076ZM10.821 17.6219L18.0595 16.4194C19.4015 16.1965 20.1407 14.7343 19.5247 13.5215L14.1415 2.92288C13.528 1.71512 11.921 1.44556 10.947 2.38706L5.09183 8.04716L1.10206 10.0736C0.110638 10.5772 -0.284848 11.7891 0.218718 12.7805L3.35809 18.9614C3.86164 19.9528 5.07357 20.3483 6.06497 19.8448L6.90812 19.4165L8.67642 22.8979C9.17997 23.8893 10.3919 24.2848 11.3833 23.7813L11.6281 23.6569C12.6195 23.1534 13.015 21.9414 12.5114 20.95L10.821 17.6219ZM9.54641 18.0765L8.10488 18.8087L9.87319 22.2901C10.041 22.6206 10.445 22.7524 10.7755 22.5845L11.0202 22.4602C11.3507 22.2923 11.4826 21.8884 11.3147 21.5579L9.54641 18.0765ZM8.93857 16.8798L5.19129 9.50211L1.70991 11.2704C1.37944 11.4383 1.24761 11.8422 1.41546 12.1727L4.55485 18.3536C4.7227 18.684 5.12666 18.8158 5.45713 18.648L8.93857 16.8798Z" fill="#00427E"/>
<path fill-rule="evenodd" clip-rule="evenodd" d="M19.7188 0.200907C19.9784 0.465374 19.9746 0.890296 19.7101 1.15L16.7924 4.01512C16.5279 4.27478 16.103 4.27096 15.8433 4.00646C15.5836 3.74197 15.5875 3.31708 15.852 3.05737L18.7696 0.192276C19.0341 -0.067426 19.459 -0.0635604 19.7188 0.200907Z" fill="#00427E"/>
<path fill-rule="evenodd" clip-rule="evenodd" d="M23.1518 4.09404C23.3314 4.41834 23.2141 4.82672 22.8898 5.00632L18.4863 7.44468C18.162 7.62421 17.7537 7.50689 17.5741 7.18267C17.3945 6.85838 17.5119 6.44999 17.8361 6.2704L22.2396 3.83203C22.5638 3.6525 22.9723 3.76982 23.1518 4.09404Z" fill="#00427E"/>
<path fill-rule="evenodd" clip-rule="evenodd" d="M25.1373 9.01095C25.2194 9.37243 24.993 9.73202 24.6316 9.81423L20.1493 10.8334C19.7878 10.9156 19.4282 10.6892 19.346 10.3278C19.2638 9.96631 19.4902 9.60672 19.8517 9.5245L24.334 8.50539C24.6954 8.42317 25.055 8.64955 25.1373 9.01095Z" fill="#00427E"/>
</svg>
