<svg width="51" height="62" viewBox="0 0 51 62" fill="none" xmlns="http://www.w3.org/2000/svg">
<path d="M3.64283 0H34.5944L51 17.159V57.375C51 59.4883 49.3681 61.2 47.3572 61.2H3.64283C1.63191 61.2 0 59.4883 0 57.375V3.82496C0 1.71172 1.6321 0 3.64283 0Z" fill="#189AD7"/>
<path d="M50.948 17.2153H38.2507C36.2398 17.2153 34.6079 15.5017 34.6079 13.3903V0.0410156L50.948 17.2153Z" fill="#5CC4E1"/>
<path d="M15.0011 33.8373V37.4H12.9458V27.5254H17.4614C18.4132 27.5254 19.1614 27.8065 19.706 28.3688C20.2416 28.9398 20.5095 29.7113 20.5095 30.683C20.5095 31.3803 20.3191 32.0145 19.9384 32.5855C19.3761 33.4201 18.5195 33.8373 17.3685 33.8373H15.0011ZM15.0011 32.1373H16.9169C17.5256 32.1373 17.9517 31.9602 18.1952 31.6061C18.3679 31.3626 18.4542 31.0272 18.4542 30.6C18.4542 30.1197 18.3136 29.771 18.0325 29.5541C17.7425 29.335 17.281 29.2254 16.6479 29.2254H15.0011V32.1373Z" fill="white"/>
<path d="M22.1099 37.4V27.5254H26.4628C27.9503 27.5254 29.0382 28.0743 29.7267 29.1723C30.2358 29.978 30.4903 30.9984 30.4903 32.2336C30.4903 33.5661 30.2136 34.6895 29.6603 35.6037C28.9431 36.8012 27.8507 37.4 26.3831 37.4H22.1099ZM24.1253 29.2254V35.7H26.1374C26.9077 35.7 27.4877 35.3514 27.8772 34.6541C28.2137 34.0542 28.3819 33.2972 28.3819 32.383C28.3819 31.1036 28.1141 30.2148 27.5784 29.7168C27.2243 29.3892 26.7351 29.2254 26.1108 29.2254H24.1253Z" fill="white"/>
<path d="M34.0729 33.2529V37.4H32.0177V27.5254H39.0501V29.2686H34.0729V31.5098H38.4259V33.2529H34.0729Z" fill="white"/>
</svg>
