<svg width="60" height="48" viewBox="0 0 60 48" fill="none" xmlns="http://www.w3.org/2000/svg">
<g clip-path="url(#clip0_107_4111)">
<path d="M59.4121 6.64844H0.587915C0.263219 6.64844 0 6.91478 0 7.24334V47.4322C0 47.7608 0.263219 48.0271 0.587915 48.0271H59.4121C59.7368 48.0271 60 47.7608 60 47.4322V7.24334C60 6.91478 59.7368 6.64844 59.4121 6.64844Z" fill="#00427E"/>
<path fill-rule="evenodd" clip-rule="evenodd" d="M29.0692 6.64844H59.4121C59.7387 6.64844 60 6.91284 60 7.24334V39.7315C42.6892 39.3349 28.8079 26.3132 28.8079 10.35C28.8079 9.09414 28.9058 7.83824 29.0692 6.64844Z" fill="#F28B00"/>
<path fill-rule="evenodd" clip-rule="evenodd" d="M14.0446 47.9948H0.587915C0.261296 47.9948 0 47.7304 0 47.3999V30.8418C6.79369 34.6756 11.8889 40.7899 14.0446 47.9948Z" fill="#189AD7"/>
<path d="M26.2275 0.00585938H33.7398C35.5362 0.00585938 37.1693 0.73296 38.3778 1.95581C39.5536 3.14561 40.2722 4.79812 40.2722 6.61587V7.37602H36.1894V6.61587C36.1894 5.92182 35.8955 5.32692 35.4708 4.86422C35.0136 4.43457 34.4257 4.13712 33.7398 4.13712H26.2275C25.5743 4.13712 24.9537 4.43457 24.4964 4.86422C24.0718 5.32692 23.8105 5.92182 23.8105 6.61587V7.37602H19.6951V6.61587C19.6951 4.79812 20.4464 3.14561 21.6222 1.95581C22.798 0.73296 24.4311 0.00585938 26.2275 0.00585938Z" fill="#189AD7"/>
<path d="M30.8329 0.00585938H33.7398C35.5362 0.00585938 37.1693 0.73296 38.3778 1.95581C39.5536 3.14561 40.2722 4.79812 40.2722 6.61587V7.37602H36.1895V6.61587C36.1895 5.92182 35.8955 5.32692 35.4709 4.86422C35.0136 4.43457 34.4257 4.13712 33.7398 4.13712H29.5264C29.853 2.71596 30.3103 1.32786 30.8329 0.00585938Z" fill="#F28B00"/>
<path fill-rule="evenodd" clip-rule="evenodd" d="M60 19.3397C56.7338 25.9827 49.9401 30.5436 42.1339 30.5436H17.3435C9.92923 30.5436 3.46217 26.4454 0 20.3642V7.24334C0 6.91284 0.261296 6.64844 0.587915 6.64844H59.4121C59.7387 6.64844 60 6.91284 60 7.24334V19.3397Z" fill="#F28B00"/>
<path fill-rule="evenodd" clip-rule="evenodd" d="M60 19.3397C56.7338 25.9827 49.9401 30.5436 42.1339 30.5436H37.5939C32.1394 25.2887 28.8079 18.1829 28.8079 10.35C28.8079 9.09414 28.9058 7.83824 29.0692 6.64844H59.4121C59.7387 6.64844 60 6.91284 60 7.24334V19.3397Z" fill="#189AD7"/>
<path d="M31.9434 25.1233C32.4333 25.619 32.7273 26.28 32.7273 27.0402V34.1129C32.7273 34.873 32.4333 35.534 31.9434 36.0298C30.8982 37.0874 29.1998 37.0874 28.1546 36.0298C27.6647 35.534 27.3707 34.873 27.3707 34.1129V27.0402C27.3707 26.28 27.6647 25.619 28.1546 25.1233C29.1998 24.0657 30.8982 24.0657 31.9434 25.1233ZM28.3179 25.2885C27.8933 25.7512 27.632 26.3461 27.632 27.0402V34.1129C27.632 34.8069 27.8933 35.4018 28.3179 35.8645C29.2651 36.823 30.8329 36.823 31.7801 35.8645C32.2047 35.4018 32.466 34.8069 32.466 34.1129V27.0402C32.466 26.3461 32.2047 25.7512 31.7801 25.2885C30.8329 24.3301 29.2651 24.3301 28.3179 25.2885Z" fill="white"/>
</g>
<defs>
<clipPath id="clip0_107_4111">
<rect width="60" height="48" fill="white"/>
</clipPath>
</defs>
</svg>
