<svg width="26" height="26" viewBox="0 0 26 26" fill="none" xmlns="http://www.w3.org/2000/svg">
<path fill-rule="evenodd" clip-rule="evenodd" d="M11.3106 7.57893C11.3387 7.32572 11.5528 7.13416 11.8075 7.13416H14.1923C14.4471 7.13416 14.6611 7.32571 14.6893 7.57892L14.8129 8.6916C15.1757 8.84442 15.5149 9.04161 15.8238 9.27618L16.8502 8.82652C17.0835 8.72428 17.3564 8.81386 17.4838 9.03449L18.6762 11.0998C18.8036 11.3204 18.7447 11.6015 18.5395 11.7525L17.6372 12.4163C17.6611 12.6076 17.6734 12.8025 17.6734 13.0001C17.6734 13.1977 17.6611 13.3925 17.6372 13.5838L18.5395 14.2476C18.7447 14.3986 18.8036 14.6797 18.6762 14.9003L17.4838 16.9656C17.3564 17.1862 17.0835 17.2758 16.8502 17.1736L15.8238 16.7239C15.5149 16.9585 15.1757 17.1557 14.813 17.3085L14.6893 18.4211C14.6612 18.6743 14.4471 18.8659 14.1924 18.8659H11.8076C11.5528 18.8659 11.3388 18.6743 11.3107 18.4211L11.187 17.3085C10.8243 17.1557 10.4851 16.9586 10.1761 16.7239L9.14985 17.1735C8.91649 17.2758 8.64358 17.1862 8.51619 16.9656L7.3238 14.9003C7.19642 14.6797 7.2553 14.3985 7.46053 14.2475L8.36293 13.5837C8.33899 13.3924 8.32657 13.1976 8.32657 13C8.32657 12.8024 8.33894 12.6076 8.36286 12.4163L7.46052 11.7525C7.2553 11.6015 7.19642 11.3204 7.3238 11.0997L8.51619 9.03445C8.64358 8.81381 8.9165 8.72423 9.14985 8.82647L10.1762 9.27612C10.4851 9.04153 10.8242 8.84434 11.187 8.69154L11.3106 7.57893ZM12.2551 8.13416L12.1472 9.10504C12.1258 9.29755 11.9951 9.46038 11.8118 9.52298C11.356 9.67866 10.94 9.92192 10.584 10.233C10.4382 10.3605 10.2318 10.3923 10.0544 10.3145L9.15846 9.92201L8.41359 11.2122L9.20082 11.7913C9.35665 11.9059 9.43237 12.1002 9.39522 12.2901C9.3503 12.5196 9.32657 12.7569 9.32657 13C9.32657 13.243 9.35038 13.4802 9.39532 13.7099C9.43247 13.8998 9.35675 14.094 9.20091 14.2087L8.41359 14.7879L9.15846 16.078L10.0543 15.6855C10.2318 15.6078 10.4382 15.6396 10.584 15.7671C10.9399 16.0781 11.3559 16.3213 11.8119 16.4771C11.9952 16.5398 12.1258 16.7026 12.1472 16.8951L12.2551 17.8659H13.7449L13.8527 16.895C13.8741 16.7025 14.0048 16.5397 14.1881 16.4771C14.644 16.3214 15.06 16.0781 15.416 15.767C15.5618 15.6395 15.7682 15.6078 15.9456 15.6855L16.8416 16.0781L17.5864 14.7879L16.7992 14.2088C16.6434 14.0941 16.5676 13.8999 16.6048 13.71C16.6497 13.4804 16.6734 13.2432 16.6734 13.0001C16.6734 12.757 16.6497 12.5197 16.6048 12.2901C16.5676 12.1003 16.6434 11.906 16.7992 11.7914L17.5864 11.2122L16.8416 9.92205L15.9456 10.3146C15.7682 10.3923 15.5618 10.3606 15.416 10.2331C15.06 9.92202 14.644 9.67875 14.1881 9.52302C14.0048 9.46041 13.8741 9.29759 13.8528 9.1051L13.7448 8.13416H12.2551Z" fill="#00427E"/>
<path fill-rule="evenodd" clip-rule="evenodd" d="M12.9999 12.0095C12.4529 12.0095 12.0095 12.453 12.0095 13C12.0095 13.547 12.4529 13.9905 12.9999 13.9905C13.547 13.9905 13.9904 13.547 13.9904 13C13.9904 12.453 13.547 12.0095 12.9999 12.0095ZM11.0095 13C11.0095 11.9007 11.9006 11.0095 12.9999 11.0095C14.0993 11.0095 14.9904 11.9007 14.9904 13C14.9904 14.0993 14.0993 14.9905 12.9999 14.9905C11.9006 14.9905 11.0095 14.0993 11.0095 13Z" fill="#00427E"/>
<path fill-rule="evenodd" clip-rule="evenodd" d="M3.92679 1.5C3.39471 1.5 2.96338 1.93133 2.96338 2.46341C2.96338 2.99549 3.39471 3.42683 3.92679 3.42683C4.45887 3.42683 4.89021 2.99549 4.89021 2.46341C4.89021 1.93133 4.45887 1.5 3.92679 1.5ZM1.96338 2.46341C1.96338 1.37905 2.84243 0.5 3.92679 0.5C5.01116 0.5 5.89021 1.37905 5.89021 2.46341C5.89021 3.54778 5.01116 4.42683 3.92679 4.42683C2.84243 4.42683 1.96338 3.54778 1.96338 2.46341Z" fill="#00427E"/>
<path fill-rule="evenodd" clip-rule="evenodd" d="M1.55156 6.59748H6.30209C6.07161 5.49706 5.09573 4.67065 3.92683 4.67065C2.75793 4.67065 1.78204 5.49706 1.55156 6.59748ZM0.5 7.09748C0.5 5.2049 2.03425 3.67065 3.92683 3.67065C5.81941 3.67065 7.35365 5.2049 7.35365 7.09748C7.35365 7.37362 7.1298 7.59748 6.85365 7.59748H1C0.723858 7.59748 0.5 7.37362 0.5 7.09748Z" fill="#00427E"/>
<path fill-rule="evenodd" clip-rule="evenodd" d="M22.0692 19.4023C21.5371 19.4048 21.1078 19.8381 21.1102 20.3702C21.1127 20.9023 21.546 21.3316 22.0781 21.3292C22.6102 21.3267 23.0395 20.8934 23.0371 20.3613C23.0346 19.8292 22.6013 19.3999 22.0692 19.4023ZM20.1102 20.3748C20.1052 19.2904 20.9802 18.4073 22.0646 18.4023C23.149 18.3974 24.0321 19.2724 24.0371 20.3567C24.042 21.4411 23.167 22.3242 22.0827 22.3292C20.9983 22.3342 20.1152 21.4592 20.1102 20.3748Z" fill="#00427E"/>
<path fill-rule="evenodd" clip-rule="evenodd" d="M19.6979 24.5001H24.4484C24.2179 23.3997 23.242 22.5732 22.0731 22.5732C20.9042 22.5732 19.9283 23.3997 19.6979 24.5001ZM18.6463 25.0001C18.6463 23.1075 20.1805 21.5732 22.0731 21.5732C23.9657 21.5732 25.5 23.1075 25.5 25.0001C25.5 25.2762 25.2761 25.5001 25 25.5001H19.1463C18.8702 25.5001 18.6463 25.2762 18.6463 25.0001Z" fill="#00427E"/>
<path fill-rule="evenodd" clip-rule="evenodd" d="M2.90348 9.32857C3.16711 9.41076 3.31421 9.69109 3.23203 9.95472C2.9247 10.9406 2.76834 11.9673 2.76834 13C2.76834 18.6508 7.34919 23.2316 13 23.2316C14.2341 23.2316 15.458 23.0084 16.6126 22.5726C16.8709 22.4751 17.1594 22.6055 17.2569 22.8639C17.3544 23.1223 17.224 23.4107 16.9656 23.5082C15.6982 23.9866 14.3547 24.2316 13 24.2316C6.79691 24.2316 1.76834 19.203 1.76834 13C1.76834 11.8664 1.93998 10.7393 2.27734 9.65712C2.35952 9.39349 2.63985 9.24639 2.90348 9.32857Z" fill="#00427E"/>
<path fill-rule="evenodd" clip-rule="evenodd" d="M13 2.76843C11.7659 2.76843 10.542 2.99167 9.38743 3.4274C9.12907 3.5249 8.84059 3.3945 8.74309 3.13614C8.64559 2.87778 8.77599 2.5893 9.03435 2.4918C10.3018 2.01349 11.6453 1.76843 13 1.76843C19.2031 1.76843 24.2317 6.797 24.2317 13.0001C24.2317 14.1337 24.06 15.2607 23.7227 16.3429C23.6405 16.6066 23.3601 16.7537 23.0965 16.6715C22.8329 16.5893 22.6858 16.309 22.768 16.0453C23.0753 15.0594 23.2317 14.0327 23.2317 13.0001C23.2317 7.34929 18.6508 2.76843 13 2.76843Z" fill="#00427E"/>
<path fill-rule="evenodd" clip-rule="evenodd" d="M2.63355 8.99628C2.8754 8.86299 3.1795 8.95098 3.3128 9.19282L3.9788 10.4012C4.11209 10.643 4.0241 10.9471 3.78226 11.0804C3.54042 11.2137 3.23631 11.1257 3.10301 10.8839L2.67837 10.1134L1.90792 10.5381C1.66608 10.6714 1.36197 10.5834 1.22867 10.3415C1.09538 10.0997 1.18337 9.79558 1.42521 9.66228L2.63355 8.99628Z" fill="#00427E"/>
<path fill-rule="evenodd" clip-rule="evenodd" d="M22.2177 14.9195C22.4595 14.7862 22.7636 14.8742 22.8969 15.116L23.3216 15.8865L24.092 15.4618C24.3339 15.3285 24.638 15.4165 24.7713 15.6584C24.9046 15.9002 24.8166 16.2043 24.5747 16.3376L23.3664 17.0036C23.1246 17.1369 22.8205 17.0489 22.6872 16.8071L22.0212 15.5987C21.8879 15.3569 21.9759 15.0528 22.2177 14.9195Z" fill="#00427E"/>
</svg>
