<svg width="16" height="16" viewBox="0 0 16 16" fill="none" xmlns="http://www.w3.org/2000/svg">
<path d="M11.7883 9.6697C11.9787 10.011 12.2073 10.3522 12.474 10.5039C13.274 10.9589 13.8455 10.466 14.1503 9.82138C14.6836 8.72173 14.4931 7.09122 14.0741 5.99157C13.4264 4.17146 12.0168 2.6547 10.1882 1.97216C7.33095 0.872517 4.62608 1.85841 2.83554 4.13354C1.23548 6.21908 1.08309 9.32843 2.56886 11.5656C4.74037 14.7888 8.05478 15.0542 11.4835 13.6133L12.5502 14.7508C8.85481 17.1397 3.67366 15.9642 1.27357 12.3999C-0.555066 9.63178 -0.402679 5.80197 1.65454 3.18557C3.82605 0.379571 7.21666 -0.795915 10.7215 0.569166C13.1597 1.47922 14.9884 3.56476 15.7122 6.02949C16.0932 7.43249 16.1694 9.25259 15.4836 10.5798C14.7598 11.9069 13.3121 12.7411 11.7502 11.8311C11.3692 11.6036 11.1025 11.3381 10.8358 11.0348C10.112 11.7552 9.12149 12.1723 8.01669 12.1723C5.76898 12.1723 3.94034 10.3143 3.94034 8.07711C3.94034 5.83989 5.76898 4.01979 8.01669 4.01979C10.4549 4.01979 12.1311 6.06741 12.093 8.19086C12.093 8.68381 11.9787 9.21467 11.7883 9.6697ZM8.01669 5.53654C6.60711 5.53654 5.46421 6.67411 5.46421 8.07711C5.46421 9.51803 6.60711 10.6556 8.01669 10.6556C8.70243 10.6556 9.35007 10.3902 9.80723 9.89721C10.2644 9.44219 10.5692 8.79757 10.5692 8.07711C10.5692 6.67411 9.42626 5.53654 8.01669 5.53654Z" fill="#BBBCBD"/>
</svg>
