<svg width="20" height="16" viewBox="0 0 20 16" fill="none" xmlns="http://www.w3.org/2000/svg">
<path d="M6.17707 16C13.6081 16 17.6488 9.83188 17.6488 4.49855C17.6488 4.35942 17.6488 4.17391 17.6488 3.98841C18.4383 3.43188 19.135 2.73623 19.6923 1.90145C18.9492 2.22609 18.1597 2.45797 17.3701 2.55072C18.2061 2.04058 18.8099 1.25217 19.135 0.324638C18.3454 0.788406 17.463 1.11304 16.5806 1.29855C15.8374 0.510145 14.7692 0 13.6081 0C11.3788 0 9.56749 1.8087 9.56749 4.03478C9.56749 4.35942 9.61393 4.68406 9.66038 4.96232C6.3164 4.82319 3.34398 3.2 1.34688 0.742029C1.02177 1.34493 0.78955 2.04058 0.78955 2.78261C0.78955 4.17391 1.53266 5.42609 2.60087 6.12174C1.95065 6.12174 1.30044 5.93623 0.78955 5.65797C0.78955 5.65797 0.78955 5.65797 0.78955 5.70435C0.78955 7.65217 2.18287 9.27536 3.99419 9.64638C3.66909 9.73913 3.29753 9.78551 2.92598 9.78551C2.69376 9.78551 2.41509 9.73913 2.18287 9.69275C2.69376 11.3159 4.17997 12.4754 5.94485 12.5217C4.59797 13.5884 2.83309 14.2377 0.928882 14.2377C0.603774 14.2377 0.278665 14.2377 0 14.1913C1.76488 15.3507 3.90131 16 6.17707 16Z" fill="#BBBCBD"/>
</svg>
