<svg width="16" height="16" viewBox="0 0 16 16" fill="none" xmlns="http://www.w3.org/2000/svg">
<path fill-rule="evenodd" clip-rule="evenodd" d="M8.47273 1.01953C12.6335 1.01953 15.9999 4.37908 15.9999 8.49359C15.9999 11.8154 13.8061 14.6465 10.8179 15.6279C9.53183 16.0431 8.01883 16.1186 6.73278 15.8167C3.40417 15.024 0.907715 12.0419 0.907715 8.49359C0.907715 7.3989 1.13467 6.37971 1.58857 5.43602C2.60984 6.41746 6.05192 10.0035 7.71623 11.5889C8.17013 10.381 9.53183 8.53134 11.6122 7.70089C10.2505 6.30422 7.75405 3.88836 5.48455 1.6235C6.39235 1.20827 7.41363 1.01953 8.47273 1.01953ZM12.0283 9.77701L12.6335 12.6081L9.79661 12.0041C10.2505 11.0227 11.007 10.1922 12.0283 9.77701ZM1.58857 5.43602C1.58857 5.39827 1.62639 5.36052 1.58857 5.43602V5.43602Z" fill="#BBBCBD"/>
<path d="M3.89598 0L5.48464 1.62315C3.74468 2.34036 2.34515 3.73703 1.58865 5.43568C1.3617 5.24694 0 3.88802 0 3.88802C0.453901 2.68009 1.8156 0.830451 3.89598 0Z" fill="#BBBCBD"/>
<path d="M11.6123 7.7002L12.0284 9.77632C11.5745 9.96506 10.4775 10.4935 9.79669 12.0034C9.30496 11.9279 7.71631 11.5882 7.71631 11.5882C8.17021 10.3803 9.53191 8.53065 11.6123 7.7002Z" fill="#BBBCBD"/>
</svg>
