<svg width="10" height="16" viewBox="0 0 10 16" fill="none" xmlns="http://www.w3.org/2000/svg">
<path d="M2.47728 15.6389C1.47997 16.6998 -0.131061 15.1843 0.866246 14.1612L3.39787 11.5469C2.36221 11.3574 1.51833 10.9406 0.59774 10.4481C0.0607286 10.1828 -0.169419 9.50082 0.137445 8.97037C0.40595 8.43991 1.09639 8.25046 1.63341 8.51569C3.7431 9.65238 5.58428 9.91761 7.77068 8.70514C7.88576 8.62936 8.11591 8.51569 8.3077 8.36413C8.80635 8.06102 9.49679 8.21257 9.84201 8.70514C10.1489 9.23559 9.99545 9.87972 9.49679 10.2207C8.53784 10.7891 7.61725 11.2437 6.54323 11.4711L9.11321 14.1612C10.1105 15.1843 8.53784 16.6998 7.54054 15.6389L5.00891 13.0624L2.47728 15.6389ZM7.88576 1.16511C9.45844 2.71858 9.45844 5.29507 7.88576 6.84855C6.31308 8.40202 3.70474 8.40202 2.13206 6.84855C0.521024 5.29507 0.521024 2.71858 2.13206 1.16511C3.70474 -0.388369 6.31308 -0.388369 7.88576 1.16511ZM5.00891 2.15024C3.97324 2.15024 3.12937 2.98381 3.12937 4.00683C3.12937 5.02985 3.97324 5.82553 5.00891 5.82553C6.04457 5.82553 6.85009 5.02985 6.85009 4.00683C6.85009 2.98381 6.04457 2.15024 5.00891 2.15024Z" fill="#BBBCBD"/>
</svg>
