<svg width="24" height="16" viewBox="0 0 24 16" fill="none" xmlns="http://www.w3.org/2000/svg">
<path d="M12.2488 13.6415C9.45455 16.7862 4.86124 16.7862 2.06699 13.6415C-0.688995 10.5377 -0.688995 5.47349 2.06699 2.36965C4.82297 -0.734189 9.26316 -0.775029 12.0957 2.16545L10.3349 4.08493C8.49761 2.20629 5.66507 2.24713 3.90431 4.20745C2.06699 6.29029 2.06699 9.72085 3.90431 11.7628C5.70335 13.8048 8.65072 13.8048 10.4498 11.7628C11.0239 11.1094 11.445 10.2518 11.6746 9.39413H7.27273V6.82121C9.60766 6.82121 11.9426 6.82121 14.2775 6.82121C14.4689 9.47581 14.0096 11.6812 12.2488 13.6415ZM18.6411 12.5388V9.35329H15.6555V6.86205H18.6411V3.63569H21.0144V6.86205H24V9.35329H21.0144V12.5388H18.6411Z" fill="#BBBCBD"/>
</svg>
