<svg width="48" height="60" viewBox="0 0 48 60" fill="none" xmlns="http://www.w3.org/2000/svg">
<path fill-rule="evenodd" clip-rule="evenodd" d="M14.7337 34.0078H33.2994C41.393 34.0078 48 40.6132 48 48.7048C48 51.6443 47.8679 54.6497 47.8679 57.6552C47.8679 58.9432 46.8107 60.0001 45.4893 60.0001H2.4446C1.15623 60.0001 0.0991053 58.9432 0.0991053 57.6552C0.0991053 54.6827 0 51.6773 0 48.7048C0 40.6132 6.60702 34.0078 14.7337 34.0078Z" fill="#00427E"/>
<path fill-rule="evenodd" clip-rule="evenodd" d="M14.7337 34.0078H33.2994C33.6958 34.0078 34.0922 34.0078 34.4887 34.0408C32.2423 39.3252 28.3772 42.826 23.9505 42.826C19.5568 42.826 15.6917 39.3252 13.4453 34.0739C13.8417 34.0078 14.2712 34.0078 14.7337 34.0078Z" fill="#189AD7"/>
<path d="M15.4934 33.9414L21.4067 38.7964C21.5058 38.7634 21.6049 38.7303 21.704 38.6973C21.8362 38.6643 21.9683 38.6312 22.1335 38.6312H26.0647C26.1968 38.6312 26.2959 38.6643 26.428 38.6973C26.5271 38.6973 26.6263 38.7303 26.6923 38.7634L32.5726 33.9414H33.0351L26.9896 38.8955C27.1878 39.0606 27.3861 39.2257 27.5182 39.4569C27.6834 39.7211 27.7825 40.0184 27.7825 40.3487V43.7504C27.7825 44.2128 27.5843 44.6422 27.287 44.9724C26.9566 45.2697 26.5271 45.4678 26.0647 45.4678H25.8004L28.0137 57.6548H27.8485C26.5602 57.6548 25.2388 57.6548 23.9504 57.6548C22.662 57.6548 21.3406 57.6548 20.0523 57.6548H19.8871L22.1004 45.4678C21.638 45.4678 21.2085 45.2697 20.9112 44.9724C20.5808 44.6422 20.4157 44.2128 20.4157 43.7504V40.3487C20.4157 40.0514 20.4817 39.7542 20.6469 39.4899C20.779 39.2588 20.9442 39.0936 21.1424 38.9615L15.064 33.9414H15.4934ZM27.6834 57.3576L25.5361 45.4678H22.3647L20.2174 57.3576C21.4728 57.3906 22.6951 57.3906 23.9504 57.3576C25.2057 57.3576 26.428 57.3576 27.6834 57.3576ZM26.0647 38.9285H22.1335C22.0013 38.9285 21.9022 38.9285 21.7701 38.9615C21.671 38.9945 21.5388 39.0276 21.4397 39.0936C21.2085 39.2257 21.0103 39.3909 20.8781 39.6221C20.746 39.8532 20.6799 40.0844 20.6799 40.3487V43.7504C20.6799 44.1468 20.8451 44.5101 21.1094 44.7743C21.3737 45.0385 21.7371 45.2036 22.1335 45.2036H26.0647C26.4611 45.2036 26.8245 45.0385 27.0887 44.7743C27.353 44.5101 27.5182 44.1468 27.5182 43.7504V40.3487C27.5182 40.0844 27.4191 39.8202 27.287 39.589C27.1218 39.3578 26.9236 39.1927 26.6923 39.0606H26.6593C26.5602 38.9945 26.4611 38.9615 26.362 38.9615C26.2629 38.9285 26.1638 38.9285 26.0647 38.9285Z" fill="#F8F8F8"/>
<path fill-rule="evenodd" clip-rule="evenodd" d="M24.3138 0.419922C30.4583 0.419922 35.4797 7.09138 35.9422 15.5463C37.6269 16.1738 38.8162 17.7921 38.8162 19.6747C38.8162 21.9866 37.0323 23.9021 34.7199 24.0673C32.8038 29.4177 28.8726 33.0837 24.3138 33.0837C19.788 33.0837 15.8568 29.4177 13.9408 24.1003C13.8417 24.1003 13.7426 24.1003 13.6765 24.1003C11.1989 24.1003 9.18372 22.1187 9.18372 19.6747C9.18372 17.561 10.7033 15.7775 12.7185 15.3481C13.247 6.9923 18.2353 0.419922 24.3138 0.419922Z" fill="#189AD7"/>
<path fill-rule="evenodd" clip-rule="evenodd" d="M29.0378 8.64362C28.8066 8.87481 28.6084 9.106 28.3771 9.30416C24.7432 13.0032 18.0371 16.2068 12.9167 15.3811C8.55605 7.95005 17.6737 -1.16542 25.7343 0.12264C28.1789 0.518964 31.2512 2.07123 32.2422 4.51524C32.4735 4.58129 32.7047 4.64734 32.9029 4.7134C36.9662 6.23264 37.1975 11.6161 36.735 15.183C36.6689 15.6123 36.6028 15.7775 36.5368 15.8105C35.2154 15.5132 34.1252 16.438 33.8279 16.7683C33.3984 14.3573 30.8878 9.99773 29.0378 8.64362Z" fill="#F28B00"/>
</svg>
