<svg width="48" height="60" viewBox="0 0 48 60" fill="none" xmlns="http://www.w3.org/2000/svg">
<g id="&#208;&#184;&#208;&#189;&#209;&#129;&#209;&#130;&#209;&#128;&#209;&#131;&#208;&#186;&#209;&#134;&#208;&#184;&#208;&#184;_icon" clip-path="url(#clip0_105_3273)">
<g id="&#208;&#161;&#208;&#187;&#208;&#190;&#208;&#185;_x0020_1">
<path id="Vector" d="M45.5859 0.0078125H2.41411C1.08083 0.0078125 0 1.33002 0 2.96104V57.0379C0 58.6689 1.08083 59.9911 2.41411 59.9911H45.5859C46.9192 59.9911 48 58.6689 48 57.0379V2.96104C48 1.33002 46.9192 0.0078125 45.5859 0.0078125Z" fill="#EA7D18"/>
<path id="Vector_2" fill-rule="evenodd" clip-rule="evenodd" d="M4.7655 0.0078125H45.5859C46.9027 0.0078125 48 1.15629 48 2.53446V57.4644C48 58.8754 46.9027 59.9911 45.5859 59.9911H4.7655V0.0078125Z" fill="#12438F"/>
<path id="Vector_3" fill-rule="evenodd" clip-rule="evenodd" d="M48 9.52344V57.4641C48 58.8751 46.9027 59.9908 45.5859 59.9908H22.4794L48 9.52344Z" fill="#EA7D18"/>
<path id="Vector_4" fill-rule="evenodd" clip-rule="evenodd" d="M27.4017 29.8034L37.0268 40.0413C37.8106 40.8944 37.8106 42.2726 36.9954 43.093L36.7133 43.4211C35.8981 44.2414 34.5813 44.2414 33.7975 43.3883L24.0157 32.9864C23.2632 33.2817 22.4167 33.4786 21.5389 33.4786C17.9647 33.4786 15.049 30.5253 15.049 26.883C15.049 25.7346 15.3311 24.6189 15.8641 23.6673L20.5356 28.3268L22.9183 25.7346L18.3409 21.1735C19.3129 20.6156 20.3788 20.3203 21.5389 20.3203C25.1443 20.3203 28.0601 23.2735 28.0601 26.883C28.0601 27.9331 27.8406 28.9175 27.4017 29.8034Z" fill="#5AA9FD"/>
<path id="Vector_5" fill-rule="evenodd" clip-rule="evenodd" d="M34.111 36.9551L37.0268 40.0396C37.8106 40.8927 37.8106 42.2709 36.9954 43.0912L36.7133 43.4194C35.8981 44.2397 34.5813 44.2397 33.7975 43.3865L31.885 41.3521L34.111 36.9551Z" fill="#12438F"/>
<path id="Vector_6" d="M24.9562 27.736C25.6773 28.4579 25.6773 29.672 24.9562 30.4267C24.2665 31.1814 23.0751 31.1814 22.3854 30.4267C21.6643 29.672 21.6643 28.4579 22.3854 27.736C23.0751 26.9812 24.2665 26.9812 24.9562 27.736ZM24.7681 27.9328C24.1724 27.2766 23.1692 27.2766 22.5735 27.9328C21.9464 28.5563 21.9464 29.6063 22.5735 30.2298C23.1692 30.8861 24.1724 30.8861 24.7681 30.2298C25.3952 29.6063 25.3952 28.5563 24.7681 27.9328Z" fill="#F8F8F8"/>
</g>
</g>
<defs>
<clipPath id="clip0_105_3273">
<rect width="48" height="60" fill="white"/>
</clipPath>
</defs>
</svg>
