<svg width="48" height="60" viewBox="0 0 48 60" fill="none" xmlns="http://www.w3.org/2000/svg">
<g id="&#208;&#186;&#208;&#190;&#209;&#128;&#208;&#191;&#208;&#190;&#209;&#128;&#208;&#176;&#209;&#130;&#208;&#184;&#208;&#178;&#208;&#189;&#209;&#139;&#208;&#185; &#208;&#179;&#208;&#187;&#208;&#190;&#209;&#129;&#209;&#129;&#208;&#176;&#209;&#128;&#208;&#184;&#208;&#185; 1" clip-path="url(#clip0_105_3215)">
<g id="&#208;&#161;&#208;&#187;&#208;&#190;&#208;&#185;_x0020_1">
<g id="_1430187618352">
<path id="Vector" d="M45.5651 0H2.40491C1.07883 0 0.00382996 1.25589 0.00382996 2.80512V54.2421C0.00382996 55.7913 1.07883 57.0472 2.40491 57.0472H45.5651C46.8912 57.0472 47.9662 55.7913 47.9662 54.2421V2.80512C47.9662 1.25589 46.8912 0 45.5651 0Z" fill="#189AD7"/>
<path id="Vector_2" fill-rule="evenodd" clip-rule="evenodd" d="M10.8533 0H45.5653C46.8695 0 47.9663 1.09252 47.9663 2.39173V54.6555C47.9663 55.9842 46.8695 57.0472 45.5653 57.0472H10.8533V0Z" fill="#00427E"/>
<path id="Vector_3" fill-rule="evenodd" clip-rule="evenodd" d="M5.22117 47.3027H47.996V55.039H5.22117C3.08688 55.039 1.33794 53.2968 1.33794 51.1708C1.33794 49.0449 3.08688 47.3027 5.22117 47.3027Z" fill="#F28B00"/>
<path id="Vector_4" d="M32.8781 30.5307C32.0184 31.2689 31.1588 31.8004 30.3584 32.0957C29.5581 32.3909 28.6984 32.5386 27.7498 32.5386C26.238 32.5386 25.0523 32.1843 24.2223 31.4461C23.422 30.7079 23.007 29.763 23.007 28.6114C23.007 27.9323 23.1552 27.3122 23.4516 26.7512C23.7777 26.1902 24.1927 25.7472 24.6966 25.3929C25.2005 25.0681 25.7638 24.8024 26.3863 24.6252C26.8309 24.5071 27.5423 24.389 28.4909 24.2709C30.3881 24.0642 31.7813 23.7984 32.7002 23.4736C32.7002 23.1488 32.7002 22.9421 32.7002 22.8535C32.7002 21.9087 32.4927 21.2295 32.0184 20.8457C31.4256 20.3142 30.5363 20.0484 29.3506 20.0484C28.2241 20.0484 27.3941 20.2551 26.8902 20.639C26.3566 21.0228 25.9713 21.702 25.7045 22.7059L23.3923 22.3811C23.5998 21.4067 23.9555 20.6095 24.4298 19.9894C24.9338 19.3988 25.6155 18.9264 26.5345 18.6016C27.4238 18.2768 28.4909 18.0996 29.7063 18.0996C30.892 18.0996 31.8406 18.2472 32.5816 18.513C33.3227 18.8083 33.8859 19.1626 34.2416 19.576C34.5974 19.9894 34.8345 20.5209 34.9827 21.1705C35.042 21.5839 35.1013 22.2925 35.1013 23.326V26.4559C35.1013 28.6409 35.1309 29.9992 35.2495 30.5898C35.3384 31.1803 35.5163 31.7118 35.8127 32.2728H33.3524C33.1152 31.7709 32.967 31.1803 32.8781 30.5307ZM32.7002 25.3043C31.8406 25.6587 30.5659 25.9539 28.8466 26.1902C27.8684 26.3378 27.1866 26.4854 26.7716 26.6626C26.3863 26.8398 26.0602 27.1055 25.8527 27.4303C25.6155 27.7551 25.5266 28.1095 25.5266 28.5228C25.5266 29.1429 25.7638 29.6744 26.238 30.0878C26.7123 30.5012 27.3941 30.7079 28.313 30.7079C29.232 30.7079 30.0323 30.5012 30.7438 30.1173C31.4552 29.7335 31.9888 29.1724 32.3149 28.4933C32.552 27.9618 32.7002 27.1941 32.7002 26.1606V25.3043Z" fill="#F28B00"/>
<path id="Vector_5" d="M3.6501 48.9863H47.0474V49.2521H3.6501V48.9863Z" fill="white"/>
<path id="Vector_6" d="M3.6501 50.3145H47.0474V50.5802H3.6501V50.3145Z" fill="white"/>
<path id="Vector_7" d="M3.6501 51.6445H47.0474V51.9103H3.6501V51.6445Z" fill="white"/>
<path id="Vector_8" d="M3.6501 52.9727H47.0474V53.2384H3.6501V52.9727Z" fill="white"/>
<path id="Vector_9" fill-rule="evenodd" clip-rule="evenodd" d="M24.4002 59.9996C24.3409 57.0173 24.3409 54.0055 24.2816 51.0527C21.0209 51.0527 17.7305 51.0527 14.4401 51.0527C14.4401 54.0055 14.3809 56.9582 14.3809 59.911C16.0409 58.6708 17.7602 57.4012 19.4202 56.161C21.0505 57.4012 22.7698 58.7299 24.4002 59.9996Z" fill="#189AD7"/>
</g>
<g id="_1430187619536">
<path id="Vector_10" fill-rule="evenodd" clip-rule="evenodd" d="M47.9663 17.5684V54.655C47.9663 55.9837 46.8696 57.0467 45.5653 57.0467H21.8212C21.3173 54.6845 21.0505 52.1747 21.0505 49.6353C21.0505 32.6274 32.9374 18.7199 47.9663 17.5684Z" fill="#189AD7"/>
<path id="Vector_11" fill-rule="evenodd" clip-rule="evenodd" d="M47.9663 17.5684V54.655C47.9663 55.9837 46.8696 57.0467 45.5653 57.0467H21.8212C21.3173 54.6845 21.0505 52.1747 21.0505 49.6353C21.0505 32.6274 32.9374 18.7199 47.9663 17.5684Z" fill="#F28B00"/>
<path id="Vector_12" fill-rule="evenodd" clip-rule="evenodd" d="M21.1098 47.3027H47.996V55.039H21.4655C21.1987 53.2673 21.0505 51.4661 21.0505 49.6354C21.0505 48.8382 21.0802 48.0705 21.1098 47.3027Z" fill="#00427E"/>
<path id="Vector_13" d="M32.8781 30.5308C32.0184 31.269 31.1588 31.8005 30.3584 32.0958C29.5581 32.3911 28.6984 32.5387 27.7498 32.5387C26.9495 32.5387 26.238 32.4501 25.6452 32.2434C26.0009 31.6233 26.3863 31.0328 26.7716 30.4422C27.1866 30.6194 27.7202 30.708 28.313 30.708C29.232 30.708 30.0323 30.5013 30.7438 30.1174C31.4552 29.7336 31.9888 29.1726 32.3148 28.4934C32.552 27.9619 32.7002 27.1942 32.7002 26.1607V25.3044C32.137 25.5407 31.3663 25.7474 30.4177 25.9245C31.8406 24.4777 33.4116 23.208 35.0716 22.0859C35.0716 22.4403 35.1013 22.8537 35.1013 23.3261V26.456C35.1013 28.6411 35.1309 29.9993 35.2495 30.5899C35.3384 31.1804 35.5163 31.7119 35.8127 32.2729H33.3524C33.1152 31.771 32.967 31.1804 32.8781 30.5308Z" fill="#00427E"/>
<path id="Vector_14" d="M21.0505 48.9863H47.0474V49.2521H21.0505V48.9863Z" fill="white"/>
<path id="Vector_15" d="M21.0505 50.3145H47.0474V50.5802H21.0505V50.3145Z" fill="white"/>
<path id="Vector_16" d="M21.1098 51.6426H47.0474V51.9083H21.1098V51.6426Z" fill="white"/>
<path id="Vector_17" d="M21.1987 52.9727H47.0474V53.2384H21.2284L21.1987 52.9727Z" fill="white"/>
<path id="Vector_18" fill-rule="evenodd" clip-rule="evenodd" d="M24.4002 59.9996C24.3409 57.0173 24.3409 54.0055 24.2816 51.0527H21.0802C21.1691 53.5035 21.5248 55.9248 22.088 58.1984C22.8587 58.8185 23.6295 59.409 24.4002 59.9996Z" fill="#F28B00"/>
</g>
</g>
</g>
<defs>
<clipPath id="clip0_105_3215">
<rect width="48" height="60" fill="white"/>
</clipPath>
</defs>
</svg>
