<svg width="48" height="60" viewBox="0 0 48 60" fill="none" xmlns="http://www.w3.org/2000/svg">
<g clip-path="url(#clip0_104_3066)">
<path d="M24.1653 44.1811L41.1009 29.2621L17.7115 23.9414L0.509827 38.0285L24.1653 44.1811Z" fill="#00427E"/>
<path d="M23.8356 29.3704L6.89999 15.9655L30.2908 11.1836L47.3852 23.6736L23.8356 29.3704Z" fill="#189AD7"/>
<path d="M17.8129 17.7986L3.94687 6.82461L23.0977 2.9082L37.1527 12.9893L17.8129 17.7986Z" fill="#F28B00"/>
<path d="M25.4339 45.1111C25.1995 44.6479 24.879 44.3247 24.5252 44.2416L0.774475 38.9208C0.774475 38.9208 1.79213 42.5992 1.75585 45.0468C1.72857 47.0296 0.788069 50.7815 0.788069 50.7815L24.5373 56.1023C24.8911 56.1854 25.2116 56.0057 25.4446 55.6505C25.6774 55.2951 25.8226 54.7659 25.8211 54.1497L25.8136 46.782C25.8135 46.1658 25.6683 45.5703 25.4339 45.1111ZM47.2264 24.6428L23.4772 29.423C23.1218 29.4987 22.8013 29.7878 22.5669 30.2055C22.3326 30.6214 22.1874 31.1525 22.1874 31.7063L22.1814 38.3293C22.1798 38.885 22.3236 39.3595 22.5564 39.675C22.7892 39.9964 23.1098 40.157 23.4637 40.0833L47.2144 35.3013C47.2144 35.3013 46.5324 33.1881 46.3388 29.8369C46.2118 27.6425 47.2264 24.6428 47.2264 24.6428ZM17.5089 26.5708L36.9517 22.6525C36.9517 22.6525 36.0973 20.8568 36.0157 18.3619C35.9507 16.3868 36.9623 13.9258 36.9623 13.9258L17.518 17.8421C17.2292 17.9027 16.966 18.1408 16.774 18.481C16.5819 18.8193 16.464 19.2541 16.464 19.7095L16.458 25.1304C16.4564 25.5821 16.5744 25.9734 16.7649 26.2342C16.9555 26.4952 17.2186 26.6255 17.5089 26.5708Z" fill="white"/>
<path d="M30.5907 38.5223L25.0241 43.4262C24.9065 43.3658 24.7854 43.3198 24.6612 43.2906L0.910449 37.9697C0.497668 37.8751 0.0878862 38.2259 0.01223 38.7513C-0.0633325 39.2777 0.216417 39.7804 0.638292 39.8749L24.3814 45.1939C24.4797 45.2175 24.6339 45.3431 24.7806 45.6334C24.9454 45.9547 25.0392 46.3733 25.0392 46.7844L25.0468 54.154C25.0483 54.514 24.9727 54.8449 24.8456 55.0386C24.7548 55.1739 24.7034 55.1558 24.6732 55.151L0.924043 49.8304C0.512761 49.735 0.10148 50.0865 0.0258237 50.612C-0.0498325 51.1384 0.230011 51.641 0.651886 51.7356L24.3935 57.0544C24.5009 57.08 24.6067 57.0923 24.711 57.0923C25.1279 57.0923 25.522 56.8955 25.8449 56.5268L41.996 42.1036C42.4588 41.6934 42.7672 40.8599 42.7656 39.8336L42.7619 36.1992L30.5907 38.5223Z" fill="#189AD7"/>
<path d="M47.0919 34.3456L23.3366 39.1285C23.2807 39.1427 23.2127 39.1407 23.125 39.0188C23.0191 38.8732 22.9541 38.6171 22.9555 38.3298L22.9615 31.7058C22.9615 31.3751 23.0478 31.0311 23.2005 30.7608C23.3215 30.5464 23.4697 30.4055 23.5997 30.3781L47.3489 25.5979C47.7724 25.5128 48.058 25.0168 47.9901 24.4884C47.922 23.961 47.5167 23.5953 47.104 23.6869C47.104 23.6869 28.1123 27.5481 22.9054 28.6333L19.7328 26.1222L16.7344 26.7179L15.5519 22.813L6.90001 15.9648C6.15451 16.2388 5.27598 17.4902 5.2427 18.9002L5.23511 25.5742C5.23511 26.4947 5.54205 27.2432 6.0047 27.6118L22.2874 40.6633C22.2811 40.6582 22.2765 40.6532 22.2705 40.6482C22.5715 40.9231 22.9248 41.0686 23.2927 41.0686C23.3894 41.0686 23.4878 41.059 23.586 41.0384L47.3367 36.2561C47.7602 36.1711 48.0459 35.675 47.9779 35.1467C47.9114 34.6186 47.5016 34.2604 47.0919 34.3456Z" fill="#F28B00"/>
<path d="M36.8292 21.6967L17.3366 25.5818C17.2852 25.5119 17.2323 25.3579 17.2323 25.131L17.2383 19.7091C17.2383 19.471 17.2989 19.2282 17.4062 19.0381C17.4969 18.8774 17.5922 18.8075 17.6406 18.797L37.0848 14.8807C37.5083 14.7957 37.7939 14.2986 37.7259 13.7712C37.6578 13.2429 37.2512 12.8828 36.8398 12.9698C36.8398 12.9698 17.0635 16.99 16.9108 17.0841L3.94689 6.82422C3.33751 7.04723 2.61779 8.0718 2.59051 9.22469L2.54514 14.9338C2.54514 15.6918 2.7962 16.3041 3.1757 16.6066C3.1757 16.6066 16.3594 27.2256 16.9134 27.4611C17.218 27.5905 17.5468 27.5419 17.6315 27.5259L37.0742 23.6076C37.4977 23.5225 37.7833 23.0254 37.7154 22.498C37.6472 21.9698 37.2419 21.6098 36.8292 21.6967Z" fill="#00427E"/>
</g>
<defs>
<clipPath id="clip0_104_3066">
<rect width="48" height="60" fill="white"/>
</clipPath>
</defs>
</svg>
