<svg width="23" height="23" viewBox="0 0 23 23" fill="none" xmlns="http://www.w3.org/2000/svg">
<path d="M11.25 0C9.02497 0 6.84989 0.659801 4.99984 1.89597C3.14979 3.13213 1.70785 4.88914 0.85636 6.94481C0.00487456 9.00048 -0.217913 11.2625 0.216171 13.4448C0.650254 15.6271 1.72171 17.6316 3.29505 19.205C4.86839 20.7783 6.87295 21.8498 9.05524 22.2838C11.2375 22.7179 13.4995 22.4951 15.5552 21.6436C17.6109 20.7922 19.3679 19.3502 20.604 17.5002C21.8402 15.6501 22.5 13.475 22.5 11.25C22.5 8.26631 21.3147 5.40483 19.205 3.29505C17.0952 1.18526 14.2337 0 11.25 0ZM11.25 21C9.32164 21 7.43657 20.4282 5.8332 19.3568C4.22982 18.2855 2.98013 16.7627 2.24218 14.9812C1.50423 13.1996 1.31114 11.2392 1.68735 9.34787C2.06355 7.45655 2.99215 5.71927 4.35571 4.35571C5.71928 2.99215 7.45656 2.06355 9.34787 1.68734C11.2392 1.31114 13.1996 1.50422 14.9812 2.24217C16.7627 2.98013 18.2855 4.22981 19.3568 5.83319C20.4282 7.43657 21 9.32163 21 11.25C21 13.8359 19.9728 16.3158 18.1443 18.1443C16.3158 19.9728 13.8359 21 11.25 21Z" fill="#00427E"/>
<path d="M11.25 8.25C11.0511 8.25 10.8603 8.32902 10.7197 8.46967C10.579 8.61032 10.5 8.80109 10.5 9V17.25C10.5 17.4489 10.579 17.6397 10.7197 17.7803C10.8603 17.921 11.0511 18 11.25 18C11.4489 18 11.6397 17.921 11.7803 17.7803C11.921 17.6397 12 17.4489 12 17.25V9C12 8.80109 11.921 8.61032 11.7803 8.46967C11.6397 8.32902 11.4489 8.25 11.25 8.25Z" fill="#00427E"/>
<path d="M11.25 6.75C11.6642 6.75 12 6.41421 12 6C12 5.58579 11.6642 5.25 11.25 5.25C10.8358 5.25 10.5 5.58579 10.5 6C10.5 6.41421 10.8358 6.75 11.25 6.75Z" fill="#00427E"/>
</svg>
