<svg width="59" height="60" viewBox="0 0 59 60" fill="none" xmlns="http://www.w3.org/2000/svg">
<g id="&#208;&#188;&#208;&#176;&#209;&#128;&#209;&#136;&#209;&#128;&#209;&#131;&#209;&#130;&#209;&#139; &#209;&#129;&#208;&#190;&#208;&#179;&#208;&#187;&#208;&#176;&#209;&#129;&#208;&#190;&#208;&#178;&#208;&#176;&#208;&#189;&#208;&#184;&#208;&#185; 1" clip-path="url(#clip0_105_3262)">
<g id="&#208;&#161;&#208;&#187;&#208;&#190;&#208;&#185;_x0020_1">
<g id="_1430171466384">
<path id="Vector" fill-rule="evenodd" clip-rule="evenodd" d="M8.03518 26.4106C10.799 22.2922 16.1231 15.869 16.1231 10.3149C16.1231 4.60957 12.5156 0 8.06428 0C3.613 0 0.00543213 4.60957 0.00543213 10.3149C0.00543213 15.9824 5.38769 22.4433 8.03518 26.4106Z" fill="#12438F"/>
<path id="Vector_2" fill-rule="evenodd" clip-rule="evenodd" d="M8.03507 26.4109C9.83886 23.7282 13.3301 19.5343 13.3301 15.9071C13.3301 12.2043 10.9735 9.18164 8.06417 9.18164C5.15484 9.18164 2.79828 12.2043 2.79828 15.9071C2.79828 19.6099 6.31857 23.8038 8.03507 26.4109Z" fill="#EA7D18"/>
<path id="Vector_3" d="M8.0351 26.2591C8.20966 26.0324 8.38422 25.7679 8.55878 25.5034C9.57705 24.0677 10.9153 22.1785 10.9153 20.5538C10.9153 19.5336 10.5953 18.6268 10.0716 17.9467C8.96609 16.5488 7.13321 16.5488 6.02767 17.9467C5.50399 18.6268 5.21305 19.5336 5.21305 20.5538C5.21305 22.2163 6.55134 24.1054 7.54052 25.5412C7.71508 25.7679 7.88964 26.0324 8.0351 26.2591ZM10.188 17.7956C10.7408 18.4757 11.0899 19.4581 11.0899 20.5538C11.0899 22.254 9.72251 24.181 8.67516 25.6923C8.4715 25.9568 8.29694 26.2591 8.12238 26.4858L8.0351 26.5991L7.97692 26.4858C7.83145 26.2591 7.6278 25.9946 7.42414 25.6923C6.37678 24.2566 5.0094 22.2918 5.0094 20.5538C5.0094 19.4581 5.35852 18.4757 5.91129 17.7956C7.07502 16.2843 9.02428 16.2843 10.188 17.7956Z" fill="#F8F8F8"/>
<path id="Vector_4" fill-rule="evenodd" clip-rule="evenodd" d="M50.6568 59.811C53.4206 55.6926 58.7447 49.2694 58.7447 43.7153C58.7447 38.01 55.1371 33.4004 50.6859 33.4004C46.2346 33.4004 42.627 38.01 42.627 43.7153C42.627 49.345 48.0093 55.8059 50.6568 59.811Z" fill="#5AA9FD"/>
<path id="Vector_5" fill-rule="evenodd" clip-rule="evenodd" d="M50.6568 59.8119C52.4606 57.1293 55.9518 52.9354 55.9518 49.3081C55.9518 45.5676 53.5952 42.5449 50.6859 42.5449C47.7765 42.5449 45.42 45.5676 45.42 49.3081C45.42 52.9731 48.9403 57.2049 50.6568 59.8119Z" fill="#12438F"/>
<path id="Vector_6" d="M50.6567 59.6224C50.8313 59.3957 50.9768 59.169 51.1804 58.9045C52.1987 57.4687 53.537 55.5795 53.537 53.9171C53.537 52.9347 53.217 51.9901 52.6933 51.3478C51.5877 49.912 49.7549 49.912 48.6493 51.3478C48.1256 51.9901 47.8056 52.9347 47.8056 53.9171C47.8056 55.5795 49.173 57.5065 50.1622 58.9045C50.3367 59.169 50.5113 59.3957 50.6567 59.6224ZM52.8097 51.1589C53.3624 51.8768 53.7115 52.8591 53.7115 53.9171C53.7115 55.6551 52.3442 57.5821 51.2968 59.0556C51.0931 59.3579 50.8895 59.6224 50.744 59.8869L50.6567 60.0002L50.5986 59.8869C50.424 59.6602 50.2494 59.3579 50.0458 59.0934C48.9984 57.6198 47.631 55.6929 47.631 53.9171C47.631 52.8591 47.9802 51.8768 48.5329 51.1589C49.6967 49.6476 51.6459 49.6476 52.8097 51.1589Z" fill="#F8F8F8"/>
<path id="Vector_7" d="M11.2353 24.8613H35.15C38.6121 24.8613 41.4633 28.5641 41.4633 33.0603V35.3273C41.4633 39.8613 38.6121 43.5263 35.15 43.5263H29.4186H13.2428C10.7407 43.5263 8.73329 46.1712 8.73329 49.3827V51.6497C8.73329 54.8991 10.7407 57.5062 13.2428 57.5062L46.7291 57.5439V59.8865L13.2428 59.8487C9.75155 59.8487 6.9295 56.1837 6.9295 51.6497V49.3827C6.9295 44.8865 9.75155 41.1837 13.2428 41.1837H16.9085H35.15C37.6229 41.1837 39.6595 38.5389 39.6595 35.3273V33.0603C39.6595 29.8487 37.6229 27.2039 35.15 27.2039H11.2353V24.8613Z" fill="#12438F"/>
<path id="Vector_8" d="M41.2596 30.9453C41.4051 31.6254 41.4633 32.3433 41.4633 33.0612V35.3282C41.4633 39.8622 38.6121 43.5272 35.15 43.5272H29.4186H23.1345L26.5093 41.1846H35.15C37.623 41.1846 39.6595 38.5398 39.6595 35.3282V33.0612C39.6595 32.7211 39.6304 32.4189 39.6013 32.1166L41.2596 30.9453ZM8.90787 53.3886C9.48974 55.769 11.2062 57.507 13.2428 57.507L46.7292 57.5448V59.8874L13.2428 59.8496C10.5371 59.8496 8.20963 57.6204 7.30774 54.5221L8.90787 53.3886Z" fill="#EA7D18"/>
</g>
</g>
</g>
<defs>
<clipPath id="clip0_105_3262">
<rect width="58.75" height="60" fill="white"/>
</clipPath>
</defs>
</svg>
