<svg width="48" height="60" viewBox="0 0 48 60" fill="none" xmlns="http://www.w3.org/2000/svg">
<g id="&#208;&#190;&#208;&#177;&#209;&#128;&#208;&#176;&#208;&#183;&#209;&#134;&#209;&#139; &#208;&#180;&#208;&#190;&#208;&#186;&#209;&#131;&#208;&#188;&#208;&#181;&#208;&#189;&#209;&#130;&#208;&#190;&#208;&#178; 1" clip-path="url(#clip0_105_3238)">
<g id="&#208;&#161;&#208;&#187;&#208;&#190;&#208;&#185;_x0020_1">
<g id="_1393972093776">
<path id="Vector" fill-rule="evenodd" clip-rule="evenodd" d="M2.78261 0H29.8402L42.5558 14.2895V56.998C42.5558 58.6391 41.2991 60 39.7836 60H2.78261C1.26708 60 0.0103073 58.6391 0.0103073 56.998V3.002C0.0103073 1.36091 1.26708 0 2.78261 0Z" fill="#F28B00"/>
<path id="Vector_2" fill-rule="evenodd" clip-rule="evenodd" d="M8.21638 0H35.274L47.9896 14.2895V56.998C47.9896 58.6391 46.7698 60 45.2173 60H8.21638C6.70085 60 5.48104 58.6391 5.48104 56.998V3.002C5.48104 1.36091 6.70085 0 8.21638 0Z" fill="#00427E"/>
<path id="Vector_3" fill-rule="evenodd" clip-rule="evenodd" d="M47.9896 14.2895H37.0853C36.0503 14.2895 35.2001 13.3689 35.2001 12.2482V0.640427C35.2001 0.400267 35.2371 0.200133 35.274 0L47.9896 14.2895Z" fill="#189AD7"/>
<path id="Vector_4" d="M9.51012 18.6133H43.9605V18.9335H9.51012V18.6133Z" fill="white"/>
<path id="Vector_5" d="M9.51012 24.5371H43.9605V24.8173H9.51012V24.5371Z" fill="white"/>
<path id="Vector_6" d="M9.51012 30.4199H43.9605V30.7401H9.51012V30.4199Z" fill="white"/>
<path id="Vector_7" d="M9.51012 36.3438H43.9605V36.664H9.51012V36.3438Z" fill="white"/>
<path id="Vector_8" d="M9.51012 42.2285H43.9605V42.5487H9.51012V42.2285Z" fill="white"/>
<path id="Vector_9" d="M9.51012 9.76562H26.8462V10.0458H9.51012V9.76562Z" fill="white"/>
</g>
<g id="_1393972030608">
<path id="Vector_10" fill-rule="evenodd" clip-rule="evenodd" d="M2.78261 0H29.8402L37.233 8.28552L0.0103073 43.1087V3.002C0.0103073 1.36091 1.26708 0 2.78261 0Z" fill="#00427E"/>
<path id="Vector_11" fill-rule="evenodd" clip-rule="evenodd" d="M8.21638 0H35.274L40.1902 5.52368L5.48104 38.0254V3.002C5.48104 1.36091 6.70085 0 8.21638 0Z" fill="#F28B00"/>
<path id="Vector_12" fill-rule="evenodd" clip-rule="evenodd" d="M35.2001 10.2068V0.640427C35.2001 0.400267 35.2371 0.200133 35.274 0L40.1902 5.52368L35.2001 10.2068Z" fill="#00427E"/>
<path id="Vector_13" d="M9.51012 18.6133H26.1809L25.8852 18.9335H9.51012V18.6133Z" fill="white"/>
<path id="Vector_14" d="M9.51012 24.5371H19.897L19.5643 24.8173H9.51012V24.5371Z" fill="white"/>
<path id="Vector_15" d="M9.51012 30.4199H13.5762L13.2435 30.7401H9.51012V30.4199Z" fill="white"/>
<path id="Vector_16" d="M9.51012 9.76562H26.8462V10.0458H9.51012V9.76562Z" fill="white"/>
</g>
</g>
</g>
<defs>
<clipPath id="clip0_105_3238">
<rect width="48" height="60" fill="white"/>
</clipPath>
</defs>
</svg>
