<svg width="37" height="37" viewBox="0 0 37 37" fill="none" xmlns="http://www.w3.org/2000/svg">
<g clip-path="url(#clip0_193_6662)">
<path d="M37 9.25V28.1061C37 29.25 36.5791 30.3492 35.8098 31.2049L30.582 37H26.4303L33.5205 29.1406C33.7764 28.8554 33.9182 28.4885 33.9182 28.1061V9.25C33.9182 8.40054 33.226 7.70833 32.3765 7.70833C31.5271 7.70833 30.8349 8.40054 30.8349 9.25V21.5833H30.8272C30.8272 22.6378 30.4695 23.6939 29.7542 24.5464L25.7797 28.6842L23.5582 26.5475L27.4632 22.4867C27.6637 22.2447 27.7639 21.9179 27.7592 21.5833H27.7531V21.4708C27.7253 21.144 27.5974 20.8156 27.3615 20.552C26.7972 19.9214 25.8214 19.869 25.1939 20.4332L20.7107 24.5588C21.275 25.3404 21.588 26.2885 21.588 27.2659V37H18.5046V27.2659C18.5046 26.8358 18.3227 26.4226 18.0067 26.1328L11.7999 20.4209C11.1863 19.8705 10.212 19.923 9.64621 20.5535C9.14054 21.1193 9.12666 21.9842 9.61383 22.5654L13.5759 26.6832L11.3544 28.8199L7.32137 24.625C6.56904 23.7324 6.19596 22.6532 6.18825 21.5849H6.17129V9.25C6.17129 8.40054 5.47908 7.70833 4.62962 7.70833C3.78016 7.70833 3.08796 8.40054 3.08796 9.25V28.1061C3.08796 28.4885 3.22979 28.8554 3.48571 29.1406L10.5758 37H6.42412L1.19633 31.2049C0.42704 30.3492 0.00616455 29.25 0.00616455 28.1061V9.25C0.00616455 6.70008 2.08125 4.625 4.63116 4.625C7.18108 4.625 9.25616 6.70008 9.25616 9.25V17.222C10.7947 16.6824 12.5754 16.9737 13.875 18.1362L18.5062 22.3973L23.1235 18.15C24.4339 16.9768 26.216 16.6839 27.7562 17.222V9.25C27.7562 6.70008 29.8312 4.625 32.3812 4.625C34.9311 4.625 37.0062 6.70008 37.0062 9.25H37Z" fill="black"/>
</g>
<defs>
<clipPath id="clip0_193_6662">
<rect width="37" height="37" fill="white"/>
</clipPath>
</defs>
</svg>
