<svg width="36" height="36" viewBox="0 0 36 36" fill="none" xmlns="http://www.w3.org/2000/svg">
<g clip-path="url(#clip0_193_6657)">
<path d="M17.8557 23.9996C19.0977 23.9996 20.1057 25.0076 20.1057 26.2496C20.1057 27.4916 19.0977 28.4996 17.8557 28.4996C16.6137 28.4996 15.6057 27.4916 15.6057 26.2496C15.6057 25.0076 16.6137 23.9996 17.8557 23.9996ZM19.3557 20.9996C19.3557 20.1581 19.9677 19.1621 20.7477 18.7316C22.9977 17.4926 24.2082 14.9471 23.7612 12.3971C23.3367 9.97764 21.3507 7.99014 18.9297 7.56564C17.1567 7.25964 15.3597 7.73364 13.9962 8.87664C12.6357 10.0211 11.8542 11.6951 11.8542 13.4711C11.8542 14.3006 12.5262 14.9711 13.3542 14.9711C14.1822 14.9711 14.8542 14.3006 14.8542 13.4711C14.8542 12.5831 15.2442 11.7461 15.9252 11.1731C16.6167 10.5941 17.5032 10.3601 18.4107 10.5206C19.5912 10.7276 20.5977 11.7356 20.8047 12.9146C21.0342 14.2211 20.4432 15.4721 19.2987 16.1021C17.5647 17.0576 16.3542 19.0706 16.3542 20.9981C16.3542 21.8276 17.0262 22.4981 17.8542 22.4981C18.6822 22.4981 19.3542 21.8276 19.3542 20.9981L19.3557 20.9996ZM35.9997 28.4996V18.5096C35.9997 8.79114 28.6437 0.680635 19.2537 0.0416353C14.0412 -0.303365 8.94124 1.59864 5.26324 5.28114C1.58524 8.96514 -0.316757 14.0666 0.0447426 19.2806C0.704743 28.8116 9.12274 35.9996 19.6257 35.9996H28.5012C32.6367 35.9996 35.9997 32.6351 35.9997 28.4996ZM19.0512 3.03564C26.8737 3.56664 32.9997 10.3631 32.9997 18.5081V28.4981C32.9997 30.9791 30.9807 32.9981 28.4997 32.9981H19.6242C10.5717 32.9981 3.59524 27.1421 3.03574 19.0721C2.73424 14.7236 4.31824 10.4696 7.38424 7.40064C10.2072 4.57314 14.0367 2.99964 18.0222 2.99964C18.3642 2.99964 18.7077 3.01164 19.0497 3.03414L19.0512 3.03564Z" fill="black"/>
</g>
<defs>
<clipPath id="clip0_193_6657">
<rect width="36" height="36" fill="white"/>
</clipPath>
</defs>
</svg>
