<svg width="173" height="135" viewBox="0 0 173 135" fill="none" xmlns="http://www.w3.org/2000/svg">
<path d="M140 159C166.51 159 188 137.51 188 111C188 84.4903 166.51 63 140 63C113.49 63 92 84.4903 92 111C92 137.51 113.49 159 140 159Z" fill="#5AA9FD"/>
<path d="M104.659 110.406C135.147 110.406 159.862 85.691 159.862 55.2032C159.862 24.7153 135.147 0 104.659 0C74.1709 0 49.4556 24.7153 49.4556 55.2032C49.4556 85.691 74.1709 110.406 104.659 110.406Z" fill="#EA7D18"/>
<path d="M44.2521 91.9511C44.0895 92.7641 44.6315 93.5771 45.4988 93.7668L46.637 94.0107L49.7535 94.634C49.8619 94.6611 49.9703 94.6611 50.0787 94.6611C50.8104 94.6611 51.4879 94.1733 51.6234 93.4416L53.7101 83.9294C53.8998 83.0893 53.3578 82.2763 52.4906 82.0866L48.2359 81.2194C47.3687 81.0568 46.5286 81.5717 46.3389 82.4118L44.2521 91.9511Z" fill="#EA7D18"/>
<path d="M50.1331 94.6611C50.8377 94.634 51.4881 94.1462 51.6236 93.4416L53.7103 83.9294C53.9 83.0893 53.358 82.2763 52.4908 82.0866L48.2361 81.2194C47.3688 81.0568 46.5287 81.5717 46.339 82.4118L44.3878 91.3819C46.2306 92.5744 48.1547 93.6855 50.1331 94.6611Z" fill="#5AA9FD"/>
<path d="M52.2468 77.2344C50.133 90.4864 42.5178 118.156 42.5178 118.156L42.6533 118.21L42.5178 118.698C51.9758 122.438 58.236 117.749 58.236 117.749C62.6804 114.795 68.1275 93.4945 70.9731 81.0826L52.2468 77.2344Z" fill="#EA7D18"/>
<path d="M52.2467 77.2344C51.5421 81.7059 50.2141 87.8306 48.7507 93.9552C54.0895 96.8007 59.9702 98.8062 66.1762 99.7547C68.0732 93.3319 69.7534 86.3943 70.9729 81.0826L52.2467 77.2344Z" fill="#12438F"/>
<path d="M47.8023 66.2598L46.6912 71.6527L46.5557 72.276C45.7698 76.0158 48.2901 79.7015 52.1654 80.4874L67.0977 83.5768C70.973 84.3627 74.7399 81.9779 75.4987 78.2381L75.6342 77.6419L76.7453 72.2489L47.8023 66.2598Z" fill="#5AA9FD"/>
<path d="M12.9515 44.5797C8.47994 66.287 3.1412 83.4957 1.02738 83.0621C-1.11354 82.6285 0.810578 64.6881 5.28212 43.0079C9.75365 21.3006 15.0924 4.09199 17.2062 4.5256C17.6669 4.6069 17.423 22.8995 12.9515 44.5797Z" fill="#EA7D18"/>
<path d="M80.1599 43.3054L80.0244 43.2783L79.9431 43.2512C79.8347 43.2241 79.7263 43.197 79.6179 43.1699L77.9919 51.0832L75.309 64.0642L73.6017 72.3027C73.7101 72.3027 73.8185 72.3298 73.9269 72.3298C81.4608 73.3596 88.6152 68.2647 90.2141 60.5412C91.7859 52.8989 87.3415 45.4463 80.1599 43.3054Z" fill="#12438F"/>
<path d="M77.9921 51.0818L79.6181 43.1414L67.4772 40.6211L61.4609 69.7809L73.6018 72.3013L75.3092 64.0628L77.9921 51.0818Z" fill="#5AA9FD"/>
<path d="M0.512451 43.2505C0.539551 43.1963 0.539551 43.1421 0.566652 43.0879C0.539551 43.1421 0.512451 43.1963 0.512451 43.2505Z" fill="#055589"/>
<path d="M14.0897 34.2814C7.72111 33.3058 1.62356 37.6418 0.268549 44.2001C-1.08646 50.7584 2.81597 57.154 9.04902 58.78L14.0897 34.2814Z" fill="#5AA9FD"/>
<path d="M5.93249 69.5911C4.03547 76.2307 2.27395 81.0545 1.02734 83.0599C2.19265 82.1114 3.73737 81.0003 5.66148 79.8079L5.71568 79.7808C5.87829 79.6724 6.04089 79.564 6.20349 79.4827L6.36609 79.3743C6.50159 79.293 6.60999 79.2388 6.71839 79.1575C6.82679 79.1033 6.96229 79.022 7.0978 78.9407L7.1791 78.8865C11.488 76.3661 17.2604 73.6561 24.1438 71.5965C24.198 71.5694 24.2522 71.5694 24.3064 71.5423C24.7942 71.4068 25.255 71.2713 25.7428 71.1358C25.8241 71.1087 25.8783 71.0816 25.9596 71.0816C27.3688 70.6751 28.8322 70.3228 30.3498 69.9976C30.5395 69.9705 30.7292 69.9163 30.9189 69.8892C31.3254 69.7808 31.7319 69.6995 32.1655 69.6453C32.4094 69.5911 32.6533 69.5369 32.8972 69.5098C33.3037 69.4285 33.7102 69.3472 34.1167 69.293C34.3877 69.2388 34.6587 69.2117 34.9297 69.1575C35.5801 69.0491 36.2576 68.9678 36.9352 68.8865C37.2875 68.8323 37.6127 68.7781 37.965 68.751C38.3173 68.7239 38.6967 68.6697 39.049 68.6426C39.4013 68.6155 39.7807 68.5613 40.133 68.5342C40.4853 68.5071 40.8376 68.48 41.1899 68.4529C41.6235 68.4258 42.0571 68.3987 42.4907 68.3716C42.7888 68.3716 43.114 68.3445 43.4392 68.3445C43.5476 68.3174 43.656 68.3174 43.7915 68.3174H43.8186C44.3606 68.2903 44.9026 68.2903 45.4446 68.2903C45.7427 68.2632 46.0408 68.2632 46.3389 68.2632C46.7996 68.2632 47.2603 68.2903 47.721 68.2903C48.0462 68.2903 48.3714 68.2903 48.6967 68.3174C49.1845 68.3174 49.6994 68.3445 50.1872 68.3716C50.4582 68.3716 50.7292 68.3987 51.0002 68.3987L51.3254 68.4258C51.4338 68.4258 51.5422 68.4529 51.6777 68.4529C51.9216 68.48 52.1926 68.48 52.4636 68.5071C52.6804 68.5342 52.8701 68.5613 53.0869 68.5613L53.2766 68.5884C53.4934 68.6155 53.7102 68.6426 53.927 68.6426C54.4961 68.7239 55.0923 68.7781 55.6885 68.8594C55.9595 68.8865 56.2576 68.9136 56.5557 68.9678C57.0977 69.0491 57.6668 69.1304 58.2088 69.2117C58.4798 69.2659 58.7508 69.293 58.9947 69.3472C59.4825 69.4285 59.9432 69.5098 60.4039 69.5911C60.7292 69.6453 61.0544 69.7266 61.3796 69.7808H61.4338L61.4609 69.8079L65.8511 48.5342L67.4771 40.6209C67.0977 40.5396 66.7183 40.4583 66.3389 40.377C65.9053 40.2686 65.4717 40.1873 65.0381 40.0789C64.7942 40.0247 64.5503 39.9434 64.3064 39.8892C63.7102 39.7537 63.1682 39.5911 62.5991 39.4285C62.3281 39.3743 62.0842 39.293 61.8403 39.2117C61.217 39.0491 60.5937 38.8594 59.9974 38.6697C59.8348 38.6155 59.6722 38.5613 59.5096 38.5071L59.347 38.4529C59.1031 38.3716 58.8863 38.3174 58.6695 38.2361C58.4256 38.1548 58.1817 38.0735 57.9649 37.9922C57.8565 37.938 57.721 37.9109 57.6126 37.8838L57.2874 37.7483C57.0977 37.667 56.908 37.6128 56.6912 37.5315C56.1492 37.3418 55.6072 37.125 55.0652 36.9082C54.8213 36.8269 54.6045 36.7185 54.3606 36.6101C53.8457 36.4204 53.3308 36.2036 52.8159 35.9868C52.6262 35.8784 52.4365 35.7971 52.2197 35.7158L51.9216 35.5803L51.7048 35.4719C51.488 35.3906 51.2712 35.2822 51.0544 35.1738C50.7834 35.0383 50.4853 34.9028 50.2143 34.7673H50.1872C50.0788 34.7131 49.9704 34.6589 49.862 34.6047C49.32 34.3337 48.7509 34.0627 48.2088 33.7646C47.992 33.6562 47.7752 33.5478 47.5584 33.4394C47.1248 33.1955 46.6641 32.9516 46.2305 32.7077C46.0137 32.5993 45.824 32.4909 45.6072 32.3554C45.0923 32.0573 44.5774 31.7592 44.0896 31.4611C43.9812 31.4069 43.8728 31.3527 43.7644 31.2714C43.5205 31.1359 43.2495 30.9733 43.0056 30.8107C42.6804 30.621 42.3552 30.4042 42.03 30.1874C41.8132 30.0519 41.6235 29.9164 41.4338 29.808C41.0544 29.537 40.6479 29.293 40.2956 29.0491C40.0788 28.8865 39.862 28.751 39.6452 28.5884C39.2658 28.3445 38.9135 28.0735 38.5612 27.8296C38.3715 27.6941 38.1818 27.5586 37.9921 27.4231C37.4772 27.0437 36.9893 26.6643 36.5015 26.2849C36.3118 26.1494 36.1221 25.9868 35.9053 25.8513C35.6072 25.5803 35.282 25.3364 34.9839 25.0925C34.7671 24.9299 34.5503 24.7402 34.3064 24.5505C34.0625 24.3337 33.7915 24.1169 33.5205 23.9001C33.3037 23.7104 33.0869 23.5207 32.8701 23.331C32.5991 23.0871 32.3281 22.8432 32.0842 22.6264C31.7048 22.2741 31.3254 21.9489 30.9731 21.6237C30.7563 21.434 30.5666 21.2443 30.3498 21.0546C30.1059 20.8107 29.862 20.5939 29.6181 20.35C29.4555 20.1874 29.2929 20.0248 29.1303 19.8622C28.8864 19.6183 28.6425 19.3744 28.3986 19.1305C28.2631 19.0221 28.1547 18.8866 28.0192 18.7511C27.152 17.8568 26.3119 16.9624 25.5531 16.0952C25.4718 16.041 25.4176 15.9597 25.3634 15.8784C25.0924 15.5803 24.8484 15.3093 24.5774 15.0112C24.5503 14.957 24.4961 14.9028 24.469 14.8486C21.6235 11.5424 19.5097 8.50717 18.1005 6.09525C18.0734 6.04105 18.0192 5.98685 17.9921 5.90555L17.8837 5.71585C17.8024 5.60745 17.7482 5.52615 17.694 5.41775L17.6398 5.30934C17.5856 5.20094 17.5043 5.06544 17.4501 4.95704L17.423 4.90284C17.3417 4.76734 17.2875 4.65894 17.2062 4.52344C17.2333 4.57764 17.2333 4.65894 17.2604 4.74024V4.76734C17.2604 4.82154 17.2604 4.90284 17.2875 4.98414V5.01124C17.2875 5.09254 17.2875 5.14674 17.3146 5.22804V5.30934C17.3146 5.36354 17.3146 5.44485 17.3146 5.49905L17.3417 5.60745C17.3417 5.66165 17.3417 5.71585 17.3417 5.77005V5.93265V6.04105C17.3417 6.12235 17.3688 6.20365 17.3688 6.28495C17.423 8.56137 17.2062 11.9218 16.7184 16.1223C15.9054 23.5207 14.2523 33.4936 12.0029 44.3879C10.0246 54.0085 7.8837 62.7618 5.93249 69.5911Z" fill="#EA7D18"/>
<path d="M25.8782 71.0833H25.9595C27.3687 70.6768 28.8321 70.3245 30.3497 69.9993C30.5394 69.9722 30.7291 69.9179 30.9188 69.8909C31.3253 69.7824 31.7318 69.7011 32.1655 69.6469C32.4094 69.5927 32.6533 69.5385 32.8972 69.5114C33.3037 69.4301 33.7102 69.3488 34.1167 69.2946C34.3877 69.2404 34.6587 69.2133 34.9297 69.1591C35.5801 69.0507 36.2576 68.9694 36.9351 68.8881C37.2874 68.8339 37.6126 68.7797 37.9649 68.7526C38.3172 68.7255 38.6966 68.6713 39.0489 68.6442C39.4012 68.6171 39.7806 68.5629 40.1329 68.5358C40.4852 68.5087 40.8375 68.4816 41.1898 68.4545C41.6234 68.4274 42.057 68.4003 42.4906 68.3732C42.7887 68.3732 43.1139 68.3461 43.4391 68.3461C43.5476 68.319 43.656 68.319 43.7915 68.319H43.8186C44.3606 68.2919 44.9026 68.2919 45.4446 68.2919C45.7427 68.2648 46.0408 68.2648 46.3389 68.2648C46.7996 68.2648 47.2603 68.2919 47.721 68.2919C48.0462 68.2919 48.3714 68.2919 48.6966 68.319C49.1844 68.319 49.6993 68.3461 50.1871 68.3732C50.4581 68.3732 50.7291 68.4003 51.0001 68.4003L51.3253 68.4274C51.4337 68.4274 51.5421 68.4545 51.6776 68.4545C51.9215 68.4816 52.1925 68.4816 52.4635 68.5087C52.6803 68.5358 52.87 68.5629 53.0868 68.5629L53.2765 68.59C53.4933 68.6171 53.7101 68.6442 53.9269 68.6442C54.496 68.7255 55.0923 68.7797 55.6885 68.861C55.9595 68.8881 56.2576 68.9152 56.5557 68.9694C57.0977 69.0507 57.6668 69.132 58.2088 69.2133C58.4798 69.2675 58.7508 69.2946 58.9947 69.3488C59.4825 69.4301 59.9432 69.5114 60.4039 69.5927C60.7291 69.6469 61.0543 69.7282 61.3795 69.7824H61.4337L61.4608 69.8096L65.851 48.5359L67.4771 40.6226C67.0977 40.5413 66.7183 40.46 66.3388 40.3787C65.9052 40.2703 65.4716 40.189 65.038 40.0806C64.7941 40.0264 64.5502 39.9451 64.3063 39.8909C63.7101 39.7554 63.1681 39.5928 62.599 39.4302C62.328 39.376 62.0841 39.2947 61.8402 39.2134C61.2169 39.0508 60.5936 38.8611 59.9974 38.6714C59.8348 38.6172 59.6722 38.563 59.5096 38.5088L59.347 38.4546C59.1031 38.3733 58.8863 38.3191 58.6695 38.2378C58.4256 38.1565 58.1817 38.0752 57.9649 37.9939C57.8565 37.9397 57.721 37.9126 57.6126 37.8855L57.2874 37.75C57.0977 37.6687 56.908 37.6145 56.6912 37.5332C56.1492 37.3435 55.6072 37.1267 55.0651 36.9099C54.8212 36.8286 54.6044 36.7202 54.3605 36.6118C53.8456 36.4221 53.3307 36.2053 52.8158 35.9885C52.6261 35.8801 52.4364 35.7988 52.2196 35.7175L51.9215 35.582L51.7047 35.4736C51.4879 35.3923 51.2711 35.2839 51.0543 35.1755C50.7833 35.04 50.4852 34.9045 50.2142 34.7689H50.1871C50.0787 34.7148 49.9703 34.6605 49.8619 34.6063C49.3199 34.3353 48.7508 34.0643 48.2088 33.7662C47.992 33.6578 47.7752 33.5494 47.5584 33.441C47.1248 33.1971 46.6641 32.9532 46.2305 32.7093C46.0137 32.6009 45.824 32.4925 45.6072 32.357C45.0923 32.0589 44.5774 31.7608 44.0896 31.4627C43.9812 31.4085 43.8728 31.3543 43.7644 31.273C43.5205 31.1375 43.2494 30.9749 43.0055 30.8123C42.6803 30.6226 42.3551 30.4058 42.0299 30.189C41.8131 30.0535 41.6234 29.918 41.4337 29.8096C41.0543 29.5386 40.6478 29.2947 40.2955 29.0508C40.0787 28.8882 39.8619 28.7527 39.6451 28.5901C39.2657 28.3462 38.9134 28.0752 38.5611 27.8313C38.3714 27.6958 38.1817 27.5603 37.992 27.4248C37.4771 27.0454 36.9893 26.666 36.5015 26.2866C36.3118 26.1511 36.1221 25.9885 35.9053 25.853C35.6072 25.582 35.282 25.3381 34.9839 25.0942C34.7671 24.9316 34.5503 24.7419 34.3064 24.5522C34.0625 24.3354 33.7915 24.1186 33.5205 23.9018C33.3037 23.7121 33.0869 23.5224 32.8701 23.3327C32.5991 23.0888 32.3281 22.8448 32.0842 22.628C31.7048 22.2757 31.3253 21.9505 30.973 21.6253C30.7562 21.4356 30.5665 21.2459 30.3497 21.0562C30.1058 20.8123 29.8619 20.5955 29.618 20.3516C29.4554 20.189 29.2928 20.0264 29.1302 19.8638C28.8863 19.6199 28.6424 19.376 28.3985 19.1321C28.263 19.0237 28.1546 18.8882 28.0191 18.7527C27.6126 18.3462 27.2332 17.9397 26.8538 17.5332C22.1384 25.6633 19.4283 35.1213 19.4283 45.2025C19.4283 54.5521 21.759 63.3597 25.8782 71.0833Z" fill="#12438F"/>
<path d="M22.1655 12.0573C19.8891 9.10338 18.236 6.47465 17.2062 4.52344C17.2333 4.57764 17.2333 4.65894 17.2604 4.74024V4.76734C17.2604 4.82154 17.2604 4.90284 17.2875 4.98414V5.01124C17.2875 5.09254 17.2875 5.14674 17.3146 5.22804V5.30934C17.3146 5.36354 17.3146 5.44485 17.3146 5.49905L17.3417 5.60745C17.3417 5.66165 17.3417 5.71585 17.3417 5.77005V5.93265V6.04105C17.3417 6.12235 17.3688 6.20365 17.3688 6.28495C17.423 8.56137 17.2062 11.9218 16.7184 16.1223C15.9054 23.5207 14.2523 33.4936 12.0029 44.3879C10.0246 54.0085 7.8837 62.7618 5.93249 69.5911C4.03547 76.2307 2.27395 81.0545 1.02734 83.0599C2.70756 81.6778 5.28208 79.9163 8.56121 78.1277C13.0598 67.9651 16.4745 57.3689 18.778 46.5288C21.1357 35.3635 22.2739 23.9272 22.1926 12.4638L22.1655 12.0573Z" fill="#5AA9FD"/>
<path d="M16.2307 71.8153C27.2063 67.669 33.873 66.3411 45.6345 66.2598V66.4766C33.9272 66.585 27.2605 67.8858 16.312 72.0321L16.2307 71.8153Z" fill="#F8F8F8"/>
</svg>
