<svg width="224" height="211" viewBox="0 0 224 211" fill="none" xmlns="http://www.w3.org/2000/svg">
<path d="M96.9749 199.252C129.659 199.252 156.154 172.756 156.154 140.072C156.154 107.388 129.659 80.8926 96.9749 80.8926C64.291 80.8926 37.7954 107.388 37.7954 140.072C37.7954 172.756 64.291 199.252 96.9749 199.252Z" fill="#5AA9FD"/>
<path fill-rule="evenodd" clip-rule="evenodd" d="M20.9592 246.365C41.3361 216.919 61.749 187.474 81.1143 168.109C168.475 80.7486 223.282 206.803 264 20.413C257.244 13.5846 250.452 6.79228 243.695 0C200.088 188.377 149.145 59.3602 60.7735 147.768C41.4083 167.133 20.9954 196.579 0.61853 226.024C7.41081 232.888 14.1308 239.5 20.9592 246.365Z" fill="#EA7D18"/>
<path fill-rule="evenodd" clip-rule="evenodd" d="M63.0135 188.522C69.1193 180.971 75.1528 174.071 81.1142 168.11C109.114 140.109 133.754 134.04 155.685 132.558C154.745 125.152 152.433 118.143 149.001 111.82C124.108 111.893 95.2768 113.229 60.7734 147.769C55.2457 153.26 49.6818 159.583 44.0095 166.484C48.4173 175.299 54.9928 182.886 63.0135 188.522Z" fill="#12438F"/>
<path fill-rule="evenodd" clip-rule="evenodd" d="M127.901 151.236H168.727C186.539 151.236 201.099 165.796 201.099 183.608C201.099 190.039 200.738 196.651 200.738 203.226C200.738 206.08 198.426 208.393 195.571 208.393H100.913C98.095 208.393 95.7466 206.08 95.7466 203.226C95.7466 196.687 95.5298 190.075 95.5298 183.608C95.5298 165.796 110.09 151.236 127.901 151.236Z" fill="#5AA9FD"/>
<path fill-rule="evenodd" clip-rule="evenodd" d="M127.901 151.236H155.071C149.868 178.55 125.842 199.216 96.975 199.216C96.5414 199.216 96.144 199.216 95.7466 199.216C95.6743 193.977 95.5298 188.738 95.5298 183.608C95.5298 165.796 110.09 151.236 127.901 151.236Z" fill="#12438F"/>
<path fill-rule="evenodd" clip-rule="evenodd" d="M127.901 151.236H168.727C169.631 151.236 170.498 151.272 171.365 151.345C166.415 162.942 157.889 170.602 148.206 170.602C138.523 170.602 130.033 162.942 125.047 151.345C125.987 151.272 126.926 151.236 127.901 151.236Z" fill="#EA7D18"/>
<path fill-rule="evenodd" clip-rule="evenodd" d="M127.901 151.236H155.071C153.77 158.173 151.205 164.712 147.664 170.602C138.234 170.313 129.925 162.725 125.047 151.345C125.987 151.272 126.926 151.236 127.901 151.236Z" fill="#12438F"/>
<path d="M129.636 151.129L142.57 161.787C142.787 161.679 143.003 161.606 143.256 161.534C143.545 161.462 143.871 161.426 144.16 161.426H152.831C153.083 161.426 153.372 161.462 153.625 161.534C153.842 161.57 154.059 161.642 154.24 161.715L167.174 151.129H168.113L154.854 162.004C155.323 162.329 155.721 162.726 156.01 163.196C156.407 163.774 156.624 164.497 156.624 165.219V172.662C156.624 173.71 156.191 174.649 155.504 175.335C154.818 176.022 153.842 176.455 152.831 176.455H152.289L157.13 203.227H156.769C153.878 203.227 151.024 203.227 148.17 203.227C145.316 203.263 142.461 203.263 139.607 203.227H139.246L144.087 176.455C143.076 176.419 142.172 176.022 141.486 175.335C140.8 174.649 140.366 173.71 140.366 172.662V165.219C140.366 164.497 140.583 163.846 140.908 163.268C141.197 162.835 141.558 162.437 141.992 162.112L128.66 151.129H129.636ZM156.407 202.613L151.674 176.455H144.701L139.969 202.613C142.714 202.649 145.46 202.649 148.17 202.613C150.916 202.613 153.662 202.613 156.407 202.613ZM152.831 162.04H144.16C143.907 162.04 143.654 162.076 143.401 162.148C143.148 162.184 142.931 162.293 142.678 162.401V162.437C142.172 162.69 141.739 163.088 141.45 163.593C141.161 164.063 140.98 164.605 140.98 165.219V172.662C140.98 173.529 141.341 174.324 141.92 174.902C142.498 175.48 143.292 175.841 144.16 175.841H152.831C153.698 175.841 154.492 175.48 155.071 174.902C155.649 174.324 156.01 173.529 156.01 172.662V165.219C156.01 164.605 155.829 164.027 155.504 163.521C155.179 163.015 154.709 162.618 154.167 162.365V162.329C153.951 162.257 153.734 162.148 153.517 162.112C153.3 162.076 153.047 162.04 152.831 162.04Z" fill="#F8F8F8"/>
<path fill-rule="evenodd" clip-rule="evenodd" d="M149.001 77.3535C162.477 77.3535 173.533 92.0219 174.508 110.592C178.229 112.001 180.867 115.542 180.867 119.697C180.867 124.791 176.929 128.982 171.871 129.416C167.68 141.158 159.009 149.214 149.001 149.214C138.993 149.214 130.358 141.158 126.131 129.416C125.951 129.416 125.77 129.452 125.589 129.452C120.134 129.452 115.726 125.08 115.726 119.697C115.726 115.036 119.05 111.134 123.53 110.195C124.614 91.8052 135.597 77.3535 149.001 77.3535Z" fill="#5AA9FD"/>
<path fill-rule="evenodd" clip-rule="evenodd" d="M159.334 95.453C158.864 95.9588 158.395 96.4285 157.961 96.8982C149.94 105.027 135.163 112.109 123.891 110.266C114.317 93.9356 134.405 73.9201 152.108 76.7381C157.491 77.5691 164.247 81.0014 166.379 86.3846C166.885 86.493 167.427 86.6737 167.86 86.8182C176.82 90.1782 177.29 101.992 176.278 109.832C176.17 110.772 176.026 111.097 175.809 111.205C172.955 110.591 170.534 112.578 169.884 113.373C168.944 108.026 163.416 98.4156 159.334 95.453Z" fill="#EA7D18"/>
<path fill-rule="evenodd" clip-rule="evenodd" d="M155.613 147.984C153.517 148.779 151.277 149.213 149.001 149.213C138.993 149.213 130.358 141.156 126.131 129.414C125.951 129.414 125.77 129.45 125.589 129.45C120.134 129.45 115.726 125.079 115.726 119.695C115.726 115.035 119.05 111.133 123.53 110.193C123.964 102.715 126.059 95.9223 129.238 90.4668C145.424 101.017 156.155 119.298 156.155 140.072C156.155 142.746 155.974 145.383 155.613 147.984Z" fill="#5AA9FD"/>
<path fill-rule="evenodd" clip-rule="evenodd" d="M145.28 105.893C138.343 109.361 130.503 111.348 123.891 110.264C119.592 102.93 121.254 94.8734 125.987 88.4785C133.646 92.7779 140.222 98.7392 145.28 105.893Z" fill="#EA7D18"/>
<path fill-rule="evenodd" clip-rule="evenodd" d="M155.613 147.984C153.517 148.779 151.277 149.213 149.001 149.213C138.993 149.213 130.358 141.156 126.131 129.414C125.951 129.414 125.77 129.45 125.589 129.45C120.134 129.45 115.726 125.079 115.726 119.695C115.726 115.035 119.05 111.133 123.53 110.193C123.964 102.715 126.059 95.9223 129.238 90.4668C145.424 101.017 156.155 119.298 156.155 140.072C156.155 142.746 155.974 145.383 155.613 147.984Z" fill="#EA7D18"/>
<path fill-rule="evenodd" clip-rule="evenodd" d="M145.28 105.893C138.343 109.361 130.503 111.348 123.891 110.264C119.592 102.93 121.254 94.8734 125.987 88.4785C133.646 92.7779 140.222 98.7392 145.28 105.893Z" fill="#12438F"/>
</svg>
