<svg width="164" height="150" viewBox="0 0 164 150" fill="none" xmlns="http://www.w3.org/2000/svg">
<path d="M121.865 191C154.321 191 180.632 164.572 180.632 131.972C180.632 99.3712 154.321 72.9434 121.865 72.9434C89.4087 72.9434 63.0979 99.3712 63.0979 131.972C63.0979 164.572 89.4087 191 121.865 191Z" fill="#F28B00"/>
<path d="M10.3048 124.579C9.70741 124.579 9.22205 125.065 9.22205 125.662C9.22205 126.259 9.70741 126.707 10.3048 126.707H85.8356C91.7347 126.707 96.4764 121.928 96.4764 116.067C96.4764 110.205 91.7347 105.426 85.8356 105.426H10.3048C9.70741 105.426 9.22205 105.911 9.22205 106.471C9.22205 107.069 9.70741 107.554 10.3048 107.554C15.0091 107.554 18.8174 111.362 18.8174 116.067C18.8174 120.771 15.0091 124.579 10.3048 124.579Z" fill="#5AA9FD"/>
<path d="M63.3966 126.707H85.8356C91.7347 126.707 96.4763 121.928 96.4763 116.067C96.4763 110.205 91.7347 105.426 85.8356 105.426H69.5197C66.1968 111.922 64.0687 119.128 63.3966 126.707Z" fill="#EA7D18"/>
<path d="M45.3633 105.426H10.3048C9.70741 105.426 9.22205 105.911 9.22205 106.471C9.22205 107.069 9.70741 107.554 10.3048 107.554C15.0091 107.554 18.8174 111.362 18.8174 116.067C18.8174 116.888 18.7054 117.635 18.4814 118.381C28.4128 115.917 37.4854 111.437 45.3633 105.426Z" fill="#5AA9FD"/>
<path d="M85.8356 126.707H10.3048C9.70741 126.707 9.22205 126.259 9.22205 125.662V129.769C9.55807 129.844 9.93143 129.918 10.3048 129.918H85.8356C93.4895 129.918 99.6872 123.72 99.6872 116.067C99.6872 108.45 93.4895 102.215 85.8356 102.215H10.3048C9.93143 102.215 9.55807 102.29 9.22205 102.364V106.471C9.22205 105.911 9.70741 105.426 10.3048 105.426H85.8356C91.7347 105.426 96.4763 110.205 96.4763 116.067C96.4763 121.928 91.7347 126.707 85.8356 126.707Z" fill="#EA7D18"/>
<path d="M85.8356 126.707H63.3966C63.2846 127.79 63.2099 128.835 63.1726 129.918H85.8356C93.4895 129.918 99.6872 123.72 99.6872 116.067C99.6872 108.45 93.4895 102.215 85.8356 102.215H71.2745C70.6398 103.26 70.0798 104.343 69.5197 105.426H85.8356C91.7347 105.426 96.4763 110.205 96.4763 116.067C96.4763 121.928 91.7347 126.707 85.8356 126.707Z" fill="#12438F"/>
<path d="M49.2463 102.215H10.3048C9.93143 102.215 9.55807 102.29 9.22205 102.364V106.471C9.22205 105.911 9.70741 105.426 10.3048 105.426H45.3633C46.7074 104.418 47.9768 103.335 49.2463 102.215Z" fill="#12438F"/>
<path d="M1.08274 96.9134C0.485368 96.9134 0 97.3987 0 97.9588C0 98.5562 0.485368 99.0415 1.08274 99.0415H76.6135C82.5126 99.0415 87.2543 94.2625 87.2543 88.4008C87.2543 82.5017 82.5126 77.7227 76.6135 77.7227H1.08274C0.485368 77.7227 0 78.208 0 78.8054C0 79.4028 0.485368 79.8508 1.08274 79.8508C5.78709 79.8508 9.59536 83.6964 9.59536 88.4008C9.59536 93.0678 5.78709 96.9134 1.08274 96.9134Z" fill="#EA7D18"/>
<path d="M73.2906 99.0429H76.6136C82.5126 99.0429 87.2543 94.2639 87.2543 88.4022C87.2543 87.1701 87.0676 86.0127 86.6943 84.8926C81.4672 88.8502 76.9496 93.6292 73.2906 99.0429Z" fill="#12438F"/>
<path d="M1.08274 96.9134C0.485368 96.9134 0 97.3987 0 97.9588C0 98.5562 0.485368 99.0415 1.08274 99.0415H52.6438C58.7669 92.9184 63.8446 85.7126 67.5035 77.7227H1.08274C0.485368 77.7227 0 78.208 0 78.8054C0 79.4028 0.485368 79.8508 1.08274 79.8508C5.78708 79.8508 9.59536 83.6964 9.59536 88.4008C9.59536 93.0678 5.78708 96.9134 1.08274 96.9134Z" fill="#12438F"/>
<path d="M76.6135 99.0413H1.08274C0.485368 99.0413 0 98.5559 0 97.9585V102.065C0.336024 102.177 0.709385 102.215 1.08274 102.215H76.6135C84.2674 102.215 90.4652 96.017 90.4652 88.4005C90.4652 80.7466 84.2674 74.5488 76.6135 74.5488H1.08274C0.709385 74.5488 0.336024 74.6235 0 74.6982V78.8051C0 78.2078 0.485368 77.7224 1.08274 77.7224H76.6135C82.5126 77.7224 87.2543 82.5014 87.2543 88.4005C87.2543 94.2623 82.5126 99.0413 76.6135 99.0413Z" fill="#5AA9FD"/>
<path d="M76.6136 99.0428H73.2907C72.5813 100.088 71.9092 101.134 71.2745 102.216H76.6136C84.2675 102.216 90.4653 96.0186 90.4653 88.402C90.4653 86.4605 90.0919 84.6684 89.3825 82.9883C88.4491 83.623 87.553 84.2577 86.6943 84.8924C87.0677 86.0125 87.2544 87.1699 87.2544 88.402C87.2544 94.2638 82.5127 99.0428 76.6136 99.0428Z" fill="#EA7D18"/>
<path d="M52.6438 99.0413H1.08274C0.485368 99.0413 0 98.5559 0 97.9585V102.065C0.336024 102.177 0.709385 102.215 1.08274 102.215H49.2462C50.4036 101.207 51.5611 100.124 52.6438 99.0413ZM68.885 74.5488H1.08274C0.709385 74.5488 0.336024 74.6235 0 74.6982V78.8051C0 78.2078 0.485368 77.7224 1.08274 77.7224H67.5035C67.9889 76.677 68.437 75.6316 68.885 74.5488Z" fill="#5AA9FD"/>
<path d="M21.3188 69.21C20.7588 69.21 20.2734 69.6954 20.2734 70.2928C20.2734 70.8901 20.7588 71.3382 21.3188 71.3382H96.887C102.749 71.3382 107.528 66.5592 107.528 60.6974C107.528 54.8357 102.749 50.0566 96.887 50.0566H21.3188C20.7588 50.0566 20.2734 50.542 20.2734 51.102C20.2734 51.6994 20.7588 52.1848 21.3188 52.1848C26.0232 52.1848 29.8688 55.9931 29.8688 60.6974C29.8688 65.4018 26.0232 69.21 21.3188 69.21Z" fill="#5AA9FD"/>
<path d="M21.3188 69.21C20.7588 69.21 20.2734 69.6954 20.2734 70.2928C20.2734 70.8901 20.7588 71.3382 21.3188 71.3382H70.0797C72.4319 64.655 73.8133 57.4865 74.112 50.0566H21.3188C20.7588 50.0566 20.2734 50.542 20.2734 51.102C20.2734 51.6994 20.7588 52.1848 21.3188 52.1848C26.0232 52.1848 29.8688 55.9931 29.8688 60.6974C29.8688 65.4018 26.0232 69.21 21.3188 69.21Z" fill="#5AA9FD"/>
<path d="M96.887 71.3401H21.3188C20.7588 71.3401 20.2734 70.8921 20.2734 70.2947V74.4016C20.6095 74.4763 20.9828 74.551 21.3188 74.551H96.887C104.504 74.551 110.739 68.3532 110.739 60.6993C110.739 53.0828 104.504 46.8477 96.887 46.8477H21.3188C20.9828 46.8477 20.6095 46.9223 20.2734 46.997V51.104C20.2734 50.5439 20.7588 50.0586 21.3188 50.0586H96.887C102.749 50.0586 107.528 54.8376 107.528 60.6993C107.528 66.5611 102.749 71.3401 96.887 71.3401Z" fill="#EA7D18"/>
<path d="M70.0797 71.3401H21.3188C20.7588 71.3401 20.2734 70.8921 20.2734 70.2947V74.4016C20.6095 74.4763 20.9828 74.551 21.3188 74.551H68.885C69.2957 73.5056 69.7063 72.4228 70.0797 71.3401ZM74.1867 46.8477H21.3188C20.9828 46.8477 20.6095 46.9223 20.2734 46.997V51.104C20.2734 50.5439 20.7588 50.0586 21.3188 50.0586H74.112C74.1493 49.0505 74.1867 48.0797 74.1867 47.0717V46.8477Z" fill="#12438F"/>
<path fill-rule="evenodd" clip-rule="evenodd" d="M9.89404 0.400391H127.055V6.44883H9.89404V0.400391ZM29.3088 46.8464C28.9354 46.3984 28.7861 45.913 28.6741 45.3156C28.4127 43.7849 28.4127 41.5447 29.3088 35.6829C30.2048 29.8212 32.3703 20.1885 34.1998 10.6678C54.6973 10.6678 75.1574 10.6678 95.6549 10.6678C97.4844 20.1885 99.6499 29.8212 100.546 35.6829C101.442 41.5447 101.442 43.7849 101.181 45.3156C101.069 45.913 100.919 46.3984 100.546 46.8464C76.8002 46.8464 53.0545 46.8464 29.3088 46.8464Z" fill="#5AA9FD"/>
<path fill-rule="evenodd" clip-rule="evenodd" d="M9.89404 0.400391H57.4975C59.0656 2.34186 60.559 4.35801 61.9405 6.44883H9.89404V0.400391ZM64.554 10.6678C70.6398 21.3459 74.1494 33.6668 74.1867 46.8464H29.3088C28.9354 46.3984 28.7861 45.913 28.6741 45.3156C28.4127 43.7849 28.4127 41.5447 29.3088 35.6829C30.2048 29.8212 32.3703 20.1885 34.1998 10.6678C44.3179 10.6678 54.4359 10.6678 64.554 10.6678Z" fill="#EA7D18"/>
<path d="M119.102 12.797C120.442 12.797 121.529 11.7105 121.529 10.3702C121.529 9.02989 120.442 7.94336 119.102 7.94336C117.762 7.94336 116.675 9.02989 116.675 10.3702C116.675 11.7105 117.762 12.797 119.102 12.797Z" fill="#EA7D18"/>
<path d="M121.193 13.8789H117.347V18.9566H121.193V13.8789Z" fill="#EA7D18"/>
<path fill-rule="evenodd" clip-rule="evenodd" d="M125.972 62.0432C124.404 47.9676 122.836 33.8919 121.23 19.8535C119.923 19.8535 118.579 19.8909 117.235 19.9282C115.667 33.9665 114.099 48.0796 112.531 62.1179C116.152 63.9474 122.537 64.3954 125.972 62.0432Z" fill="#EA7D18"/>
<path d="M30.9888 54.5373L96.8122 54.5V54.8734H30.9888V54.5373Z" fill="#F8F8F8"/>
<path d="M30.9888 60.5117H96.8122V60.8851H30.9888V60.5117Z" fill="#F8F8F8"/>
<path d="M30.9888 66.5215H96.8122V66.8948H30.9888V66.5215Z" fill="#F8F8F8"/>
<path d="M10.7155 82.2012H76.5762V82.5372H10.7155V82.2012Z" fill="#F8F8F8"/>
<path d="M10.7155 88.2129H76.5762V88.5489H10.7155V88.2129Z" fill="#F8F8F8"/>
<path d="M10.7155 94.2227H76.5762V94.5587H10.7155V94.2227Z" fill="#F8F8F8"/>
<path d="M19.9373 109.908H85.798V110.244H19.9373V109.908Z" fill="#F8F8F8"/>
<path d="M19.9373 115.881H85.798V116.254H19.9373V115.881Z" fill="#F8F8F8"/>
<path d="M19.9373 121.893H85.798V122.266H19.9373V121.893Z" fill="#F8F8F8"/>
</svg>
