<svg width="200" height="160" viewBox="0 0 200 160" fill="none" xmlns="http://www.w3.org/2000/svg">
<path d="M143.839 109.194C174.856 109.194 200 84.7499 200 54.5969C200 24.4439 174.856 0 143.839 0C112.822 0 87.6778 24.4439 87.6778 54.5969C87.6778 84.7499 112.822 109.194 143.839 109.194Z" fill="#EA7D18"/>
<path fill-rule="evenodd" clip-rule="evenodd" d="M83.938 125.384C69.618 116.931 55.2981 108.479 40.9781 100.027C27.2655 120.008 13.6807 140.019 0 160C33.5624 159.845 66.997 159.72 100.559 159.596C95.0296 148.192 89.4678 136.788 83.938 125.384ZM116.957 74.5155C132.524 97.3859 148.058 120.318 163.625 143.189C144.862 129.299 126.035 115.533 107.304 101.674C100.655 106.46 93.9428 111.245 87.3262 116.061C77.3853 110.219 67.1568 104.346 57.2159 98.5046C67.3805 83.8377 77.5452 69.1708 87.7098 54.5039C92.1848 61.0294 96.6278 67.4928 101.103 74.0183C106.217 74.1426 111.875 74.4223 116.957 74.5155ZM169.538 159.907C150.232 159.845 130.829 159.969 111.523 159.907C105.674 147.757 99.7283 135.762 93.9108 123.643C98.3539 120.381 102.797 117.149 107.24 113.886C127.889 129.268 148.857 144.525 169.538 159.907Z" fill="#5AA9FD"/>
<path fill-rule="evenodd" clip-rule="evenodd" d="M140.451 109.07C111.012 107.361 87.6778 83.6202 87.6778 54.5971V54.535L87.7098 54.5039C92.1847 61.0294 96.6278 67.4928 101.103 74.0183C106.217 74.1426 111.875 74.4223 116.957 74.5155C124.788 86.0129 132.619 97.5413 140.451 109.07Z" fill="#12438F"/>
<path d="M87.5819 54.721V26.1641H87.8374V54.721H87.5819Z" fill="#F8F8F8"/>
<path fill-rule="evenodd" clip-rule="evenodd" d="M87.1664 19.1426H105.578L96.3401 25.5127L105.578 31.8518H87.1664V19.1426Z" fill="#EA7D18"/>
<path fill-rule="evenodd" clip-rule="evenodd" d="M101.135 19.1426H105.578L96.3401 25.5127L105.578 31.8518H92.7601C94.9336 27.2218 97.7785 22.9647 101.135 19.1426Z" fill="#12438F"/>
</svg>
