<svg width="24" height="24" viewBox="0 0 24 24" fill="none" xmlns="http://www.w3.org/2000/svg">
<g clip-path="url(#clip0_27_745)">
<path d="M15.9386 13.6795L14.0077 13.2871V11.8711C15.0083 11.292 15.7104 10.3098 15.9342 9.17563C16.7972 9.00005 17.3545 8.15789 17.179 7.29482C17.1201 7.00475 16.9814 6.73669 16.7785 6.52092C17.0515 6.29525 17.2101 5.96003 17.2112 5.60583V4.40452C17.2081 1.97328 15.2379 0.00302736 12.8066 0H11.2049C8.77338 0.00302736 6.80312 1.97328 6.80009 4.40452V5.60583C6.80147 5.96003 6.95971 6.29525 7.23273 6.52092C6.63056 7.16575 6.66551 8.17688 7.31034 8.77878C7.52473 8.97886 7.79004 9.11619 8.07708 9.17563C8.30083 10.3095 9.00318 11.292 10.0036 11.8711V13.2857L8.07268 13.6795C4.97762 14.3821 2.78472 17.1387 2.796 20.3127V23.6246C2.796 23.8456 2.97544 24.0248 3.19644 24.0248H20.8148C21.0361 24.0248 21.2152 23.8456 21.2152 23.6246V20.3127C21.2268 17.139 19.0339 14.3821 15.9386 13.6795ZM10.308 14.0422L11.4452 14.8957L10.7607 15.8077L9.21702 14.2641L10.308 14.0422ZM13.7044 14.0422L14.7973 14.261L13.25 15.808L12.5661 14.8957L13.7044 14.0422ZM10.7888 17.0638L10.4269 23.2242H10.3426L9.00621 15.1849L10.7888 17.0638ZM11.3048 16.4171L12.0058 15.483L12.7065 16.4171L12.0058 17.3514L11.3048 16.4171ZM15.0053 15.1849L13.6686 23.2242H13.5847L13.2266 17.0578L15.0053 15.1849ZM16.1753 8.17358C16.1257 8.22202 16.0701 8.26358 16.0099 8.29715V6.91833C16.3913 7.13657 16.5237 7.6226 16.3054 8.00405C16.2697 8.06625 16.2262 8.12322 16.1753 8.17358ZM7.60096 4.40452C7.60317 2.41528 9.21537 0.803075 11.2049 0.800873H12.8066C14.7959 0.803075 16.4081 2.41528 16.4103 4.40452V5.60583C16.4103 5.82711 16.2311 6.00627 16.0099 6.00627V5.60583C16.0099 5.38456 15.8307 5.2054 15.6094 5.2054H15.2093C14.448 5.20375 13.7531 4.77166 13.4149 4.08996C13.3386 3.88217 13.1088 3.77566 12.901 3.85162C12.7835 3.89483 12.6927 3.9906 12.6561 4.11032C12.5174 4.51461 12.289 4.88202 11.9881 5.18558C11.5646 5.62565 11.0081 5.91407 10.404 6.00627H8.00168C7.7804 6.00627 7.60124 5.82711 7.60124 5.60611V4.40452H7.60096ZM7.60096 7.60802C7.60179 7.32317 7.75453 7.06034 8.0014 6.91833V8.29743C7.75206 8.15789 7.59876 7.89369 7.60096 7.60802ZM8.80227 8.40889V6.80714H10.404C11.2214 6.71715 11.9818 6.34423 12.5532 5.7528C12.764 5.54143 12.9475 5.3042 13.0997 5.04715C13.6326 5.65482 14.4009 6.00407 15.2093 6.00627V8.40861C15.2093 10.1777 13.7748 11.6121 12.0058 11.6121C10.2367 11.6121 8.80227 10.178 8.80227 8.40889ZM12.0058 12.413C12.4131 12.413 12.8182 12.3508 13.2068 12.2283V13.4139L12.0058 14.315L10.8045 13.4139V12.2283C11.1931 12.3508 11.5982 12.413 12.0058 12.413ZM3.59688 20.3127C3.58779 17.5796 5.43475 15.1885 8.08149 14.5068L9.53104 23.2242H6.80009V19.6206C6.80009 19.3993 6.62093 19.2201 6.39993 19.2201C6.17866 19.2201 5.99949 19.3993 5.99949 19.6206V23.2242H3.59688V20.3127ZM11.2291 23.2242L11.5318 18.0546L11.6851 18.2591C11.8178 18.436 12.0691 18.4718 12.2457 18.3392C12.276 18.3163 12.3033 18.2893 12.3258 18.2591L12.4819 18.0505L12.7824 23.2242H11.2291ZM20.4144 23.2242H18.012V19.6206C18.012 19.3993 17.8326 19.2201 17.6116 19.2201C17.3903 19.2201 17.2112 19.3993 17.2112 19.6206V23.2242H14.4802L15.9298 14.5071C18.5765 15.1888 20.4235 17.5796 20.4144 20.3127V23.2242Z" fill="#00427E"/>
</g>
<defs>
<clipPath id="clip0_27_745">
<rect width="24" height="24" fill="white"/>
</clipPath>
</defs>
</svg>
